<svg width="170" height="167" viewBox="0 0 170 167" fill="none" xmlns="http://www.w3.org/2000/svg">
<path opacity="0.2" fill-rule="evenodd" clip-rule="evenodd" d="M14.6078 4.91322C10.2158 4.91322 6.64223 8.48689 6.64223 12.9115C6.64223 17.336 10.2158 20.9097 14.6078 20.9097C18.9998 20.9097 22.5733 17.336 22.5733 12.9115C22.5733 8.48689 18.9998 4.91322 14.6078 4.91322ZM1.72705 12.9115C1.72705 5.78683 7.48671 -0.00195694 14.6078 -0.00195694C21.7289 -0.00195694 27.4885 5.78683 27.4885 12.9115C27.4885 20.0361 21.7289 25.8249 14.6078 25.8249C7.48671 25.8249 1.72705 20.0361 1.72705 12.9115Z" fill="#B3AFE9"/>
<path opacity="0.2" fill-rule="evenodd" clip-rule="evenodd" d="M62.1044 4.91322C57.7124 4.91322 54.1388 8.48689 54.1388 12.9115C54.1388 17.336 57.7124 20.9097 62.1044 20.9097C66.4964 20.9097 70.0699 17.336 70.0699 12.9115C70.0699 8.48689 66.4964 4.91322 62.1044 4.91322ZM49.2236 12.9115C49.2236 5.78683 54.9833 -0.00195694 62.1044 -0.00195694C69.2254 -0.00195694 74.9851 5.78683 74.9851 12.9115C74.9851 20.0361 69.2254 25.8249 62.1044 25.8249C54.9833 25.8249 49.2236 20.0361 49.2236 12.9115Z" fill="#B3AFE9"/>
<path opacity="0.2" fill-rule="evenodd" clip-rule="evenodd" d="M109.581 4.91322C105.189 4.91322 101.615 8.48689 101.615 12.9115C101.615 17.336 105.189 20.9097 109.581 20.9097C113.973 20.9097 117.546 17.336 117.546 12.9115C117.546 8.48689 113.973 4.91322 109.581 4.91322ZM96.7002 12.9115C96.7002 5.78683 102.46 -0.00195694 109.581 -0.00195694C116.702 -0.00195694 122.462 5.78683 122.462 12.9115C122.462 20.0361 116.702 25.8249 109.581 25.8249C102.46 25.8249 96.7002 20.0361 96.7002 12.9115Z" fill="#B3AFE9"/>
<path opacity="0.2" fill-rule="evenodd" clip-rule="evenodd" d="M157.057 4.91322C152.665 4.91322 149.092 8.48689 149.092 12.9115C149.092 17.336 152.665 20.9097 157.057 20.9097C161.45 20.9097 165.023 17.336 165.023 12.9115C165.023 8.48689 161.45 4.91322 157.057 4.91322ZM144.177 12.9115C144.177 5.78683 149.936 -0.00195694 157.057 -0.00195694C164.179 -0.00195694 169.938 5.78683 169.938 12.9115C169.938 20.0361 164.179 25.8249 157.057 25.8249C149.936 25.8249 144.177 20.0361 144.177 12.9115Z" fill="#B3AFE9"/>
<path opacity="0.2" fill-rule="evenodd" clip-rule="evenodd" d="M14.0455 51.9542C9.65352 51.9542 6.07997 55.5279 6.07997 59.9525C6.07997 64.377 9.65352 67.9507 14.0455 67.9507C18.4375 67.9507 22.0111 64.377 22.0111 59.9525C22.0111 55.5279 18.4375 51.9542 14.0455 51.9542ZM1.16479 59.9525C1.16479 52.8278 6.92445 47.0391 14.0455 47.0391C21.1666 47.0391 26.9263 52.8278 26.9263 59.9525C26.9263 67.0771 21.1666 72.8659 14.0455 72.8659C6.92445 72.8659 1.16479 67.0771 1.16479 59.9525Z" fill="#B3AFE9"/>
<path opacity="0.2" fill-rule="evenodd" clip-rule="evenodd" d="M61.5221 51.9542C57.1301 51.9542 53.5565 55.5279 53.5565 59.9525C53.5565 64.377 57.1301 67.9507 61.5221 67.9507C65.9141 67.9507 69.4877 64.377 69.4877 59.9525C69.4877 55.5279 65.9141 51.9542 61.5221 51.9542ZM48.6414 59.9525C48.6414 52.8278 54.401 47.0391 61.5221 47.0391C68.6432 47.0391 74.4028 52.8279 74.4028 59.9525C74.4028 67.0771 68.6432 72.8659 61.5221 72.8659C54.401 72.8659 48.6414 67.0771 48.6414 59.9525Z" fill="#B3AFE9"/>
<path opacity="0.2" fill-rule="evenodd" clip-rule="evenodd" d="M108.999 51.9542C104.607 51.9542 101.033 55.5279 101.033 59.9525C101.033 64.377 104.607 67.9507 108.999 67.9507C113.391 67.9507 116.964 64.377 116.964 59.9525C116.964 55.5279 113.391 51.9542 108.999 51.9542ZM96.1179 59.9525C96.1179 52.8279 101.878 47.0391 108.999 47.0391C116.12 47.0391 121.879 52.8278 121.879 59.9525C121.879 67.0771 116.12 72.8659 108.999 72.8659C101.878 72.8659 96.1179 67.0771 96.1179 59.9525Z" fill="#B3AFE9"/>
<path opacity="0.2" fill-rule="evenodd" clip-rule="evenodd" d="M156.475 51.9542C152.083 51.9542 148.51 55.5279 148.51 59.9525C148.51 64.377 152.083 67.9507 156.475 67.9507C160.867 67.9507 164.441 64.377 164.441 59.9525C164.441 55.5279 160.867 51.9542 156.475 51.9542ZM143.594 59.9525C143.594 52.8278 149.354 47.0391 156.475 47.0391C163.596 47.0391 169.356 52.8279 169.356 59.9525C169.356 67.0771 163.596 72.8659 156.475 72.8659C149.354 72.8659 143.594 67.0771 143.594 59.9525Z" fill="#B3AFE9"/>
<path opacity="0.2" fill-rule="evenodd" clip-rule="evenodd" d="M13.463 99.0158C9.071 99.0158 5.49745 102.589 5.49745 107.014C5.49745 111.439 9.071 115.012 13.463 115.012C17.855 115.012 21.4286 111.439 21.4286 107.014C21.4286 102.589 17.855 99.0158 13.463 99.0158ZM0.582275 107.014C0.582275 99.8894 6.34193 94.1006 13.463 94.1006C20.5841 94.1006 26.3437 99.8894 26.3437 107.014C26.3437 114.139 20.5841 119.927 13.463 119.927C6.34193 119.927 0.582275 114.139 0.582275 107.014Z" fill="#B3AFE9"/>
<path opacity="0.2" fill-rule="evenodd" clip-rule="evenodd" d="M60.9396 99.0158C56.5476 99.0158 52.974 102.589 52.974 107.014C52.974 111.439 56.5476 115.012 60.9396 115.012C65.3316 115.012 68.9051 111.439 68.9051 107.014C68.9051 102.589 65.3316 99.0158 60.9396 99.0158ZM48.0588 107.014C48.0588 99.8894 53.8185 94.1006 60.9396 94.1006C68.0607 94.1006 73.8203 99.8894 73.8203 107.014C73.8203 114.139 68.0607 119.927 60.9396 119.927C53.8185 119.927 48.0588 114.139 48.0588 107.014Z" fill="#B3AFE9"/>
<path opacity="0.2" fill-rule="evenodd" clip-rule="evenodd" d="M108.416 99.0158C104.024 99.0158 100.451 102.589 100.451 107.014C100.451 111.439 104.024 115.012 108.416 115.012C112.808 115.012 116.382 111.439 116.382 107.014C116.382 102.589 112.808 99.0158 108.416 99.0158ZM95.5354 107.014C95.5354 99.8894 101.295 94.1006 108.416 94.1006C115.537 94.1006 121.297 99.8894 121.297 107.014C121.297 114.139 115.537 119.927 108.416 119.927C101.295 119.927 95.5354 114.139 95.5354 107.014Z" fill="#B3AFE9"/>
<path opacity="0.2" fill-rule="evenodd" clip-rule="evenodd" d="M155.893 99.0158C151.501 99.0158 147.927 102.589 147.927 107.014C147.927 111.439 151.501 115.012 155.893 115.012C160.285 115.012 163.858 111.439 163.858 107.014C163.858 102.589 160.285 99.0158 155.893 99.0158ZM143.012 107.014C143.012 99.8894 148.772 94.1006 155.893 94.1006C163.014 94.1006 168.773 99.8894 168.773 107.014C168.773 114.139 163.014 119.927 155.893 119.927C148.772 119.927 143.012 114.139 143.012 107.014Z" fill="#B3AFE9"/>
<path opacity="0.2" fill-rule="evenodd" clip-rule="evenodd" d="M12.8807 146.057C8.48872 146.057 4.91517 149.63 4.91517 154.055C4.91517 158.48 8.48872 162.053 12.8807 162.053C17.2727 162.053 20.8463 158.48 20.8463 154.055C20.8463 149.63 17.2727 146.057 12.8807 146.057ZM0 154.055C0 146.93 5.75965 141.142 12.8807 141.142C20.0018 141.142 25.7615 146.93 25.7615 154.055C25.7615 161.18 20.0018 166.968 12.8807 166.968C5.75965 166.968 0 161.18 0 154.055Z" fill="#B3AFE9"/>
<path opacity="0.2" fill-rule="evenodd" clip-rule="evenodd" d="M60.3573 146.057C55.9653 146.057 52.3917 149.63 52.3917 154.055C52.3917 158.48 55.9653 162.053 60.3573 162.053C64.7493 162.053 68.3229 158.48 68.3229 154.055C68.3229 149.63 64.7493 146.057 60.3573 146.057ZM47.4766 154.055C47.4766 146.93 53.2362 141.142 60.3573 141.142C67.4784 141.142 73.238 146.93 73.238 154.055C73.238 161.18 67.4784 166.968 60.3573 166.968C53.2362 166.968 47.4766 161.18 47.4766 154.055Z" fill="#B3AFE9"/>
<path opacity="0.2" fill-rule="evenodd" clip-rule="evenodd" d="M107.834 146.057C103.442 146.057 99.8683 149.63 99.8683 154.055C99.8683 158.48 103.442 162.053 107.834 162.053C112.226 162.053 115.799 158.48 115.799 154.055C115.799 149.63 112.226 146.057 107.834 146.057ZM94.9531 154.055C94.9531 146.93 100.713 141.142 107.834 141.142C114.955 141.142 120.715 146.93 120.715 154.055C120.715 161.18 114.955 166.968 107.834 166.968C100.713 166.968 94.9531 161.18 94.9531 154.055Z" fill="#B3AFE9"/>
<path opacity="0.2" fill-rule="evenodd" clip-rule="evenodd" d="M155.31 146.057C150.918 146.057 147.345 149.63 147.345 154.055C147.345 158.48 150.918 162.053 155.31 162.053C159.702 162.053 163.276 158.48 163.276 154.055C163.276 149.63 159.702 146.057 155.31 146.057ZM142.43 154.055C142.43 146.93 148.189 141.142 155.31 141.142C162.432 141.142 168.191 146.93 168.191 154.055C168.191 161.18 162.432 166.968 155.31 166.968C148.189 166.968 142.43 161.18 142.43 154.055Z" fill="#B3AFE9"/>
</svg>
