<svg width="304" height="304" viewBox="0 0 304 304" fill="none" xmlns="http://www.w3.org/2000/svg">
<rect x="76.6665" y="77" width="149.997" height="8.10797" fill="#5C55B8"/>
<rect x="218.556" y="77" width="8.10797" height="26.7563" fill="#5C55B8"/>
<rect x="76.6665" y="77" width="8.10797" height="145.943" fill="#5C55B8"/>
<rect x="76.6665" y="218.886" width="77.0257" height="8.10797" fill="#5C55B8"/>
<path d="M218.614 128.842C215.035 126.004 210.561 124.361 205.789 124.361C194.306 124.361 184.911 133.771 184.911 145.271C184.911 156.772 194.306 166.181 205.789 166.181C217.272 166.181 226.667 156.772 226.667 145.271V112.263H218.64V128.842H218.614ZM205.789 158.116C198.78 158.116 192.964 152.291 192.964 145.271C192.964 138.251 198.78 132.426 205.789 132.426C212.798 132.426 218.614 138.251 218.614 145.271C218.614 152.291 212.798 158.116 205.789 158.116Z" fill="#5C55B8"/>
<path d="M134.584 128.842C138.163 126.004 142.636 124.361 147.409 124.361C158.892 124.361 168.287 133.771 168.287 145.271C168.287 156.772 158.892 166.181 147.409 166.181C135.926 166.181 126.531 156.772 126.531 145.271V112.263H134.557V128.842H134.584ZM147.409 158.116C154.418 158.116 160.234 152.291 160.234 145.271C160.234 138.251 154.418 132.426 147.409 132.426C140.4 132.426 134.584 138.251 134.584 145.271C134.584 152.291 140.4 158.116 147.409 158.116Z" fill="#5C55B8"/>
<path d="M226.665 185.231H218.557V226.987H226.665V185.231Z" fill="#5C55B8"/>
<path d="M214.099 226.839V206.035C214.099 194.593 204.704 185.231 193.221 185.231C181.738 185.231 172.343 194.593 172.343 206.035C172.343 217.477 181.738 226.839 193.221 226.839C197.993 226.839 202.467 225.204 206.046 222.381V226.987H214.099V226.839ZM193.221 218.815C186.212 218.815 180.396 213.019 180.396 206.035C180.396 199.051 186.212 193.256 193.221 193.256C200.23 193.256 206.046 199.051 206.046 206.035C206.046 213.019 200.379 218.815 193.221 218.815Z" fill="#5C55B8"/>
<path d="M180.45 112.263H172.747V166.181H180.45V112.263Z" fill="#5C55B8"/>
<path d="M166.872 226.988C169.186 226.988 170.922 225.106 170.922 222.934C170.922 220.618 169.042 218.88 166.872 218.88C164.558 218.88 162.822 220.763 162.822 222.934C162.677 225.106 164.558 226.988 166.872 226.988Z" fill="#5C55B8"/>
<path d="M222.557 181.184C224.796 181.184 226.611 179.369 226.611 177.13C226.611 174.891 224.796 173.076 222.557 173.076C220.318 173.076 218.503 174.891 218.503 177.13C218.503 179.369 220.318 181.184 222.557 181.184Z" fill="#5C55B8"/>
<rect x="1.6665" y="2" width="300" height="300" stroke="#E4E7EB" stroke-width="3"/>
</svg>
