<svg width="304" height="304" viewBox="0 0 304 304" fill="none" xmlns="http://www.w3.org/2000/svg">
<rect x="2" y="2" width="300" height="300" fill="#5C55B8"/>
<rect x="77" y="77" width="149.997" height="8.10797" fill="white"/>
<rect x="218.891" y="77" width="8.10797" height="26.7563" fill="white"/>
<rect x="77" y="77" width="8.10797" height="145.943" fill="white"/>
<rect x="77" y="218.886" width="77.0257" height="8.10797" fill="white"/>
<path d="M218.948 128.842C215.369 126.004 210.895 124.361 206.123 124.361C194.64 124.361 185.245 133.771 185.245 145.271C185.245 156.772 194.64 166.181 206.123 166.181C217.606 166.181 227.001 156.772 227.001 145.271V112.263H218.974V128.842H218.948ZM206.123 158.116C199.114 158.116 193.298 152.291 193.298 145.271C193.298 138.251 199.114 132.426 206.123 132.426C213.132 132.426 218.948 138.251 218.948 145.271C218.948 152.291 213.132 158.116 206.123 158.116Z" fill="white"/>
<path d="M134.917 128.842C138.496 126.004 142.97 124.361 147.742 124.361C159.225 124.361 168.62 133.771 168.62 145.271C168.62 156.772 159.225 166.181 147.742 166.181C136.259 166.181 126.864 156.772 126.864 145.271V112.263H134.891V128.842H134.917ZM147.742 158.116C154.751 158.116 160.567 152.291 160.567 145.271C160.567 138.251 154.751 132.426 147.742 132.426C140.733 132.426 134.917 138.251 134.917 145.271C134.917 152.291 140.733 158.116 147.742 158.116Z" fill="white"/>
<path d="M226.999 185.231H218.891V226.987H226.999V185.231Z" fill="white"/>
<path d="M214.432 226.839V206.035C214.432 194.593 205.037 185.231 193.554 185.231C182.071 185.231 172.676 194.593 172.676 206.035C172.676 217.477 182.071 226.839 193.554 226.839C198.326 226.839 202.8 225.204 206.379 222.381V226.987H214.432V226.839ZM193.554 218.815C186.545 218.815 180.729 213.019 180.729 206.035C180.729 199.051 186.545 193.256 193.554 193.256C200.563 193.256 206.379 199.051 206.379 206.035C206.379 213.019 200.712 218.815 193.554 218.815Z" fill="white"/>
<path d="M180.783 112.263H173.081V166.181H180.783V112.263Z" fill="white"/>
<path d="M167.205 226.988C169.52 226.988 171.255 225.106 171.255 222.934C171.255 220.618 169.375 218.88 167.205 218.88C164.891 218.88 163.155 220.763 163.155 222.934C163.011 225.106 164.891 226.988 167.205 226.988Z" fill="white"/>
<path d="M222.891 181.184C225.13 181.184 226.945 179.369 226.945 177.13C226.945 174.891 225.13 173.076 222.891 173.076C220.652 173.076 218.837 174.891 218.837 177.13C218.837 179.369 220.652 181.184 222.891 181.184Z" fill="white"/>
<rect x="2" y="2" width="300" height="300" stroke="#E4E7EB" stroke-width="3"/>
</svg>
