<svg width="304" height="304" viewBox="0 0 304 304" fill="none" xmlns="http://www.w3.org/2000/svg">
<rect x="2.3335" y="2" width="300" height="300" fill="#00C871"/>
<rect x="77.3335" y="77" width="149.997" height="8.10797" fill="#212121"/>
<rect x="77.3335" y="77" width="149.997" height="8.10797" fill="black" fill-opacity="0.2"/>
<rect x="77.3335" y="77" width="149.997" height="8.10797" fill="black" fill-opacity="0.2"/>
<rect x="77.3335" y="77" width="149.997" height="8.10797" fill="black" fill-opacity="0.2"/>
<rect x="77.3335" y="77" width="149.997" height="8.10797" fill="black" fill-opacity="0.2"/>
<rect x="219.223" y="77" width="8.10797" height="26.7563" fill="#212121"/>
<rect x="219.223" y="77" width="8.10797" height="26.7563" fill="black" fill-opacity="0.2"/>
<rect x="219.223" y="77" width="8.10797" height="26.7563" fill="black" fill-opacity="0.2"/>
<rect x="219.223" y="77" width="8.10797" height="26.7563" fill="black" fill-opacity="0.2"/>
<rect x="219.223" y="77" width="8.10797" height="26.7563" fill="black" fill-opacity="0.2"/>
<rect x="77.3335" y="77" width="8.10797" height="145.943" fill="#212121"/>
<rect x="77.3335" y="77" width="8.10797" height="145.943" fill="black" fill-opacity="0.2"/>
<rect x="77.3335" y="77" width="8.10797" height="145.943" fill="black" fill-opacity="0.2"/>
<rect x="77.3335" y="77" width="8.10797" height="145.943" fill="black" fill-opacity="0.2"/>
<rect x="77.3335" y="77" width="8.10797" height="145.943" fill="black" fill-opacity="0.2"/>
<rect x="77.3335" y="218.886" width="77.0257" height="8.10797" fill="#212121"/>
<rect x="77.3335" y="218.886" width="77.0257" height="8.10797" fill="black" fill-opacity="0.2"/>
<rect x="77.3335" y="218.886" width="77.0257" height="8.10797" fill="black" fill-opacity="0.2"/>
<rect x="77.3335" y="218.886" width="77.0257" height="8.10797" fill="black" fill-opacity="0.2"/>
<rect x="77.3335" y="218.886" width="77.0257" height="8.10797" fill="black" fill-opacity="0.2"/>
<path d="M219.28 128.842C215.701 126.004 211.228 124.361 206.455 124.361C194.973 124.361 185.577 133.771 185.577 145.271C185.577 156.772 194.973 166.181 206.455 166.181C217.938 166.181 227.333 156.772 227.333 145.271V112.263H219.307V128.842H219.28ZM206.455 158.116C199.446 158.116 193.63 152.291 193.63 145.271C193.63 138.251 199.446 132.426 206.455 132.426C213.464 132.426 219.28 138.251 219.28 145.271C219.28 152.291 213.464 158.116 206.455 158.116Z" fill="#212121"/>
<path d="M219.28 128.842C215.701 126.004 211.228 124.361 206.455 124.361C194.973 124.361 185.577 133.771 185.577 145.271C185.577 156.772 194.973 166.181 206.455 166.181C217.938 166.181 227.333 156.772 227.333 145.271V112.263H219.307V128.842H219.28ZM206.455 158.116C199.446 158.116 193.63 152.291 193.63 145.271C193.63 138.251 199.446 132.426 206.455 132.426C213.464 132.426 219.28 138.251 219.28 145.271C219.28 152.291 213.464 158.116 206.455 158.116Z" fill="black" fill-opacity="0.2"/>
<path d="M219.28 128.842C215.701 126.004 211.228 124.361 206.455 124.361C194.973 124.361 185.577 133.771 185.577 145.271C185.577 156.772 194.973 166.181 206.455 166.181C217.938 166.181 227.333 156.772 227.333 145.271V112.263H219.307V128.842H219.28ZM206.455 158.116C199.446 158.116 193.63 152.291 193.63 145.271C193.63 138.251 199.446 132.426 206.455 132.426C213.464 132.426 219.28 138.251 219.28 145.271C219.28 152.291 213.464 158.116 206.455 158.116Z" fill="black" fill-opacity="0.2"/>
<path d="M219.28 128.842C215.701 126.004 211.228 124.361 206.455 124.361C194.973 124.361 185.577 133.771 185.577 145.271C185.577 156.772 194.973 166.181 206.455 166.181C217.938 166.181 227.333 156.772 227.333 145.271V112.263H219.307V128.842H219.28ZM206.455 158.116C199.446 158.116 193.63 152.291 193.63 145.271C193.63 138.251 199.446 132.426 206.455 132.426C213.464 132.426 219.28 138.251 219.28 145.271C219.28 152.291 213.464 158.116 206.455 158.116Z" fill="black" fill-opacity="0.2"/>
<path d="M219.28 128.842C215.701 126.004 211.228 124.361 206.455 124.361C194.973 124.361 185.577 133.771 185.577 145.271C185.577 156.772 194.973 166.181 206.455 166.181C217.938 166.181 227.333 156.772 227.333 145.271V112.263H219.307V128.842H219.28ZM206.455 158.116C199.446 158.116 193.63 152.291 193.63 145.271C193.63 138.251 199.446 132.426 206.455 132.426C213.464 132.426 219.28 138.251 219.28 145.271C219.28 152.291 213.464 158.116 206.455 158.116Z" fill="black" fill-opacity="0.2"/>
<path d="M135.251 128.842C138.83 126.004 143.303 124.361 148.076 124.361C159.559 124.361 168.954 133.771 168.954 145.271C168.954 156.772 159.559 166.181 148.076 166.181C136.593 166.181 127.198 156.772 127.198 145.271V112.263H135.224V128.842H135.251ZM148.076 158.116C155.085 158.116 160.901 152.291 160.901 145.271C160.901 138.251 155.085 132.426 148.076 132.426C141.067 132.426 135.251 138.251 135.251 145.271C135.251 152.291 141.067 158.116 148.076 158.116Z" fill="#212121"/>
<path d="M135.251 128.842C138.83 126.004 143.303 124.361 148.076 124.361C159.559 124.361 168.954 133.771 168.954 145.271C168.954 156.772 159.559 166.181 148.076 166.181C136.593 166.181 127.198 156.772 127.198 145.271V112.263H135.224V128.842H135.251ZM148.076 158.116C155.085 158.116 160.901 152.291 160.901 145.271C160.901 138.251 155.085 132.426 148.076 132.426C141.067 132.426 135.251 138.251 135.251 145.271C135.251 152.291 141.067 158.116 148.076 158.116Z" fill="black" fill-opacity="0.2"/>
<path d="M135.251 128.842C138.83 126.004 143.303 124.361 148.076 124.361C159.559 124.361 168.954 133.771 168.954 145.271C168.954 156.772 159.559 166.181 148.076 166.181C136.593 166.181 127.198 156.772 127.198 145.271V112.263H135.224V128.842H135.251ZM148.076 158.116C155.085 158.116 160.901 152.291 160.901 145.271C160.901 138.251 155.085 132.426 148.076 132.426C141.067 132.426 135.251 138.251 135.251 145.271C135.251 152.291 141.067 158.116 148.076 158.116Z" fill="black" fill-opacity="0.2"/>
<path d="M135.251 128.842C138.83 126.004 143.303 124.361 148.076 124.361C159.559 124.361 168.954 133.771 168.954 145.271C168.954 156.772 159.559 166.181 148.076 166.181C136.593 166.181 127.198 156.772 127.198 145.271V112.263H135.224V128.842H135.251ZM148.076 158.116C155.085 158.116 160.901 152.291 160.901 145.271C160.901 138.251 155.085 132.426 148.076 132.426C141.067 132.426 135.251 138.251 135.251 145.271C135.251 152.291 141.067 158.116 148.076 158.116Z" fill="black" fill-opacity="0.2"/>
<path d="M135.251 128.842C138.83 126.004 143.303 124.361 148.076 124.361C159.559 124.361 168.954 133.771 168.954 145.271C168.954 156.772 159.559 166.181 148.076 166.181C136.593 166.181 127.198 156.772 127.198 145.271V112.263H135.224V128.842H135.251ZM148.076 158.116C155.085 158.116 160.901 152.291 160.901 145.271C160.901 138.251 155.085 132.426 148.076 132.426C141.067 132.426 135.251 138.251 135.251 145.271C135.251 152.291 141.067 158.116 148.076 158.116Z" fill="black" fill-opacity="0.2"/>
<path d="M227.331 185.231H219.223V226.987H227.331V185.231Z" fill="#212121"/>
<path d="M227.331 185.231H219.223V226.987H227.331V185.231Z" fill="black" fill-opacity="0.2"/>
<path d="M227.331 185.231H219.223V226.987H227.331V185.231Z" fill="black" fill-opacity="0.2"/>
<path d="M227.331 185.231H219.223V226.987H227.331V185.231Z" fill="black" fill-opacity="0.2"/>
<path d="M227.331 185.231H219.223V226.987H227.331V185.231Z" fill="black" fill-opacity="0.2"/>
<path d="M214.765 226.839V206.035C214.765 194.593 205.37 185.231 193.887 185.231C182.404 185.231 173.009 194.593 173.009 206.035C173.009 217.477 182.404 226.839 193.887 226.839C198.659 226.839 203.133 225.204 206.712 222.381V226.987H214.765V226.839ZM193.887 218.815C186.878 218.815 181.062 213.019 181.062 206.035C181.062 199.051 186.878 193.256 193.887 193.256C200.896 193.256 206.712 199.051 206.712 206.035C206.712 213.019 201.045 218.815 193.887 218.815Z" fill="#212121"/>
<path d="M214.765 226.839V206.035C214.765 194.593 205.37 185.231 193.887 185.231C182.404 185.231 173.009 194.593 173.009 206.035C173.009 217.477 182.404 226.839 193.887 226.839C198.659 226.839 203.133 225.204 206.712 222.381V226.987H214.765V226.839ZM193.887 218.815C186.878 218.815 181.062 213.019 181.062 206.035C181.062 199.051 186.878 193.256 193.887 193.256C200.896 193.256 206.712 199.051 206.712 206.035C206.712 213.019 201.045 218.815 193.887 218.815Z" fill="black" fill-opacity="0.2"/>
<path d="M214.765 226.839V206.035C214.765 194.593 205.37 185.231 193.887 185.231C182.404 185.231 173.009 194.593 173.009 206.035C173.009 217.477 182.404 226.839 193.887 226.839C198.659 226.839 203.133 225.204 206.712 222.381V226.987H214.765V226.839ZM193.887 218.815C186.878 218.815 181.062 213.019 181.062 206.035C181.062 199.051 186.878 193.256 193.887 193.256C200.896 193.256 206.712 199.051 206.712 206.035C206.712 213.019 201.045 218.815 193.887 218.815Z" fill="black" fill-opacity="0.2"/>
<path d="M214.765 226.839V206.035C214.765 194.593 205.37 185.231 193.887 185.231C182.404 185.231 173.009 194.593 173.009 206.035C173.009 217.477 182.404 226.839 193.887 226.839C198.659 226.839 203.133 225.204 206.712 222.381V226.987H214.765V226.839ZM193.887 218.815C186.878 218.815 181.062 213.019 181.062 206.035C181.062 199.051 186.878 193.256 193.887 193.256C200.896 193.256 206.712 199.051 206.712 206.035C206.712 213.019 201.045 218.815 193.887 218.815Z" fill="black" fill-opacity="0.2"/>
<path d="M214.765 226.839V206.035C214.765 194.593 205.37 185.231 193.887 185.231C182.404 185.231 173.009 194.593 173.009 206.035C173.009 217.477 182.404 226.839 193.887 226.839C198.659 226.839 203.133 225.204 206.712 222.381V226.987H214.765V226.839ZM193.887 218.815C186.878 218.815 181.062 213.019 181.062 206.035C181.062 199.051 186.878 193.256 193.887 193.256C200.896 193.256 206.712 199.051 206.712 206.035C206.712 213.019 201.045 218.815 193.887 218.815Z" fill="black" fill-opacity="0.2"/>
<path d="M181.116 112.263H173.413V166.181H181.116V112.263Z" fill="#212121"/>
<path d="M181.116 112.263H173.413V166.181H181.116V112.263Z" fill="black" fill-opacity="0.2"/>
<path d="M181.116 112.263H173.413V166.181H181.116V112.263Z" fill="black" fill-opacity="0.2"/>
<path d="M181.116 112.263H173.413V166.181H181.116V112.263Z" fill="black" fill-opacity="0.2"/>
<path d="M181.116 112.263H173.413V166.181H181.116V112.263Z" fill="black" fill-opacity="0.2"/>
<path d="M167.539 226.988C169.853 226.988 171.589 225.106 171.589 222.934C171.589 220.618 169.709 218.88 167.539 218.88C165.225 218.88 163.489 220.763 163.489 222.934C163.344 225.106 165.225 226.988 167.539 226.988Z" fill="#212121"/>
<path d="M167.539 226.988C169.853 226.988 171.589 225.106 171.589 222.934C171.589 220.618 169.709 218.88 167.539 218.88C165.225 218.88 163.489 220.763 163.489 222.934C163.344 225.106 165.225 226.988 167.539 226.988Z" fill="black" fill-opacity="0.2"/>
<path d="M167.539 226.988C169.853 226.988 171.589 225.106 171.589 222.934C171.589 220.618 169.709 218.88 167.539 218.88C165.225 218.88 163.489 220.763 163.489 222.934C163.344 225.106 165.225 226.988 167.539 226.988Z" fill="black" fill-opacity="0.2"/>
<path d="M167.539 226.988C169.853 226.988 171.589 225.106 171.589 222.934C171.589 220.618 169.709 218.88 167.539 218.88C165.225 218.88 163.489 220.763 163.489 222.934C163.344 225.106 165.225 226.988 167.539 226.988Z" fill="black" fill-opacity="0.2"/>
<path d="M167.539 226.988C169.853 226.988 171.589 225.106 171.589 222.934C171.589 220.618 169.709 218.88 167.539 218.88C165.225 218.88 163.489 220.763 163.489 222.934C163.344 225.106 165.225 226.988 167.539 226.988Z" fill="black" fill-opacity="0.2"/>
<path d="M223.224 181.184C225.463 181.184 227.278 179.369 227.278 177.13C227.278 174.891 225.463 173.076 223.224 173.076C220.985 173.076 219.17 174.891 219.17 177.13C219.17 179.369 220.985 181.184 223.224 181.184Z" fill="#212121"/>
<path d="M223.224 181.184C225.463 181.184 227.278 179.369 227.278 177.13C227.278 174.891 225.463 173.076 223.224 173.076C220.985 173.076 219.17 174.891 219.17 177.13C219.17 179.369 220.985 181.184 223.224 181.184Z" fill="black" fill-opacity="0.2"/>
<path d="M223.224 181.184C225.463 181.184 227.278 179.369 227.278 177.13C227.278 174.891 225.463 173.076 223.224 173.076C220.985 173.076 219.17 174.891 219.17 177.13C219.17 179.369 220.985 181.184 223.224 181.184Z" fill="black" fill-opacity="0.2"/>
<path d="M223.224 181.184C225.463 181.184 227.278 179.369 227.278 177.13C227.278 174.891 225.463 173.076 223.224 173.076C220.985 173.076 219.17 174.891 219.17 177.13C219.17 179.369 220.985 181.184 223.224 181.184Z" fill="black" fill-opacity="0.2"/>
<path d="M223.224 181.184C225.463 181.184 227.278 179.369 227.278 177.13C227.278 174.891 225.463 173.076 223.224 173.076C220.985 173.076 219.17 174.891 219.17 177.13C219.17 179.369 220.985 181.184 223.224 181.184Z" fill="black" fill-opacity="0.2"/>
<rect x="2.3335" y="2" width="300" height="300" stroke="#E4E7EB" stroke-width="3"/>
</svg>
