<svg width="50" height="50" viewBox="0 0 50 50" fill="none" xmlns="http://www.w3.org/2000/svg">
<rect width="49.9991" height="2.70266" fill="white"/>
<rect x="47.2969" width="2.70266" height="8.91876" fill="white"/>
<rect width="2.70266" height="48.6478" fill="white"/>
<rect y="47.2954" width="25.6752" height="2.70266" fill="white"/>
<path d="M47.3154 17.2806C46.1224 16.3347 44.6311 15.787 43.0404 15.787C39.2128 15.787 36.0811 18.9235 36.0811 22.757C36.0811 26.5906 39.2128 29.7271 43.0404 29.7271C46.868 29.7271 49.9997 26.5906 49.9997 22.757V11.7544H47.3241V17.2806H47.3154ZM43.0404 27.0386C40.704 27.0386 38.7654 25.097 38.7654 22.757C38.7654 20.4171 40.704 18.4755 43.0404 18.4755C45.3767 18.4755 47.3154 20.4171 47.3154 22.757C47.3154 25.097 45.3767 27.0386 43.0404 27.0386Z" fill="white"/>
<path d="M19.3057 17.2806C20.4987 16.3347 21.99 15.787 23.5807 15.787C27.4083 15.787 30.54 18.9235 30.54 22.757C30.54 26.5906 27.4083 29.7271 23.5807 29.7271C19.7531 29.7271 16.6214 26.5906 16.6214 22.757V11.7544H19.297V17.2806H19.3057ZM23.5807 27.0386C25.9171 27.0386 27.8557 25.097 27.8557 22.757C27.8557 20.4171 25.9171 18.4755 23.5807 18.4755C21.2444 18.4755 19.3057 20.4171 19.3057 22.757C19.3057 25.097 21.2444 27.0386 23.5807 27.0386Z" fill="white"/>
<path d="M49.9986 36.0771H47.2959V49.9958H49.9986V36.0771Z" fill="white"/>
<path d="M45.8103 49.9463V43.0117C45.8103 39.1977 42.6786 36.0771 38.8509 36.0771C35.0233 36.0771 31.8916 39.1977 31.8916 43.0117C31.8916 46.8257 35.0233 49.9463 38.8509 49.9463C40.4416 49.9463 41.9329 49.4014 43.126 48.4603V49.9958H45.8103V49.9463ZM38.8509 47.2715C36.5146 47.2715 34.5759 45.3398 34.5759 43.0117C34.5759 40.6837 36.5146 38.7519 38.8509 38.7519C41.1873 38.7519 43.126 40.6837 43.126 43.0117C43.126 45.3398 41.237 47.2715 38.8509 47.2715Z" fill="white"/>
<path d="M34.5939 11.7544H32.0264V29.7271H34.5939V11.7544Z" fill="white"/>
<path d="M30.0685 49.9961C30.8399 49.9961 31.4185 49.3687 31.4185 48.6448C31.4185 47.8726 30.7917 47.2935 30.0685 47.2935C29.297 47.2935 28.7184 47.9209 28.7184 48.6448C28.6702 49.3687 29.297 49.9961 30.0685 49.9961Z" fill="white"/>
<path d="M48.6296 34.728C49.376 34.728 49.981 34.123 49.981 33.3767C49.981 32.6304 49.376 32.0254 48.6296 32.0254C47.8833 32.0254 47.2783 32.6304 47.2783 33.3767C47.2783 34.123 47.8833 34.728 48.6296 34.728Z" fill="white"/>
</svg>
