<svg width="172" height="172" viewBox="0 0 172 172" fill="none" xmlns="http://www.w3.org/2000/svg">
<g opacity="0.2" clip-path="url(#clip0_14_31079)">
<path d="M0 47.6779L37.9 86.1133H85.6731V38.5902L47.7731 0.154785L0 47.6779Z" fill="#7D7AA3"/>
<path d="M47.7731 0.154785H0V47.6779H47.7731V0.154785Z" fill="#C2BFED"/>
<path d="M84.6504 47.6779L122.55 86.1133H170.324V38.5902L132.424 0.154785L84.6504 47.6779Z" fill="#7D7AA3"/>
<path d="M132.424 0.154785H84.6504V47.6779H132.424V0.154785Z" fill="#C2BFED"/>
<path d="M1.67578 132.719L39.5758 171.155H87.3489V123.632L49.4489 85.1963L1.67578 132.719Z" fill="#7D7AA3"/>
<path d="M49.4489 85.1963H1.67578V132.719H49.4489V85.1963Z" fill="#C2BFED"/>
<path d="M86.3262 132.719L124.226 171.155H171.999V123.632L134.099 85.1963L86.3262 132.719Z" fill="#7D7AA3"/>
<path d="M134.099 85.1963H86.3262V132.719H134.099V85.1963Z" fill="#C2BFED"/>
</g>
<defs>
<clipPath id="clip0_14_31079">
<rect width="172" height="171" fill="white" transform="translate(0 0.154785)"/>
</clipPath>
</defs>
</svg>
