<svg width="349" height="343" viewBox="0 0 349 343" fill="none" xmlns="http://www.w3.org/2000/svg">
<path opacity="0.2" fill-rule="evenodd" clip-rule="evenodd" d="M146.536 84.3082C142.144 84.3082 138.571 87.8819 138.571 92.3065C138.571 96.731 142.144 100.305 146.536 100.305C150.929 100.305 154.502 96.731 154.502 92.3065C154.502 87.8819 150.929 84.3082 146.536 84.3082ZM133.656 92.3065C133.656 85.1819 139.415 79.3931 146.536 79.3931C153.658 79.3931 159.417 85.1819 159.417 92.3065C159.417 99.4311 153.658 105.22 146.536 105.22C139.415 105.22 133.656 99.4311 133.656 92.3065Z" fill="#B3AFE9"/>
<path opacity="0.2" fill-rule="evenodd" clip-rule="evenodd" d="M194.033 84.3082C189.641 84.3082 186.068 87.8819 186.068 92.3065C186.068 96.731 189.641 100.305 194.033 100.305C198.425 100.305 201.999 96.731 201.999 92.3065C201.999 87.8819 198.425 84.3082 194.033 84.3082ZM181.152 92.3065C181.152 85.1819 186.912 79.3931 194.033 79.3931C201.154 79.3931 206.914 85.1819 206.914 92.3065C206.914 99.4311 201.154 105.22 194.033 105.22C186.912 105.22 181.152 99.4311 181.152 92.3065Z" fill="#B3AFE9"/>
<path opacity="0.2" fill-rule="evenodd" clip-rule="evenodd" d="M241.51 84.3082C237.118 84.3082 233.544 87.8819 233.544 92.3065C233.544 96.731 237.118 100.305 241.51 100.305C245.902 100.305 249.475 96.731 249.475 92.3065C249.475 87.8819 245.902 84.3082 241.51 84.3082ZM228.629 92.3065C228.629 85.1819 234.389 79.3931 241.51 79.3931C248.631 79.3931 254.39 85.1819 254.39 92.3065C254.39 99.4311 248.631 105.22 241.51 105.22C234.389 105.22 228.629 99.4311 228.629 92.3065Z" fill="#B3AFE9"/>
<path opacity="0.2" fill-rule="evenodd" clip-rule="evenodd" d="M288.986 84.3082C284.594 84.3082 281.021 87.8819 281.021 92.3065C281.021 96.731 284.594 100.305 288.986 100.305C293.378 100.305 296.952 96.731 296.952 92.3065C296.952 87.8819 293.378 84.3082 288.986 84.3082ZM276.105 92.3065C276.105 85.1819 281.865 79.3931 288.986 79.3931C296.107 79.3931 301.867 85.1819 301.867 92.3065C301.867 99.4311 296.107 105.22 288.986 105.22C281.865 105.22 276.105 99.4311 276.105 92.3065Z" fill="#B3AFE9"/>
<path opacity="0.2" fill-rule="evenodd" clip-rule="evenodd" d="M145.974 131.349C141.582 131.349 138.008 134.923 138.008 139.347C138.008 143.772 141.582 147.346 145.974 147.346C150.366 147.346 153.94 143.772 153.94 139.347C153.94 134.923 150.366 131.349 145.974 131.349ZM133.093 139.347C133.093 132.223 138.853 126.434 145.974 126.434C153.095 126.434 158.855 132.223 158.855 139.347C158.855 146.472 153.095 152.261 145.974 152.261C138.853 152.261 133.093 146.472 133.093 139.347Z" fill="#B3AFE9"/>
<path opacity="0.2" fill-rule="evenodd" clip-rule="evenodd" d="M193.451 131.349C189.059 131.349 185.485 134.923 185.485 139.347C185.485 143.772 189.059 147.346 193.451 147.346C197.843 147.346 201.416 143.772 201.416 139.347C201.416 134.923 197.843 131.349 193.451 131.349ZM180.57 139.347C180.57 132.223 186.329 126.434 193.451 126.434C200.572 126.434 206.331 132.223 206.331 139.347C206.331 146.472 200.572 152.261 193.451 152.261C186.329 152.261 180.57 146.472 180.57 139.347Z" fill="#B3AFE9"/>
<path opacity="0.2" fill-rule="evenodd" clip-rule="evenodd" d="M240.927 131.349C236.535 131.349 232.962 134.923 232.962 139.347C232.962 143.772 236.535 147.346 240.927 147.346C245.319 147.346 248.893 143.772 248.893 139.347C248.893 134.923 245.319 131.349 240.927 131.349ZM228.046 139.347C228.046 132.223 233.806 126.434 240.927 126.434C248.048 126.434 253.808 132.223 253.808 139.347C253.808 146.472 248.048 152.261 240.927 152.261C233.806 152.261 228.046 146.472 228.046 139.347Z" fill="#B3AFE9"/>
<path opacity="0.2" fill-rule="evenodd" clip-rule="evenodd" d="M288.404 131.349C284.012 131.349 280.438 134.923 280.438 139.347C280.438 143.772 284.012 147.346 288.404 147.346C292.796 147.346 296.369 143.772 296.369 139.347C296.369 134.923 292.796 131.349 288.404 131.349ZM275.523 139.347C275.523 132.223 281.283 126.434 288.404 126.434C295.525 126.434 301.284 132.223 301.284 139.347C301.284 146.472 295.525 152.261 288.404 152.261C281.283 152.261 275.523 146.472 275.523 139.347Z" fill="#B3AFE9"/>
<path opacity="0.2" fill-rule="evenodd" clip-rule="evenodd" d="M145.391 178.411C140.999 178.411 137.426 181.984 137.426 186.409C137.426 190.834 140.999 194.407 145.391 194.407C149.783 194.407 153.357 190.834 153.357 186.409C153.357 181.984 149.783 178.411 145.391 178.411ZM132.511 186.409C132.511 179.284 138.27 173.496 145.391 173.496C152.513 173.496 158.272 179.284 158.272 186.409C158.272 193.534 152.513 199.322 145.391 199.322C138.27 199.322 132.511 193.534 132.511 186.409Z" fill="#B3AFE9"/>
<path opacity="0.2" fill-rule="evenodd" clip-rule="evenodd" d="M192.868 178.411C188.476 178.411 184.902 181.984 184.902 186.409C184.902 190.834 188.476 194.407 192.868 194.407C197.26 194.407 200.834 190.834 200.834 186.409C200.834 181.984 197.26 178.411 192.868 178.411ZM179.987 186.409C179.987 179.284 185.747 173.496 192.868 173.496C199.989 173.496 205.749 179.284 205.749 186.409C205.749 193.534 199.989 199.322 192.868 199.322C185.747 199.322 179.987 193.534 179.987 186.409Z" fill="#B3AFE9"/>
<path opacity="0.2" fill-rule="evenodd" clip-rule="evenodd" d="M240.345 178.411C235.953 178.411 232.379 181.984 232.379 186.409C232.379 190.834 235.953 194.407 240.345 194.407C244.737 194.407 248.31 190.834 248.31 186.409C248.31 181.984 244.737 178.411 240.345 178.411ZM227.464 186.409C227.464 179.284 233.224 173.496 240.345 173.496C247.466 173.496 253.225 179.284 253.225 186.409C253.225 193.534 247.466 199.322 240.345 199.322C233.224 199.322 227.464 193.534 227.464 186.409Z" fill="#B3AFE9"/>
<path opacity="0.2" fill-rule="evenodd" clip-rule="evenodd" d="M287.821 178.411C283.429 178.411 279.856 181.984 279.856 186.409C279.856 190.834 283.429 194.407 287.821 194.407C292.213 194.407 295.787 190.834 295.787 186.409C295.787 181.984 292.213 178.411 287.821 178.411ZM274.94 186.409C274.94 179.284 280.7 173.496 287.821 173.496C294.942 173.496 300.702 179.284 300.702 186.409C300.702 193.534 294.942 199.322 287.821 199.322C280.7 199.322 274.94 193.534 274.94 186.409Z" fill="#B3AFE9"/>
<path opacity="0.2" fill-rule="evenodd" clip-rule="evenodd" d="M144.809 225.452C140.417 225.452 136.843 229.026 136.843 233.45C136.843 237.875 140.417 241.449 144.809 241.449C149.201 241.449 152.775 237.875 152.775 233.45C152.775 229.026 149.201 225.452 144.809 225.452ZM131.928 233.45C131.928 226.326 137.688 220.537 144.809 220.537C151.93 220.537 157.69 226.326 157.69 233.45C157.69 240.575 151.93 246.364 144.809 246.364C137.688 246.364 131.928 240.575 131.928 233.45Z" fill="#B3AFE9"/>
<path opacity="0.2" fill-rule="evenodd" clip-rule="evenodd" d="M192.286 225.452C187.894 225.452 184.32 229.026 184.32 233.45C184.32 237.875 187.894 241.449 192.286 241.449C196.678 241.449 200.251 237.875 200.251 233.45C200.251 229.026 196.678 225.452 192.286 225.452ZM179.405 233.45C179.405 226.326 185.164 220.537 192.286 220.537C199.407 220.537 205.166 226.326 205.166 233.45C205.166 240.575 199.407 246.364 192.286 246.364C185.164 246.364 179.405 240.575 179.405 233.45Z" fill="#B3AFE9"/>
<path opacity="0.2" fill-rule="evenodd" clip-rule="evenodd" d="M239.762 225.452C235.37 225.452 231.797 229.026 231.797 233.45C231.797 237.875 235.37 241.449 239.762 241.449C244.154 241.449 247.728 237.875 247.728 233.45C247.728 229.026 244.154 225.452 239.762 225.452ZM226.881 233.45C226.881 226.326 232.641 220.537 239.762 220.537C246.883 220.537 252.643 226.326 252.643 233.45C252.643 240.575 246.883 246.364 239.762 246.364C232.641 246.364 226.881 240.575 226.881 233.45Z" fill="#B3AFE9"/>
<path opacity="0.2" fill-rule="evenodd" clip-rule="evenodd" d="M287.239 225.452C282.847 225.452 279.273 229.026 279.273 233.45C279.273 237.875 282.847 241.449 287.239 241.449C291.631 241.449 295.204 237.875 295.204 233.45C295.204 229.026 291.631 225.452 287.239 225.452ZM274.358 233.45C274.358 226.326 280.118 220.537 287.239 220.537C294.36 220.537 300.119 226.326 300.119 233.45C300.119 240.575 294.36 246.364 287.239 246.364C280.118 246.364 274.358 240.575 274.358 233.45Z" fill="#B3AFE9"/>
</svg>
