<svg width="505" height="284" viewBox="0 0 505 284" fill="none" xmlns="http://www.w3.org/2000/svg">
<rect x="109" y="37" width="106.998" height="11.2975" fill="#5C55B8"/>
<rect x="210.215" y="37" width="5.78368" height="37.2819" fill="#5C55B8"/>
<rect x="109" y="37" width="5.78368" height="203.356" fill="#5C55B8"/>
<rect x="109" y="234.703" width="54.9449" height="11.2975" fill="#5C55B8"/>
<path d="M210.255 109.236C207.702 105.281 204.511 102.992 201.107 102.992C192.916 102.992 186.214 116.103 186.214 132.128C186.214 148.153 192.916 161.264 201.107 161.264C209.298 161.264 216 148.153 216 132.128V86.135H210.274V109.236H210.255ZM201.107 150.026C196.107 150.026 191.958 141.909 191.958 132.128C191.958 122.347 196.107 114.23 201.107 114.23C206.107 114.23 210.255 122.347 210.255 132.128C210.255 141.909 206.107 150.026 201.107 150.026Z" fill="#5C55B8"/>
<path d="M150.314 109.236C152.868 105.281 156.059 102.992 159.463 102.992C167.654 102.992 174.356 116.103 174.356 132.128C174.356 148.153 167.654 161.264 159.463 161.264C151.272 161.264 144.57 148.153 144.57 132.128V86.135H150.296V109.236H150.314ZM159.463 150.026C164.463 150.026 168.612 141.909 168.612 132.128C168.612 122.347 164.463 114.23 159.463 114.23C154.463 114.23 150.314 122.347 150.314 132.128C150.314 141.909 154.463 150.026 159.463 150.026Z" fill="#5C55B8"/>
<path d="M215.999 187.809H210.215V245.991H215.999V187.809Z" fill="#5C55B8"/>
<path d="M207.034 245.784V216.796C207.034 200.853 200.333 187.809 192.142 187.809C183.95 187.809 177.249 200.853 177.249 216.796C177.249 232.74 183.95 245.784 192.142 245.784C195.546 245.784 198.737 243.507 201.29 239.572V245.991H207.034V245.784ZM192.142 234.603C187.142 234.603 182.993 226.528 182.993 216.796C182.993 207.065 187.142 198.99 192.142 198.99C197.141 198.99 201.29 207.065 201.29 216.796C201.29 226.528 197.248 234.603 192.142 234.603Z" fill="#5C55B8"/>
<path d="M183.032 86.135H177.538V161.264H183.032V86.135Z" fill="#5C55B8"/>
<path d="M173.346 245.992C174.997 245.992 176.235 243.369 176.235 240.343C176.235 237.115 174.894 234.694 173.346 234.694C171.695 234.694 170.457 237.317 170.457 240.343C170.354 243.369 171.695 245.992 173.346 245.992Z" fill="#5C55B8"/>
<path d="M213.069 182.169C214.666 182.169 215.96 179.64 215.96 176.52C215.96 173.4 214.666 170.871 213.069 170.871C211.471 170.871 210.177 173.4 210.177 176.52C210.177 179.64 211.471 182.169 213.069 182.169Z" fill="#5C55B8"/>
<path d="M320.98 121.351C318.842 115.328 316.169 111.842 313.318 111.842C306.459 111.842 300.846 131.81 300.846 156.216C300.846 180.623 306.459 200.591 313.318 200.591C320.178 200.591 325.79 180.623 325.79 156.216V86.1677H320.995V121.351H320.98ZM313.318 183.475C309.131 183.475 305.657 171.114 305.657 156.216C305.657 141.319 309.131 128.958 313.318 128.958C317.505 128.958 320.98 141.319 320.98 156.216C320.98 171.114 317.505 183.475 313.318 183.475Z" fill="#5C55B8"/>
<path d="M271.81 121.351C273.949 115.328 276.621 111.842 279.472 111.842C286.331 111.842 291.944 131.81 291.944 156.216C291.944 180.623 286.331 200.591 279.472 200.591C272.612 200.591 267 180.623 267 156.216V86.1677H271.795V121.351H271.81ZM279.472 183.475C283.659 183.475 287.133 171.114 287.133 156.216C287.133 141.319 283.659 128.958 279.472 128.958C275.285 128.958 271.81 141.319 271.81 156.216C271.81 171.114 275.285 183.475 279.472 183.475Z" fill="#5C55B8"/>
<path d="M366.872 111.796H362.029V200.41H366.872V111.796Z" fill="#5C55B8"/>
<path d="M359.879 200.094V155.945C359.879 131.663 354.266 111.796 347.407 111.796C340.547 111.796 334.935 131.663 334.935 155.945C334.935 180.227 340.547 200.094 347.407 200.094C350.257 200.094 352.93 196.626 355.068 190.634V200.41H359.879V200.094ZM347.407 183.065C343.22 183.065 339.745 170.767 339.745 155.945C339.745 141.124 343.22 128.825 347.407 128.825C351.594 128.825 355.068 141.124 355.068 155.945C355.068 170.767 351.683 183.065 347.407 183.065Z" fill="#5C55B8"/>
<path d="M298.696 86.1677H294.094V200.591H298.696V86.1677Z" fill="#5C55B8"/>
<path d="M330.365 200.411C331.747 200.411 332.784 196.417 332.784 191.808C332.784 186.892 331.661 183.205 330.365 183.205C328.982 183.205 327.945 187.199 327.945 191.808C327.859 196.417 328.982 200.411 330.365 200.411Z" fill="#5C55B8"/>
<path d="M364.578 103.207C365.916 103.207 367 99.3547 367 94.6033C367 89.8518 365.916 86 364.578 86C363.241 86 362.157 89.8518 362.157 94.6033C362.157 99.3547 363.241 103.207 364.578 103.207Z" fill="#5C55B8"/>
<rect x="0.5" y="0.5" width="504" height="283" stroke="#ABA8DB"/>
</svg>
