<svg width="379" height="379" viewBox="0 0 379 379" fill="none" xmlns="http://www.w3.org/2000/svg">
<g clip-path="url(#clip0_14_25505)">
<path d="M0 105.329L83.5122 190.516H188.78V85.1872L105.268 0L0 105.329Z" fill="#403B80"/>
<path d="M105.268 0H0V105.329H105.268V0Z" fill="#C2BFED"/>
<path d="M186.527 105.329L270.039 190.516H375.306V85.1872L291.794 0L186.527 105.329Z" fill="#403B80"/>
<path d="M291.794 0H186.527V105.329H291.794V0Z" fill="#C2BFED"/>
<path d="M3.6936 293.813L87.2058 379H192.473V273.671L108.961 188.484L3.6936 293.813Z" fill="#403B80"/>
<path d="M108.961 188.484H3.6936V293.813H108.961V188.484Z" fill="#C2BFED"/>
<path d="M190.22 293.813L273.732 379H379V273.671L295.488 188.484L190.22 293.813Z" fill="#403B80"/>
<path d="M295.488 188.484H190.22V293.813H295.488V188.484Z" fill="#C2BFED"/>
</g>
<defs>
<clipPath id="clip0_14_25505">
<rect width="379" height="379" fill="white"/>
</clipPath>
</defs>
</svg>
