<svg width="505" height="284" viewBox="0 0 505 284" fill="none" xmlns="http://www.w3.org/2000/svg">
<rect x="55" y="35" width="125.939" height="6.8075" fill="#212121"/>
<rect x="55" y="35" width="125.939" height="6.8075" fill="black" fill-opacity="0.2"/>
<rect x="55" y="35" width="125.939" height="6.8075" fill="black" fill-opacity="0.2"/>
<rect x="55" y="35" width="125.939" height="6.8075" fill="black" fill-opacity="0.2"/>
<rect x="55" y="35" width="125.939" height="6.8075" fill="black" fill-opacity="0.2"/>
<rect x="174.132" y="35" width="6.8075" height="22.4647" fill="#212121"/>
<rect x="174.132" y="35" width="6.8075" height="22.4647" fill="black" fill-opacity="0.2"/>
<rect x="174.132" y="35" width="6.8075" height="22.4647" fill="black" fill-opacity="0.2"/>
<rect x="174.132" y="35" width="6.8075" height="22.4647" fill="black" fill-opacity="0.2"/>
<rect x="174.132" y="35" width="6.8075" height="22.4647" fill="black" fill-opacity="0.2"/>
<rect x="55" y="35" width="6.8075" height="122.535" fill="#212121"/>
<rect x="55" y="35" width="6.8075" height="122.535" fill="black" fill-opacity="0.2"/>
<rect x="55" y="35" width="6.8075" height="122.535" fill="black" fill-opacity="0.2"/>
<rect x="55" y="35" width="6.8075" height="122.535" fill="black" fill-opacity="0.2"/>
<rect x="55" y="35" width="6.8075" height="122.535" fill="black" fill-opacity="0.2"/>
<rect x="55" y="154.128" width="64.6712" height="6.8075" fill="#212121"/>
<rect x="55" y="154.128" width="64.6712" height="6.8075" fill="black" fill-opacity="0.2"/>
<rect x="55" y="154.128" width="64.6712" height="6.8075" fill="black" fill-opacity="0.2"/>
<rect x="55" y="154.128" width="64.6712" height="6.8075" fill="black" fill-opacity="0.2"/>
<rect x="55" y="154.128" width="64.6712" height="6.8075" fill="black" fill-opacity="0.2"/>
<path d="M174.179 78.5264C171.174 76.1437 167.418 74.7643 163.411 74.7643C153.77 74.7643 145.882 82.6646 145.882 92.3205C145.882 101.976 153.77 109.877 163.411 109.877C173.052 109.877 180.94 101.976 180.94 92.3205V64.6068H174.201V78.5264H174.179ZM163.411 103.105C157.526 103.105 152.643 98.2144 152.643 92.3205C152.643 86.4266 157.526 81.536 163.411 81.536C169.296 81.536 174.179 86.4266 174.179 92.3205C174.179 98.2144 169.296 103.105 163.411 103.105Z" fill="#212121"/>
<path d="M174.179 78.5264C171.174 76.1437 167.418 74.7643 163.411 74.7643C153.77 74.7643 145.882 82.6646 145.882 92.3205C145.882 101.976 153.77 109.877 163.411 109.877C173.052 109.877 180.94 101.976 180.94 92.3205V64.6068H174.201V78.5264H174.179ZM163.411 103.105C157.526 103.105 152.643 98.2144 152.643 92.3205C152.643 86.4266 157.526 81.536 163.411 81.536C169.296 81.536 174.179 86.4266 174.179 92.3205C174.179 98.2144 169.296 103.105 163.411 103.105Z" fill="black" fill-opacity="0.2"/>
<path d="M174.179 78.5264C171.174 76.1437 167.418 74.7643 163.411 74.7643C153.77 74.7643 145.882 82.6646 145.882 92.3205C145.882 101.976 153.77 109.877 163.411 109.877C173.052 109.877 180.94 101.976 180.94 92.3205V64.6068H174.201V78.5264H174.179ZM163.411 103.105C157.526 103.105 152.643 98.2144 152.643 92.3205C152.643 86.4266 157.526 81.536 163.411 81.536C169.296 81.536 174.179 86.4266 174.179 92.3205C174.179 98.2144 169.296 103.105 163.411 103.105Z" fill="black" fill-opacity="0.2"/>
<path d="M174.179 78.5264C171.174 76.1437 167.418 74.7643 163.411 74.7643C153.77 74.7643 145.882 82.6646 145.882 92.3205C145.882 101.976 153.77 109.877 163.411 109.877C173.052 109.877 180.94 101.976 180.94 92.3205V64.6068H174.201V78.5264H174.179ZM163.411 103.105C157.526 103.105 152.643 98.2144 152.643 92.3205C152.643 86.4266 157.526 81.536 163.411 81.536C169.296 81.536 174.179 86.4266 174.179 92.3205C174.179 98.2144 169.296 103.105 163.411 103.105Z" fill="black" fill-opacity="0.2"/>
<path d="M174.179 78.5264C171.174 76.1437 167.418 74.7643 163.411 74.7643C153.77 74.7643 145.882 82.6646 145.882 92.3205C145.882 101.976 153.77 109.877 163.411 109.877C173.052 109.877 180.94 101.976 180.94 92.3205V64.6068H174.201V78.5264H174.179ZM163.411 103.105C157.526 103.105 152.643 98.2144 152.643 92.3205C152.643 86.4266 157.526 81.536 163.411 81.536C169.296 81.536 174.179 86.4266 174.179 92.3205C174.179 98.2144 169.296 103.105 163.411 103.105Z" fill="black" fill-opacity="0.2"/>
<path d="M79.8379 78.5265C82.843 76.1439 86.5992 74.7644 90.6059 74.7644C100.247 74.7644 108.135 82.6647 108.135 92.3206C108.135 101.977 100.247 109.877 90.6059 109.877C80.9648 109.877 73.0766 101.977 73.0766 92.3206V64.6069H79.8161V78.5265H79.8379ZM90.6059 103.105C96.4908 103.105 101.374 98.2145 101.374 92.3206C101.374 86.4268 96.4908 81.5361 90.6059 81.5361C84.7211 81.5361 79.8379 86.4268 79.8379 92.3206C79.8379 98.2145 84.7211 103.105 90.6059 103.105Z" fill="#212121"/>
<path d="M79.8379 78.5265C82.843 76.1439 86.5992 74.7644 90.6059 74.7644C100.247 74.7644 108.135 82.6647 108.135 92.3206C108.135 101.977 100.247 109.877 90.6059 109.877C80.9648 109.877 73.0766 101.977 73.0766 92.3206V64.6069H79.8161V78.5265H79.8379ZM90.6059 103.105C96.4908 103.105 101.374 98.2145 101.374 92.3206C101.374 86.4268 96.4908 81.5361 90.6059 81.5361C84.7211 81.5361 79.8379 86.4268 79.8379 92.3206C79.8379 98.2145 84.7211 103.105 90.6059 103.105Z" fill="black" fill-opacity="0.2"/>
<path d="M79.8379 78.5265C82.843 76.1439 86.5992 74.7644 90.6059 74.7644C100.247 74.7644 108.135 82.6647 108.135 92.3206C108.135 101.977 100.247 109.877 90.6059 109.877C80.9648 109.877 73.0766 101.977 73.0766 92.3206V64.6069H79.8161V78.5265H79.8379ZM90.6059 103.105C96.4908 103.105 101.374 98.2145 101.374 92.3206C101.374 86.4268 96.4908 81.5361 90.6059 81.5361C84.7211 81.5361 79.8379 86.4268 79.8379 92.3206C79.8379 98.2145 84.7211 103.105 90.6059 103.105Z" fill="black" fill-opacity="0.2"/>
<path d="M79.8379 78.5265C82.843 76.1439 86.5992 74.7644 90.6059 74.7644C100.247 74.7644 108.135 82.6647 108.135 92.3206C108.135 101.977 100.247 109.877 90.6059 109.877C80.9648 109.877 73.0766 101.977 73.0766 92.3206V64.6069H79.8161V78.5265H79.8379ZM90.6059 103.105C96.4908 103.105 101.374 98.2145 101.374 92.3206C101.374 86.4268 96.4908 81.5361 90.6059 81.5361C84.7211 81.5361 79.8379 86.4268 79.8379 92.3206C79.8379 98.2145 84.7211 103.105 90.6059 103.105Z" fill="black" fill-opacity="0.2"/>
<path d="M79.8379 78.5265C82.843 76.1439 86.5992 74.7644 90.6059 74.7644C100.247 74.7644 108.135 82.6647 108.135 92.3206C108.135 101.977 100.247 109.877 90.6059 109.877C80.9648 109.877 73.0766 101.977 73.0766 92.3206V64.6069H79.8161V78.5265H79.8379ZM90.6059 103.105C96.4908 103.105 101.374 98.2145 101.374 92.3206C101.374 86.4268 96.4908 81.5361 90.6059 81.5361C84.7211 81.5361 79.8379 86.4268 79.8379 92.3206C79.8379 98.2145 84.7211 103.105 90.6059 103.105Z" fill="black" fill-opacity="0.2"/>
<path d="M200.999 125.872H194.192V160.93H200.999V125.872Z" fill="#212121"/>
<path d="M200.999 125.872H194.192V160.93H200.999V125.872Z" fill="black" fill-opacity="0.2"/>
<path d="M200.999 125.872H194.192V160.93H200.999V125.872Z" fill="black" fill-opacity="0.2"/>
<path d="M200.999 125.872H194.192V160.93H200.999V125.872Z" fill="black" fill-opacity="0.2"/>
<path d="M200.999 125.872H194.192V160.93H200.999V125.872Z" fill="black" fill-opacity="0.2"/>
<path d="M170.389 160.806V143.339C170.389 133.732 162.501 125.872 152.859 125.872C143.218 125.872 135.33 133.732 135.33 143.339C135.33 152.946 143.218 160.806 152.859 160.806C156.866 160.806 160.622 159.433 163.627 157.063V160.93H170.389V160.806ZM152.859 154.068C146.975 154.068 142.091 149.203 142.091 143.339C142.091 137.475 146.975 132.609 152.859 132.609C158.744 132.609 163.627 137.475 163.627 143.339C163.627 149.203 158.869 154.068 152.859 154.068Z" fill="#212121"/>
<path d="M170.389 160.806V143.339C170.389 133.732 162.501 125.872 152.859 125.872C143.218 125.872 135.33 133.732 135.33 143.339C135.33 152.946 143.218 160.806 152.859 160.806C156.866 160.806 160.622 159.433 163.627 157.063V160.93H170.389V160.806ZM152.859 154.068C146.975 154.068 142.091 149.203 142.091 143.339C142.091 137.475 146.975 132.609 152.859 132.609C158.744 132.609 163.627 137.475 163.627 143.339C163.627 149.203 158.869 154.068 152.859 154.068Z" fill="black" fill-opacity="0.2"/>
<path d="M170.389 160.806V143.339C170.389 133.732 162.501 125.872 152.859 125.872C143.218 125.872 135.33 133.732 135.33 143.339C135.33 152.946 143.218 160.806 152.859 160.806C156.866 160.806 160.622 159.433 163.627 157.063V160.93H170.389V160.806ZM152.859 154.068C146.975 154.068 142.091 149.203 142.091 143.339C142.091 137.475 146.975 132.609 152.859 132.609C158.744 132.609 163.627 137.475 163.627 143.339C163.627 149.203 158.869 154.068 152.859 154.068Z" fill="black" fill-opacity="0.2"/>
<path d="M170.389 160.806V143.339C170.389 133.732 162.501 125.872 152.859 125.872C143.218 125.872 135.33 133.732 135.33 143.339C135.33 152.946 143.218 160.806 152.859 160.806C156.866 160.806 160.622 159.433 163.627 157.063V160.93H170.389V160.806ZM152.859 154.068C146.975 154.068 142.091 149.203 142.091 143.339C142.091 137.475 146.975 132.609 152.859 132.609C158.744 132.609 163.627 137.475 163.627 143.339C163.627 149.203 158.869 154.068 152.859 154.068Z" fill="black" fill-opacity="0.2"/>
<path d="M170.389 160.806V143.339C170.389 133.732 162.501 125.872 152.859 125.872C143.218 125.872 135.33 133.732 135.33 143.339C135.33 152.946 143.218 160.806 152.859 160.806C156.866 160.806 160.622 159.433 163.627 157.063V160.93H170.389V160.806ZM152.859 154.068C146.975 154.068 142.091 149.203 142.091 143.339C142.091 137.475 146.975 132.609 152.859 132.609C158.744 132.609 163.627 137.475 163.627 143.339C163.627 149.203 158.869 154.068 152.859 154.068Z" fill="black" fill-opacity="0.2"/>
<path d="M134.377 64.5256H127.91V109.796H134.377V64.5256Z" fill="#212121"/>
<path d="M134.377 64.5256H127.91V109.796H134.377V64.5256Z" fill="black" fill-opacity="0.2"/>
<path d="M134.377 64.5256H127.91V109.796H134.377V64.5256Z" fill="black" fill-opacity="0.2"/>
<path d="M134.377 64.5256H127.91V109.796H134.377V64.5256Z" fill="black" fill-opacity="0.2"/>
<path d="M134.377 64.5256H127.91V109.796H134.377V64.5256Z" fill="black" fill-opacity="0.2"/>
<path d="M130.737 160.931C132.68 160.931 134.137 159.35 134.137 157.527C134.137 155.582 132.558 154.123 130.737 154.123C128.793 154.123 127.336 155.704 127.336 157.527C127.215 159.35 128.793 160.931 130.737 160.931Z" fill="#212121"/>
<path d="M130.737 160.931C132.68 160.931 134.137 159.35 134.137 157.527C134.137 155.582 132.558 154.123 130.737 154.123C128.793 154.123 127.336 155.704 127.336 157.527C127.215 159.35 128.793 160.931 130.737 160.931Z" fill="black" fill-opacity="0.2"/>
<path d="M130.737 160.931C132.68 160.931 134.137 159.35 134.137 157.527C134.137 155.582 132.558 154.123 130.737 154.123C128.793 154.123 127.336 155.704 127.336 157.527C127.215 159.35 128.793 160.931 130.737 160.931Z" fill="black" fill-opacity="0.2"/>
<path d="M130.737 160.931C132.68 160.931 134.137 159.35 134.137 157.527C134.137 155.582 132.558 154.123 130.737 154.123C128.793 154.123 127.336 155.704 127.336 157.527C127.215 159.35 128.793 160.931 130.737 160.931Z" fill="black" fill-opacity="0.2"/>
<path d="M130.737 160.931C132.68 160.931 134.137 159.35 134.137 157.527C134.137 155.582 132.558 154.123 130.737 154.123C128.793 154.123 127.336 155.704 127.336 157.527C127.215 159.35 128.793 160.931 130.737 160.931Z" fill="black" fill-opacity="0.2"/>
<path d="M197.596 122.474C199.475 122.474 200.999 120.95 200.999 119.07C200.999 117.19 199.475 115.666 197.596 115.666C195.716 115.666 194.192 117.19 194.192 119.07C194.192 120.95 195.716 122.474 197.596 122.474Z" fill="#212121"/>
<path d="M197.596 122.474C199.475 122.474 200.999 120.95 200.999 119.07C200.999 117.19 199.475 115.666 197.596 115.666C195.716 115.666 194.192 117.19 194.192 119.07C194.192 120.95 195.716 122.474 197.596 122.474Z" fill="black" fill-opacity="0.2"/>
<path d="M197.596 122.474C199.475 122.474 200.999 120.95 200.999 119.07C200.999 117.19 199.475 115.666 197.596 115.666C195.716 115.666 194.192 117.19 194.192 119.07C194.192 120.95 195.716 122.474 197.596 122.474Z" fill="black" fill-opacity="0.2"/>
<path d="M197.596 122.474C199.475 122.474 200.999 120.95 200.999 119.07C200.999 117.19 199.475 115.666 197.596 115.666C195.716 115.666 194.192 117.19 194.192 119.07C194.192 120.95 195.716 122.474 197.596 122.474Z" fill="black" fill-opacity="0.2"/>
<path d="M197.596 122.474C199.475 122.474 200.999 120.95 200.999 119.07C200.999 117.19 199.475 115.666 197.596 115.666C195.716 115.666 194.192 117.19 194.192 119.07C194.192 120.95 195.716 122.474 197.596 122.474Z" fill="black" fill-opacity="0.2"/>
<path d="M62.5214 211.374C65.8643 208.742 70.0429 207.219 74.5 207.219C85.225 207.219 94 215.945 94 226.609C94 237.274 85.225 246 74.5 246C63.775 246 55 237.274 55 226.609V196H62.4971V211.374H62.5214ZM74.5 238.521C81.0464 238.521 86.4786 233.119 86.4786 226.609C86.4786 220.1 81.0464 214.698 74.5 214.698C67.9536 214.698 62.5214 220.1 62.5214 226.609C62.5214 233.119 67.9536 238.521 74.5 238.521Z" fill="#212121"/>
<path d="M62.5214 211.374C65.8643 208.742 70.0429 207.219 74.5 207.219C85.225 207.219 94 215.945 94 226.609C94 237.274 85.225 246 74.5 246C63.775 246 55 237.274 55 226.609V196H62.4971V211.374H62.5214ZM74.5 238.521C81.0464 238.521 86.4786 233.119 86.4786 226.609C86.4786 220.1 81.0464 214.698 74.5 214.698C67.9536 214.698 62.5214 220.1 62.5214 226.609C62.5214 233.119 67.9536 238.521 74.5 238.521Z" fill="black" fill-opacity="0.2"/>
<path d="M62.5214 211.374C65.8643 208.742 70.0429 207.219 74.5 207.219C85.225 207.219 94 215.945 94 226.609C94 237.274 85.225 246 74.5 246C63.775 246 55 237.274 55 226.609V196H62.4971V211.374H62.5214ZM74.5 238.521C81.0464 238.521 86.4786 233.119 86.4786 226.609C86.4786 220.1 81.0464 214.698 74.5 214.698C67.9536 214.698 62.5214 220.1 62.5214 226.609C62.5214 233.119 67.9536 238.521 74.5 238.521Z" fill="black" fill-opacity="0.2"/>
<path d="M62.5214 211.374C65.8643 208.742 70.0429 207.219 74.5 207.219C85.225 207.219 94 215.945 94 226.609C94 237.274 85.225 246 74.5 246C63.775 246 55 237.274 55 226.609V196H62.4971V211.374H62.5214ZM74.5 238.521C81.0464 238.521 86.4786 233.119 86.4786 226.609C86.4786 220.1 81.0464 214.698 74.5 214.698C67.9536 214.698 62.5214 220.1 62.5214 226.609C62.5214 233.119 67.9536 238.521 74.5 238.521Z" fill="black" fill-opacity="0.2"/>
<path d="M62.5214 211.374C65.8643 208.742 70.0429 207.219 74.5 207.219C85.225 207.219 94 215.945 94 226.609C94 237.274 85.225 246 74.5 246C63.775 246 55 237.274 55 226.609V196H62.4971V211.374H62.5214ZM74.5 238.521C81.0464 238.521 86.4786 233.119 86.4786 226.609C86.4786 220.1 81.0464 214.698 74.5 214.698C67.9536 214.698 62.5214 220.1 62.5214 226.609C62.5214 233.119 67.9536 238.521 74.5 238.521Z" fill="black" fill-opacity="0.2"/>
<path d="M143 196H136V246H143V196Z" fill="#212121"/>
<path d="M143 196H136V246H143V196Z" fill="black" fill-opacity="0.2"/>
<path d="M143 196H136V246H143V196Z" fill="black" fill-opacity="0.2"/>
<path d="M143 196H136V246H143V196Z" fill="black" fill-opacity="0.2"/>
<path d="M143 196H136V246H143V196Z" fill="black" fill-opacity="0.2"/>
<path d="M215.671 211.374C212.414 208.742 208.343 207.219 204 207.219C193.55 207.219 185 215.945 185 226.609C185 237.274 193.55 246 204 246C214.45 246 223 237.274 223 226.609V196H215.695V211.374H215.671ZM204 238.521C197.621 238.521 192.329 233.119 192.329 226.609C192.329 220.1 197.621 214.698 204 214.698C210.379 214.698 215.671 220.1 215.671 226.609C215.671 233.119 210.379 238.521 204 238.521Z" fill="#212121"/>
<path d="M215.671 211.374C212.414 208.742 208.343 207.219 204 207.219C193.55 207.219 185 215.945 185 226.609C185 237.274 193.55 246 204 246C214.45 246 223 237.274 223 226.609V196H215.695V211.374H215.671ZM204 238.521C197.621 238.521 192.329 233.119 192.329 226.609C192.329 220.1 197.621 214.698 204 214.698C210.379 214.698 215.671 220.1 215.671 226.609C215.671 233.119 210.379 238.521 204 238.521Z" fill="black" fill-opacity="0.2"/>
<path d="M215.671 211.374C212.414 208.742 208.343 207.219 204 207.219C193.55 207.219 185 215.945 185 226.609C185 237.274 193.55 246 204 246C214.45 246 223 237.274 223 226.609V196H215.695V211.374H215.671ZM204 238.521C197.621 238.521 192.329 233.119 192.329 226.609C192.329 220.1 197.621 214.698 204 214.698C210.379 214.698 215.671 220.1 215.671 226.609C215.671 233.119 210.379 238.521 204 238.521Z" fill="black" fill-opacity="0.2"/>
<path d="M215.671 211.374C212.414 208.742 208.343 207.219 204 207.219C193.55 207.219 185 215.945 185 226.609C185 237.274 193.55 246 204 246C214.45 246 223 237.274 223 226.609V196H215.695V211.374H215.671ZM204 238.521C197.621 238.521 192.329 233.119 192.329 226.609C192.329 220.1 197.621 214.698 204 214.698C210.379 214.698 215.671 220.1 215.671 226.609C215.671 233.119 210.379 238.521 204 238.521Z" fill="black" fill-opacity="0.2"/>
<path d="M215.671 211.374C212.414 208.742 208.343 207.219 204 207.219C193.55 207.219 185 215.945 185 226.609C185 237.274 193.55 246 204 246C214.45 246 223 237.274 223 226.609V196H215.695V211.374H215.671ZM204 238.521C197.621 238.521 192.329 233.119 192.329 226.609C192.329 220.1 197.621 214.698 204 214.698C210.379 214.698 215.671 220.1 215.671 226.609C215.671 233.119 210.379 238.521 204 238.521Z" fill="black" fill-opacity="0.2"/>
<path d="M268.503 246C270.501 246 272 244.375 272 242.5C272 240.5 270.377 239 268.503 239C266.505 239 265.007 240.625 265.007 242.5C264.882 244.375 266.505 246 268.503 246Z" fill="#212121"/>
<path d="M268.503 246C270.501 246 272 244.375 272 242.5C272 240.5 270.377 239 268.503 239C266.505 239 265.007 240.625 265.007 242.5C264.882 244.375 266.505 246 268.503 246Z" fill="black" fill-opacity="0.2"/>
<path d="M268.503 246C270.501 246 272 244.375 272 242.5C272 240.5 270.377 239 268.503 239C266.505 239 265.007 240.625 265.007 242.5C264.882 244.375 266.505 246 268.503 246Z" fill="black" fill-opacity="0.2"/>
<path d="M268.503 246C270.501 246 272 244.375 272 242.5C272 240.5 270.377 239 268.503 239C266.505 239 265.007 240.625 265.007 242.5C264.882 244.375 266.505 246 268.503 246Z" fill="black" fill-opacity="0.2"/>
<path d="M268.503 246C270.501 246 272 244.375 272 242.5C272 240.5 270.377 239 268.503 239C266.505 239 265.007 240.625 265.007 242.5C264.882 244.375 266.505 246 268.503 246Z" fill="black" fill-opacity="0.2"/>
<path d="M352 245.861V226.431C352 215.744 343.45 207 333 207C322.55 207 314 215.744 314 226.431C314 237.117 322.55 245.861 333 245.861C337.343 245.861 341.414 244.335 344.671 241.698V246H352V245.861ZM333 238.367C326.621 238.367 321.329 232.954 321.329 226.431C321.329 219.907 326.621 214.495 333 214.495C339.379 214.495 344.671 219.907 344.671 226.431C344.671 232.954 339.514 238.367 333 238.367Z" fill="#212121"/>
<path d="M352 245.861V226.431C352 215.744 343.45 207 333 207C322.55 207 314 215.744 314 226.431C314 237.117 322.55 245.861 333 245.861C337.343 245.861 341.414 244.335 344.671 241.698V246H352V245.861ZM333 238.367C326.621 238.367 321.329 232.954 321.329 226.431C321.329 219.907 326.621 214.495 333 214.495C339.379 214.495 344.671 219.907 344.671 226.431C344.671 232.954 339.514 238.367 333 238.367Z" fill="black" fill-opacity="0.2"/>
<path d="M352 245.861V226.431C352 215.744 343.45 207 333 207C322.55 207 314 215.744 314 226.431C314 237.117 322.55 245.861 333 245.861C337.343 245.861 341.414 244.335 344.671 241.698V246H352V245.861ZM333 238.367C326.621 238.367 321.329 232.954 321.329 226.431C321.329 219.907 326.621 214.495 333 214.495C339.379 214.495 344.671 219.907 344.671 226.431C344.671 232.954 339.514 238.367 333 238.367Z" fill="black" fill-opacity="0.2"/>
<path d="M352 245.861V226.431C352 215.744 343.45 207 333 207C322.55 207 314 215.744 314 226.431C314 237.117 322.55 245.861 333 245.861C337.343 245.861 341.414 244.335 344.671 241.698V246H352V245.861ZM333 238.367C326.621 238.367 321.329 232.954 321.329 226.431C321.329 219.907 326.621 214.495 333 214.495C339.379 214.495 344.671 219.907 344.671 226.431C344.671 232.954 339.514 238.367 333 238.367Z" fill="black" fill-opacity="0.2"/>
<path d="M352 245.861V226.431C352 215.744 343.45 207 333 207C322.55 207 314 215.744 314 226.431C314 237.117 322.55 245.861 333 245.861C337.343 245.861 341.414 244.335 344.671 241.698V246H352V245.861ZM333 238.367C326.621 238.367 321.329 232.954 321.329 226.431C321.329 219.907 326.621 214.495 333 214.495C339.379 214.495 344.671 219.907 344.671 226.431C344.671 232.954 339.514 238.367 333 238.367Z" fill="black" fill-opacity="0.2"/>
<path d="M401 207H394V246H401V207Z" fill="#212121"/>
<path d="M401 207H394V246H401V207Z" fill="black" fill-opacity="0.2"/>
<path d="M401 207H394V246H401V207Z" fill="black" fill-opacity="0.2"/>
<path d="M401 207H394V246H401V207Z" fill="black" fill-opacity="0.2"/>
<path d="M401 207H394V246H401V207Z" fill="black" fill-opacity="0.2"/>
<path d="M447 246C449.209 246 451 244.433 451 242.5C451 240.567 449.209 239 447 239C444.791 239 443 240.567 443 242.5C443 244.433 444.791 246 447 246Z" fill="#212121"/>
<path d="M447 246C449.209 246 451 244.433 451 242.5C451 240.567 449.209 239 447 239C444.791 239 443 240.567 443 242.5C443 244.433 444.791 246 447 246Z" fill="black" fill-opacity="0.2"/>
<path d="M447 246C449.209 246 451 244.433 451 242.5C451 240.567 449.209 239 447 239C444.791 239 443 240.567 443 242.5C443 244.433 444.791 246 447 246Z" fill="black" fill-opacity="0.2"/>
<path d="M447 246C449.209 246 451 244.433 451 242.5C451 240.567 449.209 239 447 239C444.791 239 443 240.567 443 242.5C443 244.433 444.791 246 447 246Z" fill="black" fill-opacity="0.2"/>
<path d="M447 246C449.209 246 451 244.433 451 242.5C451 240.567 449.209 239 447 239C444.791 239 443 240.567 443 242.5C443 244.433 444.791 246 447 246Z" fill="black" fill-opacity="0.2"/>
<rect x="0.5" y="0.5" width="504" height="283" stroke="#ABA8DB"/>
</svg>
