<svg width="505" height="284" viewBox="0 0 505 284" fill="none" xmlns="http://www.w3.org/2000/svg">
<rect x="0.5" y="0.5" width="504" height="283" fill="#EB5757"/>
<rect x="44" y="38" width="209.005" height="11.2975" fill="#56CCF2"/>
<rect x="241.708" y="38" width="11.2975" height="37.2819" fill="#56CCF2"/>
<rect x="44" y="38" width="11.2975" height="203.356" fill="#56CCF2"/>
<rect x="44" y="235.703" width="107.327" height="11.2975" fill="#56CCF2"/>
<path d="M241.788 110.235C236.801 106.281 230.567 103.992 223.917 103.992C207.917 103.992 194.826 117.103 194.826 133.128C194.826 149.152 207.917 162.263 223.917 162.263C239.917 162.263 253.009 149.152 253.009 133.128V87.1348H241.824V110.235H241.788ZM223.917 151.025C214.151 151.025 206.047 142.909 206.047 133.128C206.047 123.346 214.151 115.23 223.917 115.23C233.684 115.23 241.788 123.346 241.788 133.128C241.788 142.909 233.684 151.025 223.917 151.025Z" fill="#56CCF2"/>
<path d="M124.702 110.235C129.689 106.281 135.923 103.992 142.572 103.992C158.573 103.992 171.664 117.103 171.664 133.128C171.664 149.152 158.573 162.263 142.572 162.263C126.572 162.263 113.481 149.152 113.481 133.128V87.1348H124.666V110.235H124.702ZM142.572 151.025C152.339 151.025 160.443 142.909 160.443 133.128C160.443 123.346 152.339 115.23 142.572 115.23C132.806 115.23 124.702 123.346 124.702 133.128C124.702 142.909 132.806 151.025 142.572 151.025Z" fill="#56CCF2"/>
<path d="M253.006 188.809H241.708V246.991H253.006V188.809Z" fill="#56CCF2"/>
<path d="M235.497 246.784V217.796C235.497 201.853 222.406 188.809 206.406 188.809C190.405 188.809 177.314 201.853 177.314 217.796C177.314 233.739 190.405 246.784 206.406 246.784C213.055 246.784 219.289 244.506 224.276 240.572V246.991H235.497V246.784ZM206.406 235.603C196.639 235.603 188.535 227.528 188.535 217.796C188.535 208.065 196.639 199.99 206.406 199.99C216.172 199.99 224.276 208.065 224.276 217.796C224.276 227.528 216.38 235.603 206.406 235.603Z" fill="#56CCF2"/>
<path d="M188.611 87.1348H177.878V162.263H188.611V87.1348Z" fill="#56CCF2"/>
<path d="M169.692 246.992C172.917 246.992 175.336 244.369 175.336 241.343C175.336 238.115 172.716 235.694 169.692 235.694C166.468 235.694 164.049 238.317 164.049 241.343C163.847 244.369 166.468 246.992 169.692 246.992Z" fill="#56CCF2"/>
<path d="M247.283 183.169C250.403 183.169 252.932 180.64 252.932 177.52C252.932 174.4 250.403 171.871 247.283 171.871C244.163 171.871 241.634 174.4 241.634 177.52C241.634 180.64 244.163 183.169 247.283 183.169Z" fill="#56CCF2"/>
<path d="M391.385 131.609C387.686 128.676 383.062 126.978 378.131 126.978C366.264 126.978 356.554 136.702 356.554 148.588C356.554 160.473 366.264 170.197 378.131 170.197C389.998 170.197 399.707 160.473 399.707 148.588V114.475H391.412V131.609H391.385ZM378.131 161.862C370.887 161.862 364.877 155.842 364.877 148.588C364.877 141.333 370.887 135.313 378.131 135.313C385.374 135.313 391.385 141.333 391.385 148.588C391.385 155.842 385.374 161.862 378.131 161.862Z" fill="#6FCF97"/>
<path d="M306.322 131.609C310.021 128.676 314.645 126.978 319.576 126.978C331.443 126.978 341.153 136.702 341.153 148.588C341.153 160.473 331.443 170.197 319.576 170.197C307.709 170.197 298 160.473 298 148.588V114.475H306.295V131.609H306.322ZM319.576 161.862C326.82 161.862 332.83 155.842 332.83 148.588C332.83 141.333 326.82 135.313 319.576 135.313C312.333 135.313 306.322 141.333 306.322 148.588C306.322 155.842 312.333 161.862 319.576 161.862Z" fill="#6FCF97"/>
<path d="M470.779 126.956H462.4V170.109H470.779V126.956Z" fill="#6FCF97"/>
<path d="M458.68 169.955V148.456C458.68 136.631 448.971 126.956 437.104 126.956C425.237 126.956 415.527 136.631 415.527 148.456C415.527 160.281 425.237 169.955 437.104 169.955C442.036 169.955 446.659 168.266 450.358 165.348V170.109H458.68V169.955ZM437.104 161.663C429.86 161.663 423.85 155.673 423.85 148.456C423.85 141.238 429.86 135.249 437.104 135.249C444.347 135.249 450.358 141.238 450.358 148.456C450.358 155.673 444.502 161.663 437.104 161.663Z" fill="#6FCF97"/>
<path d="M352.833 114.475H344.873V170.197H352.833V114.475Z" fill="#6FCF97"/>
<path d="M407.62 170.11C410.012 170.11 411.806 168.165 411.806 165.92C411.806 163.526 409.863 161.73 407.62 161.73C405.229 161.73 403.435 163.676 403.435 165.92C403.285 168.165 405.229 170.11 407.62 170.11Z" fill="#6FCF97"/>
<path d="M466.811 122.773C469.125 122.773 471 120.897 471 118.583C471 116.269 469.125 114.394 466.811 114.394C464.497 114.394 462.621 116.269 462.621 118.583C462.621 120.897 464.497 122.773 466.811 122.773Z" fill="#6FCF97"/>
<rect x="0.5" y="0.5" width="504" height="283" stroke="#ABA8DB"/>
</svg>
