<svg width="505" height="284" viewBox="0 0 505 284" fill="none" xmlns="http://www.w3.org/2000/svg">
<rect x="245" y="126" width="17.0004" height="0.918939" fill="#5C55B8"/>
<rect x="261.082" y="126" width="0.918939" height="3.0325" fill="#5C55B8"/>
<rect x="245" y="126" width="0.918939" height="16.5409" fill="#5C55B8"/>
<rect x="245" y="142.081" width="8.72992" height="0.918939" fill="#5C55B8"/>
<path d="M261.088 131.876C260.682 131.554 260.175 131.368 259.635 131.368C258.333 131.368 257.268 132.434 257.268 133.738C257.268 135.041 258.333 136.108 259.635 136.108C260.936 136.108 262.001 135.041 262.001 133.738V129.997H261.091V131.876H261.088ZM259.635 135.193C258.84 135.193 258.181 134.533 258.181 133.738C258.181 132.942 258.84 132.282 259.635 132.282C260.429 132.282 261.088 132.942 261.088 133.738C261.088 134.533 260.429 135.193 259.635 135.193Z" fill="#5C55B8"/>
<path d="M251.564 131.876C251.97 131.554 252.477 131.368 253.018 131.368C254.319 131.368 255.384 132.434 255.384 133.738C255.384 135.041 254.319 136.108 253.018 136.108C251.717 136.108 250.652 135.041 250.652 133.738V129.997H251.561V131.876H251.564ZM253.018 135.193C253.812 135.193 254.472 134.533 254.472 133.738C254.472 132.942 253.812 132.282 253.018 132.282C252.224 132.282 251.564 132.942 251.564 133.738C251.564 134.533 252.224 135.193 253.018 135.193Z" fill="#5C55B8"/>
<path d="M262.001 138.267H261.082V142.999H262.001V138.267Z" fill="#5C55B8"/>
<path d="M260.577 142.982V140.625C260.577 139.328 259.512 138.267 258.21 138.267C256.909 138.267 255.844 139.328 255.844 140.625C255.844 141.921 256.909 142.982 258.21 142.982C258.751 142.982 259.258 142.797 259.664 142.477V142.999H260.577V142.982ZM258.21 142.073C257.416 142.073 256.757 141.416 256.757 140.625C256.757 139.833 257.416 139.176 258.21 139.176C259.005 139.176 259.664 139.833 259.664 140.625C259.664 141.416 259.022 142.073 258.21 142.073Z" fill="#5C55B8"/>
<path d="M256.763 129.997H255.89V136.108H256.763V129.997Z" fill="#5C55B8"/>
<path d="M255.224 142.999C255.486 142.999 255.683 142.786 255.683 142.54C255.683 142.277 255.47 142.08 255.224 142.08C254.962 142.08 254.765 142.294 254.765 142.54C254.748 142.786 254.962 142.999 255.224 142.999Z" fill="#5C55B8"/>
<path d="M261.535 137.808C261.789 137.808 261.995 137.602 261.995 137.349C261.995 137.095 261.789 136.889 261.535 136.889C261.281 136.889 261.076 137.095 261.076 137.349C261.076 137.602 261.281 137.808 261.535 137.808Z" fill="#5C55B8"/>
<path d="M253.716 154.243C253.331 153.938 252.85 153.761 252.337 153.761C251.102 153.761 250.092 154.773 250.092 156.009C250.092 157.246 251.102 158.258 252.337 158.258C253.572 158.258 254.582 157.246 254.582 156.009V152.46H253.719V154.243H253.716ZM252.337 157.39C251.583 157.39 250.958 156.764 250.958 156.009C250.958 155.255 251.583 154.628 252.337 154.628C253.091 154.628 253.716 155.255 253.716 156.009C253.716 156.764 253.091 157.39 252.337 157.39Z" fill="#5C55B8"/>
<path d="M244.866 154.243C245.251 153.938 245.732 153.761 246.245 153.761C247.48 153.761 248.49 154.773 248.49 156.009C248.49 157.246 247.48 158.258 246.245 158.258C245.01 158.258 244 157.246 244 156.009V152.46H244.863V154.243H244.866ZM246.245 157.39C246.999 157.39 247.624 156.764 247.624 156.009C247.624 155.255 246.999 154.628 246.245 154.628C245.491 154.628 244.866 155.255 244.866 156.009C244.866 156.764 245.491 157.39 246.245 157.39Z" fill="#5C55B8"/>
<path d="M261.977 153.759H261.105V158.249H261.977V153.759Z" fill="#5C55B8"/>
<path d="M260.718 158.233V155.996C260.718 154.765 259.708 153.759 258.473 153.759C257.239 153.759 256.228 154.765 256.228 155.996C256.228 157.226 257.239 158.233 258.473 158.233C258.986 158.233 259.467 158.057 259.852 157.753V158.249H260.718V158.233ZM258.473 157.37C257.72 157.37 257.094 156.747 257.094 155.996C257.094 155.245 257.72 154.622 258.473 154.622C259.227 154.622 259.852 155.245 259.852 155.996C259.852 156.747 259.243 157.37 258.473 157.37Z" fill="#5C55B8"/>
<path d="M249.705 152.46H248.877V158.258H249.705V152.46Z" fill="#5C55B8"/>
<path d="M255.405 158.249C255.654 158.249 255.841 158.046 255.841 157.813C255.841 157.564 255.639 157.377 255.405 157.377C255.156 157.377 254.97 157.579 254.97 157.813C254.954 158.046 255.156 158.249 255.405 158.249Z" fill="#5C55B8"/>
<path d="M261.564 153.323C261.805 153.323 262 153.128 262 152.888C262 152.647 261.805 152.452 261.564 152.452C261.323 152.452 261.128 152.647 261.128 152.888C261.128 153.128 261.323 153.323 261.564 153.323Z" fill="#5C55B8"/>
<rect x="0.5" y="0.5" width="504" height="283" stroke="#ABA8DB"/>
</svg>
