<svg width="348" height="342" viewBox="0 0 348 342" fill="none" xmlns="http://www.w3.org/2000/svg">
<path d="M30.8489 48.6933C42.5607 48.6933 52.0549 39.1692 52.0549 27.4207C52.0549 15.6722 42.5607 6.14819 30.8489 6.14819C19.1371 6.14819 9.64282 15.6722 9.64282 27.4207C9.64282 39.1692 19.1371 48.6933 30.8489 48.6933Z" stroke="#B3AFE9" stroke-width="10" stroke-linecap="round" stroke-linejoin="round"/>
<path d="M127.481 48.6933C139.193 48.6933 148.688 39.1692 148.688 27.4207C148.688 15.6722 139.193 6.14819 127.481 6.14819C115.77 6.14819 106.275 15.6722 106.275 27.4207C106.275 39.1692 115.77 48.6933 127.481 48.6933Z" stroke="#B3AFE9" stroke-width="10" stroke-linecap="round" stroke-linejoin="round"/>
<path d="M224.073 48.6933C235.785 48.6933 245.279 39.1692 245.279 27.4207C245.279 15.6722 235.785 6.14819 224.073 6.14819C212.361 6.14819 202.867 15.6722 202.867 27.4207C202.867 39.1692 212.361 48.6933 224.073 48.6933Z" stroke="#B3AFE9" stroke-width="10" stroke-linecap="round" stroke-linejoin="round"/>
<path d="M320.665 48.6933C332.377 48.6933 341.871 39.1692 341.871 27.4207C341.871 15.6722 332.377 6.14819 320.665 6.14819C308.953 6.14819 299.459 15.6722 299.459 27.4207C299.459 39.1692 308.953 48.6933 320.665 48.6933Z" stroke="#B3AFE9" stroke-width="10" stroke-linecap="round" stroke-linejoin="round"/>
<path d="M29.7048 144.399C41.4166 144.399 50.9109 134.875 50.9109 123.127C50.9109 111.378 41.4166 101.854 29.7048 101.854C17.9931 101.854 8.49878 111.378 8.49878 123.127C8.49878 134.875 17.9931 144.399 29.7048 144.399Z" stroke="#B3AFE9" stroke-width="10" stroke-linecap="round" stroke-linejoin="round"/>
<path d="M126.297 144.399C138.008 144.399 147.503 134.875 147.503 123.127C147.503 111.378 138.008 101.854 126.297 101.854C114.585 101.854 105.091 111.378 105.091 123.127C105.091 134.875 114.585 144.399 126.297 144.399Z" stroke="#B3AFE9" stroke-width="10" stroke-linecap="round" stroke-linejoin="round"/>
<path d="M222.888 144.399C234.6 144.399 244.094 134.875 244.094 123.127C244.094 111.378 234.6 101.854 222.888 101.854C211.177 101.854 201.682 111.378 201.682 123.127C201.682 134.875 211.177 144.399 222.888 144.399Z" stroke="#B3AFE9" stroke-width="10" stroke-linecap="round" stroke-linejoin="round"/>
<path d="M319.48 144.399C331.192 144.399 340.686 134.875 340.686 123.127C340.686 111.378 331.192 101.854 319.48 101.854C307.768 101.854 298.274 111.378 298.274 123.127C298.274 134.875 307.768 144.399 319.48 144.399Z" stroke="#B3AFE9" stroke-width="10" stroke-linecap="round" stroke-linejoin="round"/>
<path d="M28.5199 240.146C40.2317 240.146 49.726 230.622 49.726 218.873C49.726 207.125 40.2317 197.601 28.5199 197.601C16.8081 197.601 7.31384 207.125 7.31384 218.873C7.31384 230.622 16.8081 240.146 28.5199 240.146Z" stroke="#B3AFE9" stroke-width="10" stroke-linecap="round" stroke-linejoin="round"/>
<path d="M125.112 240.146C136.823 240.146 146.318 230.622 146.318 218.873C146.318 207.125 136.823 197.601 125.112 197.601C113.4 197.601 103.906 207.125 103.906 218.873C103.906 230.622 113.4 240.146 125.112 240.146Z" stroke="#B3AFE9" stroke-width="10" stroke-linecap="round" stroke-linejoin="round"/>
<path d="M221.703 240.146C233.415 240.146 242.909 230.622 242.909 218.873C242.909 207.125 233.415 197.601 221.703 197.601C209.992 197.601 200.497 207.125 200.497 218.873C200.497 230.622 209.992 240.146 221.703 240.146Z" stroke="#B3AFE9" stroke-width="10" stroke-linecap="round" stroke-linejoin="round"/>
<path d="M318.295 240.146C330.007 240.146 339.501 230.622 339.501 218.873C339.501 207.125 330.007 197.601 318.295 197.601C306.583 197.601 297.089 207.125 297.089 218.873C297.089 230.622 306.583 240.146 318.295 240.146Z" stroke="#B3AFE9" stroke-width="10" stroke-linecap="round" stroke-linejoin="round"/>
<path d="M27.335 335.852C39.0467 335.852 48.541 326.328 48.541 314.579C48.541 302.831 39.0467 293.307 27.335 293.307C15.6232 293.307 6.12891 302.831 6.12891 314.579C6.12891 326.328 15.6232 335.852 27.335 335.852Z" stroke="#B3AFE9" stroke-width="10" stroke-linecap="round" stroke-linejoin="round"/>
<path d="M123.927 335.852C135.639 335.852 145.133 326.328 145.133 314.579C145.133 302.831 135.639 293.307 123.927 293.307C112.215 293.307 102.721 302.831 102.721 314.579C102.721 326.328 112.215 335.852 123.927 335.852Z" stroke="#B3AFE9" stroke-width="10" stroke-linecap="round" stroke-linejoin="round"/>
<path d="M220.518 335.852C232.23 335.852 241.725 326.328 241.725 314.579C241.725 302.831 232.23 293.307 220.518 293.307C208.807 293.307 199.312 302.831 199.312 314.579C199.312 326.328 208.807 335.852 220.518 335.852Z" stroke="#B3AFE9" stroke-width="10" stroke-linecap="round" stroke-linejoin="round"/>
<path d="M317.11 335.852C328.822 335.852 338.316 326.328 338.316 314.579C338.316 302.831 328.822 293.307 317.11 293.307C305.398 293.307 295.904 302.831 295.904 314.579C295.904 326.328 305.398 335.852 317.11 335.852Z" stroke="#B3AFE9" stroke-width="10" stroke-linecap="round" stroke-linejoin="round"/>
</svg>
