<svg width="1722" height="861" viewBox="0 0 1722 861" fill="none" xmlns="http://www.w3.org/2000/svg">
<g style="mix-blend-mode:color">
<path d="M1145.05 247.027H400.516V619.054H1145.05V247.027Z" fill="white"/>
</g>
<path d="M476.274 494.786V458.222L444.588 476.501" stroke="#D6D5F3" stroke-miterlimit="10"/>
<path d="M444.587 513.065V476.501L412.901 458.222V494.786L444.587 513.065Z" stroke="#D6D5F3" stroke-miterlimit="10"/>
<path d="M381.221 513.065L412.901 494.786V458.222" stroke="#D6D5F3" stroke-miterlimit="10"/>
<path d="M444.588 513.065L412.901 494.786L381.221 513.065" stroke="#D6D5F3" stroke-miterlimit="10"/>
<path d="M507.962 476.5L539.642 458.221V421.657L507.962 403.378L476.275 421.657V458.221L507.962 476.5Z" stroke="#D6D5F3" stroke-miterlimit="10"/>
<path d="M476.274 458.221V421.657L444.588 403.378V439.936L476.274 458.221Z" stroke="#D6D5F3" stroke-miterlimit="10"/>
<path d="M444.587 403.378L412.901 421.657V458.221L444.587 439.936V403.378Z" stroke="#D6D5F3" stroke-miterlimit="10"/>
<path d="M476.273 458.222L444.587 439.937L412.901 458.222L444.587 476.501L476.273 458.222Z" stroke="#D6D5F3" stroke-miterlimit="10"/>
<path d="M286.164 458.222V494.786L317.85 513.065" stroke="#D6D5F3" stroke-miterlimit="10"/>
<path d="M286.165 458.222L254.478 476.501V513.065L286.165 494.786V458.222Z" stroke="#D6D5F3" stroke-miterlimit="10"/>
<path d="M412.901 458.221V421.657L381.221 403.378V439.936L412.901 458.221Z" stroke="#D6D5F3" stroke-miterlimit="10"/>
<path d="M381.222 403.378L349.536 421.657V458.221L381.222 439.936V403.378Z" stroke="#D6D5F3" stroke-miterlimit="10"/>
<path d="M412.902 458.222L381.222 439.937L349.536 458.222L381.222 476.501L412.902 458.222Z" stroke="#D6D5F3" stroke-miterlimit="10"/>
<path d="M349.535 458.221V421.657L317.849 403.378V439.936L349.535 458.221Z" stroke="#D6D5F3" stroke-miterlimit="10"/>
<path d="M286.164 458.221L317.85 439.936V403.378L286.164 421.657" stroke="#D6D5F3" stroke-miterlimit="10"/>
<path d="M349.536 458.222L317.85 439.937L286.164 458.222L317.85 476.501L349.536 458.222Z" stroke="#D6D5F3" stroke-miterlimit="10"/>
<path d="M571.328 403.378V366.814L539.642 348.529V385.093L571.328 403.378Z" stroke="#D6D5F3" stroke-miterlimit="10"/>
<path d="M539.642 348.529L507.962 366.814V403.378L539.642 385.093V348.529Z" stroke="#D6D5F3" stroke-miterlimit="10"/>
<path d="M571.329 403.378L539.642 385.093L507.962 403.378L539.642 421.657L571.329 403.378Z" stroke="#D6D5F3" stroke-miterlimit="10"/>
<path d="M507.962 403.378V366.814L476.275 348.529V385.093L507.962 403.378Z" stroke="#D6D5F3" stroke-miterlimit="10"/>
<path d="M476.274 348.529L444.588 366.814V403.378L476.274 385.093V348.529Z" stroke="#D6D5F3" stroke-miterlimit="10"/>
<path d="M507.961 403.378L476.274 385.093L444.588 403.378L476.274 421.657L507.961 403.378Z" stroke="#D6D5F3" stroke-miterlimit="10"/>
<path d="M603.012 348.529V311.965L571.325 293.686" stroke="#D6D5F3" stroke-miterlimit="10"/>
<path d="M603.014 348.529L571.328 330.25L539.642 348.529L571.328 366.814L603.014 348.529Z" stroke="#D6D5F3" stroke-miterlimit="10"/>
<path d="M444.587 403.378V366.814L412.901 348.529V385.093L444.587 403.378Z" stroke="#D6D5F3" stroke-miterlimit="10"/>
<path d="M412.901 348.529L381.221 366.814V403.378L412.901 385.093V348.529Z" stroke="#D6D5F3" stroke-miterlimit="10"/>
<path d="M444.588 403.378L412.901 385.093L381.221 403.378L412.901 421.657L444.588 403.378Z" stroke="#D6D5F3" stroke-miterlimit="10"/>
<path d="M349.535 421.657L381.221 403.378V366.814L349.535 348.529L317.849 366.814V403.378L349.535 421.657Z" stroke="#D6D5F3" stroke-miterlimit="10"/>
<path d="M476.274 348.529V311.965L444.588 293.686V330.25L476.274 348.529Z" stroke="#D6D5F3" stroke-miterlimit="10"/>
<path d="M444.587 293.686L412.901 311.965V348.529L444.587 330.25V293.686Z" stroke="#D6D5F3" stroke-miterlimit="10"/>
<path d="M476.273 348.529L444.587 330.25L412.901 348.529L444.587 366.814L476.273 348.529Z" stroke="#D6D5F3" stroke-miterlimit="10"/>
<path d="M444.587 293.686V257.122L412.901 238.843" stroke="#D6D5F3" stroke-miterlimit="10"/>
<path d="M444.588 293.686L412.901 275.407L381.221 293.686L412.901 311.965L444.588 293.686Z" stroke="#D6D5F3" stroke-miterlimit="10"/>
<path d="M412.901 348.529V311.965L381.221 293.686V330.25L412.901 348.529Z" stroke="#D6D5F3" stroke-miterlimit="10"/>
<path d="M381.222 293.686L349.536 311.965V348.529L381.222 330.25V293.686Z" stroke="#D6D5F3" stroke-miterlimit="10"/>
<path d="M412.902 348.529L381.222 330.25L349.536 348.529L381.222 366.814L412.902 348.529Z" stroke="#D6D5F3" stroke-miterlimit="10"/>
<path d="M191.113 622.75V586.192L159.426 567.907V604.471L191.113 622.75Z" stroke="#D6D5F3" stroke-miterlimit="10"/>
<path d="M159.425 567.907L127.739 586.192V622.75L159.425 604.471V567.907Z" stroke="#D6D5F3" stroke-miterlimit="10"/>
<path d="M191.112 622.751L159.425 604.472L127.739 622.751L159.425 641.036L191.112 622.751Z" stroke="#D6D5F3" stroke-miterlimit="10"/>
<path d="M127.738 622.75V586.192L96.052 567.907V604.471L127.738 622.75Z" stroke="#D6D5F3" stroke-miterlimit="10"/>
<path d="M96.0525 567.907L64.3724 586.192V622.75L96.0525 604.471V567.907Z" stroke="#D6D5F3" stroke-miterlimit="10"/>
<path d="M127.739 622.751L96.0525 604.472L64.3724 622.751L96.0525 641.036L127.739 622.751Z" stroke="#D6D5F3" stroke-miterlimit="10"/>
<path d="M222.798 567.908V531.343L191.112 513.064V549.629L222.798 567.908Z" stroke="#D6D5F3" stroke-miterlimit="10"/>
<path d="M191.113 513.064L159.426 531.343V567.908L191.113 549.629V513.064Z" stroke="#D6D5F3" stroke-miterlimit="10"/>
<path d="M222.799 567.907L191.113 549.628L159.426 567.907L191.113 586.193L222.799 567.907Z" stroke="#D6D5F3" stroke-miterlimit="10"/>
<path d="M159.425 567.908V531.343L127.739 513.064V549.629L159.425 567.908Z" stroke="#D6D5F3" stroke-miterlimit="10"/>
<path d="M127.738 513.064L96.052 531.343V567.908L127.738 549.629V513.064Z" stroke="#D6D5F3" stroke-miterlimit="10"/>
<path d="M159.424 567.907L127.738 549.628L96.052 567.907L127.738 586.193L159.424 567.907Z" stroke="#D6D5F3" stroke-miterlimit="10"/>
<path d="M64.3734 622.75V586.192L32.6872 567.907V604.471L64.3734 622.75Z" stroke="#D6D5F3" stroke-miterlimit="10"/>
<path d="M96.0525 567.908V531.343L64.3724 513.064V549.629L96.0525 567.908Z" stroke="#D6D5F3" stroke-miterlimit="10"/>
<path d="M64.3734 513.064L32.6872 531.343V567.908L64.3734 549.629V513.064Z" stroke="#D6D5F3" stroke-miterlimit="10"/>
<path d="M96.0535 567.907L64.3734 549.628L32.6872 567.907L64.3734 586.193L96.0535 567.907Z" stroke="#D6D5F3" stroke-miterlimit="10"/>
<path d="M32.6862 567.908V531.343L1 513.064V549.629L32.6862 567.908Z" stroke="#D6D5F3" stroke-miterlimit="10"/>
<path d="M254.479 513.065V476.501L222.799 458.222V494.786L254.479 513.065Z" stroke="#D6D5F3" stroke-miterlimit="10"/>
<path d="M222.798 458.222L191.112 476.501V513.065L222.798 494.786V458.222Z" stroke="#D6D5F3" stroke-miterlimit="10"/>
<path d="M254.478 513.065L222.798 494.786L191.112 513.065L222.798 531.344L254.478 513.065Z" stroke="#D6D5F3" stroke-miterlimit="10"/>
<path d="M159.425 531.344L191.112 513.065V476.501L159.425 458.222L127.739 476.501V513.065L159.425 531.344Z" stroke="#D6D5F3" stroke-miterlimit="10"/>
<path d="M286.165 421.657L254.478 403.378V439.936L286.165 458.221" stroke="#D6D5F3" stroke-miterlimit="10"/>
<path d="M254.479 403.378L222.799 421.657V458.221L254.479 439.936V403.378Z" stroke="#D6D5F3" stroke-miterlimit="10"/>
<path d="M286.165 458.222L254.479 439.937L222.799 458.222L254.479 476.501L286.165 458.222Z" stroke="#D6D5F3" stroke-miterlimit="10"/>
<path d="M317.85 403.378V366.814L286.164 348.529V385.093L317.85 403.378Z" stroke="#D6D5F3" stroke-miterlimit="10"/>
<path d="M286.165 348.529L254.478 366.814V403.378L286.165 385.093V348.529Z" stroke="#D6D5F3" stroke-miterlimit="10"/>
<path d="M317.851 403.378L286.165 385.093L254.478 403.378L286.165 421.657L317.851 403.378Z" stroke="#D6D5F3" stroke-miterlimit="10"/>
<path d="M191.113 403.378L159.426 421.657V458.221" stroke="#D6D5F3" stroke-miterlimit="10"/>
<path d="M127.738 513.065V476.501L96.052 458.222V494.786L127.738 513.065Z" stroke="#D6D5F3" stroke-miterlimit="10"/>
<path d="M96.0525 458.222L64.3724 476.501V513.065L96.0525 494.786V458.222Z" stroke="#D6D5F3" stroke-miterlimit="10"/>
<path d="M127.739 513.065L96.0525 494.786L64.3724 513.065L96.0525 531.344L127.739 513.065Z" stroke="#D6D5F3" stroke-miterlimit="10"/>
<path d="M64.3734 513.065V476.501L32.6872 458.222V494.786L64.3734 513.065Z" stroke="#D6D5F3" stroke-miterlimit="10"/>
<path d="M32.6862 458.222L1 476.501V513.065L32.6862 494.786V458.222Z" stroke="#D6D5F3" stroke-miterlimit="10"/>
<path d="M64.3725 513.065L32.6862 494.786L1 513.065L32.6862 531.344L64.3725 513.065Z" stroke="#D6D5F3" stroke-miterlimit="10"/>
<path d="M159.425 458.221V421.657L127.739 403.378V439.936L159.425 458.221Z" stroke="#D6D5F3" stroke-miterlimit="10"/>
<path d="M127.738 403.378L96.052 421.657V458.221L127.738 439.936V403.378Z" stroke="#D6D5F3" stroke-miterlimit="10"/>
<path d="M159.424 458.222L127.738 439.937L96.052 458.222L127.738 476.501L159.424 458.222Z" stroke="#D6D5F3" stroke-miterlimit="10"/>
<path d="M824.812 293.686L793.126 311.965V348.529L824.812 330.25V293.686Z" stroke="#D6D5F3" stroke-miterlimit="10"/>
<path d="M793.125 348.529V311.965L761.439 293.686V330.25L793.125 348.529Z" stroke="#D6D5F3" stroke-miterlimit="10"/>
<path d="M761.44 293.686L729.754 311.965V348.529L761.44 330.25V293.686Z" stroke="#D6D5F3" stroke-miterlimit="10"/>
<path d="M761.44 330.25L729.754 348.529L761.44 366.814" stroke="#D6D5F3" stroke-miterlimit="10"/>
<path d="M698.065 403.378V366.814L666.385 348.529V385.093L698.065 403.378Z" stroke="#D6D5F3" stroke-miterlimit="10"/>
<path d="M666.386 348.529L634.7 366.814V403.378L666.386 385.093V348.529Z" stroke="#D6D5F3" stroke-miterlimit="10"/>
<path d="M698.066 403.378L666.386 385.093L634.7 403.378L666.386 421.657L698.066 403.378Z" stroke="#D6D5F3" stroke-miterlimit="10"/>
<path d="M634.701 403.378V366.814L603.014 348.529V385.093L634.701 403.378Z" stroke="#D6D5F3" stroke-miterlimit="10"/>
<path d="M603.012 348.529L571.325 366.814V403.378L603.012 385.093V348.529Z" stroke="#D6D5F3" stroke-miterlimit="10"/>
<path d="M634.698 403.378L603.012 385.093L571.325 403.378L603.012 421.657L634.698 403.378Z" stroke="#D6D5F3" stroke-miterlimit="10"/>
<path d="M698.066 293.686V330.25L729.753 348.529V311.965" stroke="#D6D5F3" stroke-miterlimit="10"/>
<path d="M698.065 293.686L666.385 311.965V348.529L698.065 330.25V293.686Z" stroke="#D6D5F3" stroke-miterlimit="10"/>
<path d="M729.751 348.529L698.065 330.25L666.385 348.529L698.065 366.814L729.751 348.529Z" stroke="#D6D5F3" stroke-miterlimit="10"/>
<path d="M666.386 348.529V311.965L634.7 293.686V330.25L666.386 348.529Z" stroke="#D6D5F3" stroke-miterlimit="10"/>
<path d="M634.701 293.686L603.014 311.965V348.529L634.701 330.25V293.686Z" stroke="#D6D5F3" stroke-miterlimit="10"/>
<path d="M666.387 348.529L634.701 330.25L603.014 348.529L634.701 366.814L666.387 348.529Z" stroke="#D6D5F3" stroke-miterlimit="10"/>
<path d="M888.177 293.686V257.122L856.491 238.843V275.407L888.177 293.686Z" stroke="#D6D5F3" stroke-miterlimit="10"/>
<path d="M856.491 238.843L824.811 257.122V293.686L856.491 275.407V238.843Z" stroke="#D6D5F3" stroke-miterlimit="10"/>
<path d="M888.178 293.686L856.491 275.407L824.811 293.686L856.491 311.965L888.178 293.686Z" stroke="#D6D5F3" stroke-miterlimit="10"/>
<path d="M824.812 293.686V257.122L793.126 238.843V275.407L824.812 293.686Z" stroke="#D6D5F3" stroke-miterlimit="10"/>
<path d="M793.125 238.843L761.439 257.122V293.686L793.125 275.407V238.843Z" stroke="#D6D5F3" stroke-miterlimit="10"/>
<path d="M824.811 293.686L793.125 275.407L761.439 293.686L793.125 311.965L824.811 293.686Z" stroke="#D6D5F3" stroke-miterlimit="10"/>
<path d="M919.864 238.843V202.279L888.178 184V220.558L919.864 238.843Z" stroke="#D6D5F3" stroke-miterlimit="10"/>
<path d="M888.177 184L856.491 202.279V238.843L888.177 220.558V184Z" stroke="#D6D5F3" stroke-miterlimit="10"/>
<path d="M919.863 238.843L888.177 220.558L856.491 238.843L888.177 257.122L919.863 238.843Z" stroke="#D6D5F3" stroke-miterlimit="10"/>
<path d="M856.491 238.843V202.279L824.811 184V220.558L856.491 238.843Z" stroke="#D6D5F3" stroke-miterlimit="10"/>
<path d="M824.812 184L793.126 202.279V238.843L824.812 220.558V184Z" stroke="#D6D5F3" stroke-miterlimit="10"/>
<path d="M856.492 238.843L824.812 220.558L793.126 238.843L824.812 257.122L856.492 238.843Z" stroke="#D6D5F3" stroke-miterlimit="10"/>
<path d="M761.44 293.686V257.122L729.754 238.843V275.407L761.44 293.686Z" stroke="#D6D5F3" stroke-miterlimit="10"/>
<path d="M729.753 238.843L698.066 257.122V293.686L729.753 275.407V238.843Z" stroke="#D6D5F3" stroke-miterlimit="10"/>
<path d="M729.753 311.965L761.439 293.686L729.753 275.407L698.066 293.686" stroke="#D6D5F3" stroke-miterlimit="10"/>
<path d="M698.065 293.686V257.122L666.385 238.843" stroke="#D6D5F3" stroke-miterlimit="10"/>
<path d="M698.066 293.686L666.386 275.407L634.7 293.686L666.386 311.965L698.066 293.686Z" stroke="#D6D5F3" stroke-miterlimit="10"/>
<path d="M793.125 238.843V202.279L761.439 184V220.558L793.125 238.843Z" stroke="#D6D5F3" stroke-miterlimit="10"/>
<path d="M761.44 184L729.754 202.279V238.843L761.44 220.558V184Z" stroke="#D6D5F3" stroke-miterlimit="10"/>
<path d="M793.126 238.843L761.44 220.558L729.754 238.843L761.44 257.122L793.126 238.843Z" stroke="#D6D5F3" stroke-miterlimit="10"/>
<path d="M729.753 238.843V202.279L698.066 184V220.558L729.753 238.843Z" stroke="#D6D5F3" stroke-miterlimit="10"/>
<path d="M666.385 238.843L698.065 257.122L729.751 238.843" stroke="#D6D5F3" stroke-miterlimit="10"/>
<path d="M603.012 458.221V421.657L571.325 403.378V439.936L603.012 458.221Z" stroke="#D6D5F3" stroke-miterlimit="10"/>
<path d="M571.328 403.378L539.642 421.657V458.221L571.328 439.936V403.378Z" stroke="#D6D5F3" stroke-miterlimit="10"/>
<path d="M603.014 458.222L571.328 439.937L539.642 458.222L571.328 476.501L603.014 458.222Z" stroke="#D6D5F3" stroke-miterlimit="10"/>
<path d="M634.701 439.937L603.014 458.222V494.786" stroke="#D6D5F3" stroke-miterlimit="10"/>
<path d="M349.535 348.529V311.965L317.849 293.686V330.25L349.535 348.529Z" stroke="#D6D5F3" stroke-miterlimit="10"/>
<path d="M317.85 293.686L286.164 311.965V348.529L317.85 330.25V293.686Z" stroke="#D6D5F3" stroke-miterlimit="10"/>
<path d="M349.536 348.529L317.85 330.25L286.164 348.529L317.85 366.814L349.536 348.529Z" stroke="#D6D5F3" stroke-miterlimit="10"/>
<path d="M286.165 348.529V311.965L254.478 293.686V330.25L286.165 348.529Z" stroke="#D6D5F3" stroke-miterlimit="10"/>
<path d="M254.479 330.25V293.686L222.799 311.965" stroke="#D6D5F3" stroke-miterlimit="10"/>
<path d="M254.478 366.814L286.165 348.529L254.478 330.25" stroke="#D6D5F3" stroke-miterlimit="10"/>
<path d="M286.164 275.407L317.85 293.686V257.122" stroke="#D6D5F3" stroke-miterlimit="10"/>
<path d="M317.851 293.686L286.165 275.407L254.478 293.686L286.165 311.965L317.851 293.686Z" stroke="#D6D5F3" stroke-miterlimit="10"/>
<path d="M833.274 713.786V677.222L801.588 695.507" stroke="#D6D5F3" stroke-miterlimit="10"/>
<path d="M801.587 732.065V695.507L769.901 677.222V713.786L801.587 732.065Z" stroke="#D6D5F3" stroke-miterlimit="10"/>
<path d="M738.218 732.065L769.904 713.786V677.222" stroke="#D6D5F3" stroke-miterlimit="10"/>
<path d="M801.59 732.065L769.904 713.786L738.218 732.065" stroke="#D6D5F3" stroke-miterlimit="10"/>
<path d="M864.961 695.507L896.642 677.221V640.657L864.961 622.378L833.275 640.657V677.221L864.961 695.507Z" stroke="#D6D5F3" stroke-miterlimit="10"/>
<path d="M833.274 677.221V640.657L801.588 622.378V658.942L833.274 677.221Z" stroke="#D6D5F3" stroke-miterlimit="10"/>
<path d="M801.587 622.378L769.901 640.657V677.221L801.587 658.942V622.378Z" stroke="#D6D5F3" stroke-miterlimit="10"/>
<path d="M833.273 677.221L801.587 658.942L769.901 677.221L801.587 695.506L833.273 677.221Z" stroke="#D6D5F3" stroke-miterlimit="10"/>
<path d="M643.164 677.222V713.786L674.85 732.065" stroke="#D6D5F3" stroke-miterlimit="10"/>
<path d="M643.165 677.222L611.478 695.507V732.065L643.165 713.786V677.222Z" stroke="#D6D5F3" stroke-miterlimit="10"/>
<path d="M769.904 677.221V640.657L738.218 622.378V658.942L769.904 677.221Z" stroke="#D6D5F3" stroke-miterlimit="10"/>
<path d="M738.216 622.378L706.536 640.657V677.221L738.216 658.942V622.378Z" stroke="#D6D5F3" stroke-miterlimit="10"/>
<path d="M769.902 677.221L738.216 658.942L706.536 677.221L738.216 695.506L769.902 677.221Z" stroke="#D6D5F3" stroke-miterlimit="10"/>
<path d="M706.535 677.221V640.657L674.849 622.378V658.942L706.535 677.221Z" stroke="#D6D5F3" stroke-miterlimit="10"/>
<path d="M643.164 677.221L674.85 658.942V622.378L643.164 640.657" stroke="#D6D5F3" stroke-miterlimit="10"/>
<path d="M706.536 677.221L674.85 658.942L643.164 677.221L674.85 695.506L706.536 677.221Z" stroke="#D6D5F3" stroke-miterlimit="10"/>
<path d="M928.328 622.378V585.814L896.642 567.535V604.099L928.328 622.378Z" stroke="#D6D5F3" stroke-miterlimit="10"/>
<path d="M896.642 567.535L864.962 585.814V622.378L896.642 604.099V567.535Z" stroke="#D6D5F3" stroke-miterlimit="10"/>
<path d="M928.329 622.379L896.642 604.1L864.962 622.379L896.642 640.657L928.329 622.379Z" stroke="#D6D5F3" stroke-miterlimit="10"/>
<path d="M864.961 622.378V585.814L833.275 567.535V604.099L864.961 622.378Z" stroke="#D6D5F3" stroke-miterlimit="10"/>
<path d="M833.274 567.535L801.588 585.814V622.378L833.274 604.099V567.535Z" stroke="#D6D5F3" stroke-miterlimit="10"/>
<path d="M864.961 622.379L833.274 604.1L801.588 622.379L833.274 640.657L864.961 622.379Z" stroke="#D6D5F3" stroke-miterlimit="10"/>
<path d="M960.012 567.535V530.971L928.325 512.692" stroke="#D6D5F3" stroke-miterlimit="10"/>
<path d="M960.015 567.536L928.328 549.25L896.642 567.536L928.328 585.815L960.015 567.536Z" stroke="#D6D5F3" stroke-miterlimit="10"/>
<path d="M801.587 622.378V585.814L769.901 567.535V604.099L801.587 622.378Z" stroke="#D6D5F3" stroke-miterlimit="10"/>
<path d="M769.904 567.535L738.218 585.814V622.378L769.904 604.099V567.535Z" stroke="#D6D5F3" stroke-miterlimit="10"/>
<path d="M801.59 622.379L769.904 604.1L738.218 622.379L769.904 640.657L801.59 622.379Z" stroke="#D6D5F3" stroke-miterlimit="10"/>
<path d="M706.535 640.657L738.215 622.378V585.814L706.535 567.535L674.849 585.814V622.378L706.535 640.657Z" stroke="#D6D5F3" stroke-miterlimit="10"/>
<path d="M833.273 567.536L801.587 549.25L769.901 567.536L801.587 585.815L833.273 567.536Z" stroke="#D6D5F3" stroke-miterlimit="10"/>
<path d="M738.216 512.692L706.536 530.971V567.535L738.216 549.25V512.692Z" stroke="#D6D5F3" stroke-miterlimit="10"/>
<path d="M769.902 567.536L738.216 549.25L706.536 567.536L738.216 585.815L769.902 567.536Z" stroke="#D6D5F3" stroke-miterlimit="10"/>
<path d="M548.113 841.757V805.193L516.426 786.914V823.478L548.113 841.757Z" stroke="#D6D5F3" stroke-miterlimit="10"/>
<path d="M516.425 786.914L484.739 805.193V841.757L516.425 823.478V786.914Z" stroke="#D6D5F3" stroke-miterlimit="10"/>
<path d="M548.112 841.757L516.425 823.478L484.739 841.757L516.425 860.036L548.112 841.757Z" stroke="#D6D5F3" stroke-miterlimit="10"/>
<path d="M484.738 841.757V805.193L453.052 786.914V823.478L484.738 841.757Z" stroke="#D6D5F3" stroke-miterlimit="10"/>
<path d="M453.053 786.914L421.367 805.193V841.757L453.053 823.478V786.914Z" stroke="#D6D5F3" stroke-miterlimit="10"/>
<path d="M484.739 841.757L453.053 823.478L421.367 841.757L453.053 860.036L484.739 841.757Z" stroke="#D6D5F3" stroke-miterlimit="10"/>
<path d="M579.79 786.914V750.35L548.11 732.065V768.629L579.79 786.914Z" stroke="#D6D5F3" stroke-miterlimit="10"/>
<path d="M548.113 732.065L516.426 750.35V786.914L548.113 768.629V732.065Z" stroke="#D6D5F3" stroke-miterlimit="10"/>
<path d="M579.793 786.914L548.113 768.629L516.426 786.914L548.113 805.193L579.793 786.914Z" stroke="#D6D5F3" stroke-miterlimit="10"/>
<path d="M516.425 786.914V750.35L484.739 732.065V768.629L516.425 786.914Z" stroke="#D6D5F3" stroke-miterlimit="10"/>
<path d="M484.738 732.065L453.052 750.35V786.914L484.738 768.629V732.065Z" stroke="#D6D5F3" stroke-miterlimit="10"/>
<path d="M516.424 786.914L484.738 768.629L453.052 786.914L484.738 805.193L516.424 786.914Z" stroke="#D6D5F3" stroke-miterlimit="10"/>
<path d="M421.367 841.757V805.193L389.687 786.914V823.478L421.367 841.757Z" stroke="#D6D5F3" stroke-miterlimit="10"/>
<path d="M453.053 786.914V750.35L421.367 732.065V768.629L453.053 786.914Z" stroke="#D6D5F3" stroke-miterlimit="10"/>
<path d="M421.367 732.065L389.687 750.35V786.914L421.367 768.629V732.065Z" stroke="#D6D5F3" stroke-miterlimit="10"/>
<path d="M453.053 786.914L421.367 768.629L389.687 786.914L421.367 805.193L453.053 786.914Z" stroke="#D6D5F3" stroke-miterlimit="10"/>
<path d="M389.686 786.914V750.35L358 732.065V768.629L389.686 786.914Z" stroke="#D6D5F3" stroke-miterlimit="10"/>
<path d="M611.478 732.065V695.507L579.791 677.222V713.786L611.478 732.065Z" stroke="#D6D5F3" stroke-miterlimit="10"/>
<path d="M579.79 677.222L548.11 695.507V732.065L579.79 713.786V677.222Z" stroke="#D6D5F3" stroke-miterlimit="10"/>
<path d="M611.476 732.065L579.79 713.786L548.11 732.065L579.79 750.35L611.476 732.065Z" stroke="#D6D5F3" stroke-miterlimit="10"/>
<path d="M516.425 750.35L548.112 732.065V695.507L516.425 677.222L484.739 695.507V732.065L516.425 750.35Z" stroke="#D6D5F3" stroke-miterlimit="10"/>
<path d="M643.165 640.657L611.478 622.378V658.942L643.165 677.221" stroke="#D6D5F3" stroke-miterlimit="10"/>
<path d="M611.478 622.378L579.791 640.657V677.221L611.478 658.942V622.378Z" stroke="#D6D5F3" stroke-miterlimit="10"/>
<path d="M643.164 677.221L611.478 658.942L579.791 677.221L611.478 695.506L643.164 677.221Z" stroke="#D6D5F3" stroke-miterlimit="10"/>
<path d="M674.85 622.378V585.814L643.164 567.535V604.099L674.85 622.378Z" stroke="#D6D5F3" stroke-miterlimit="10"/>
<path d="M643.165 567.535L611.478 585.814V622.378L643.165 604.099V567.535Z" stroke="#D6D5F3" stroke-miterlimit="10"/>
<path d="M674.851 622.379L643.165 604.1L611.478 622.379L643.165 640.657L674.851 622.379Z" stroke="#D6D5F3" stroke-miterlimit="10"/>
<path d="M548.113 622.378L516.426 640.657V677.221" stroke="#D6D5F3" stroke-miterlimit="10"/>
<path d="M484.738 732.065V695.507L453.052 677.222V713.786L484.738 732.065Z" stroke="#D6D5F3" stroke-miterlimit="10"/>
<path d="M453.053 677.222L421.367 695.507V732.065L453.053 713.786V677.222Z" stroke="#D6D5F3" stroke-miterlimit="10"/>
<path d="M484.739 732.065L453.053 713.786L421.367 732.065L453.053 750.35L484.739 732.065Z" stroke="#D6D5F3" stroke-miterlimit="10"/>
<path d="M421.367 732.065V695.507L389.687 677.222V713.786L421.367 732.065Z" stroke="#D6D5F3" stroke-miterlimit="10"/>
<path d="M389.686 677.222L358 695.507V732.065L389.686 713.786V677.222Z" stroke="#D6D5F3" stroke-miterlimit="10"/>
<path d="M421.366 732.065L389.686 713.786L358 732.065L389.686 750.35L421.366 732.065Z" stroke="#D6D5F3" stroke-miterlimit="10"/>
<path d="M516.425 677.221V640.657L484.739 622.378V658.942L516.425 677.221Z" stroke="#D6D5F3" stroke-miterlimit="10"/>
<path d="M484.738 622.378L453.052 640.657V677.221L484.738 658.942V622.378Z" stroke="#D6D5F3" stroke-miterlimit="10"/>
<path d="M516.424 677.221L484.738 658.942L453.052 677.221L484.738 695.506L516.424 677.221Z" stroke="#D6D5F3" stroke-miterlimit="10"/>
<path d="M1181.8 512.692L1150.12 530.971V567.535L1181.8 549.25V512.692Z" stroke="#D6D5F3" stroke-miterlimit="10"/>
<path d="M1150.13 567.535V530.971L1118.44 512.692V549.25L1150.13 567.535Z" stroke="#D6D5F3" stroke-miterlimit="10"/>
<path d="M1118.44 512.692L1086.75 530.971V567.535L1118.44 549.25V512.692Z" stroke="#D6D5F3" stroke-miterlimit="10"/>
<path d="M1118.44 549.25L1086.75 567.536L1118.44 585.815" stroke="#D6D5F3" stroke-miterlimit="10"/>
<path d="M1055.07 622.378V585.814L1023.39 567.535V604.099L1055.07 622.378Z" stroke="#D6D5F3" stroke-miterlimit="10"/>
<path d="M1023.39 567.535L991.702 585.814V622.378L1023.39 604.099V567.535Z" stroke="#D6D5F3" stroke-miterlimit="10"/>
<path d="M1055.07 622.379L1023.39 604.1L991.702 622.379L1023.39 640.657L1055.07 622.379Z" stroke="#D6D5F3" stroke-miterlimit="10"/>
<path d="M991.701 622.378V585.814L960.014 567.535V604.099L991.701 622.378Z" stroke="#D6D5F3" stroke-miterlimit="10"/>
<path d="M960.012 567.535L928.325 585.814V622.378L960.012 604.099V567.535Z" stroke="#D6D5F3" stroke-miterlimit="10"/>
<path d="M991.698 622.379L960.012 604.1L928.325 622.379L960.012 640.657L991.698 622.379Z" stroke="#D6D5F3" stroke-miterlimit="10"/>
<path d="M1055.07 512.692V549.25L1086.75 567.535V530.971" stroke="#D6D5F3" stroke-miterlimit="10"/>
<path d="M1055.07 512.692L1023.39 530.971V567.535L1055.07 549.25V512.692Z" stroke="#D6D5F3" stroke-miterlimit="10"/>
<path d="M1086.75 567.536L1055.07 549.25L1023.39 567.536L1055.07 585.815L1086.75 567.536Z" stroke="#D6D5F3" stroke-miterlimit="10"/>
<path d="M1023.39 567.535V530.971L991.702 512.692V549.25L1023.39 567.535Z" stroke="#D6D5F3" stroke-miterlimit="10"/>
<path d="M991.701 512.692L960.014 530.971V567.535L991.701 549.25V512.692Z" stroke="#D6D5F3" stroke-miterlimit="10"/>
<path d="M1023.39 567.536L991.701 549.25L960.014 567.536L991.701 585.815L1023.39 567.536Z" stroke="#D6D5F3" stroke-miterlimit="10"/>
<path d="M1245.18 512.693V476.128L1213.49 457.843V494.407L1245.18 512.693Z" stroke="#D6D5F3" stroke-miterlimit="10"/>
<path d="M1213.49 457.843L1181.81 476.128V512.693L1213.49 494.407V457.843Z" stroke="#D6D5F3" stroke-miterlimit="10"/>
<path d="M1245.18 512.692L1213.49 494.407L1181.81 512.692L1213.49 530.971L1245.18 512.692Z" stroke="#D6D5F3" stroke-miterlimit="10"/>
<path d="M1181.8 512.693V476.128L1150.12 457.843V494.407L1181.8 512.693Z" stroke="#D6D5F3" stroke-miterlimit="10"/>
<path d="M1150.13 457.843L1118.44 476.128V512.693L1150.13 494.407V457.843Z" stroke="#D6D5F3" stroke-miterlimit="10"/>
<path d="M1181.81 512.692L1150.13 494.407L1118.44 512.692L1150.13 530.971L1181.81 512.692Z" stroke="#D6D5F3" stroke-miterlimit="10"/>
<path d="M1276.86 457.843V421.279L1245.18 403V439.564L1276.86 457.843Z" stroke="#D6D5F3" stroke-miterlimit="10"/>
<path d="M1245.18 403L1213.49 421.279V457.843L1245.18 439.564V403Z" stroke="#D6D5F3" stroke-miterlimit="10"/>
<path d="M1276.86 457.843L1245.18 439.564L1213.49 457.843L1245.18 476.128L1276.86 457.843Z" stroke="#D6D5F3" stroke-miterlimit="10"/>
<path d="M1213.49 457.843V421.279L1181.81 403V439.564L1213.49 457.843Z" stroke="#D6D5F3" stroke-miterlimit="10"/>
<path d="M1181.8 403L1150.12 421.279V457.843L1181.8 439.564V403Z" stroke="#D6D5F3" stroke-miterlimit="10"/>
<path d="M1213.49 457.843L1181.8 439.564L1150.12 457.843L1181.8 476.128L1213.49 457.843Z" stroke="#D6D5F3" stroke-miterlimit="10"/>
<path d="M1118.44 512.693V476.128L1086.75 457.843V494.407L1118.44 512.693Z" stroke="#D6D5F3" stroke-miterlimit="10"/>
<path d="M1086.75 457.843L1055.07 476.128V512.693L1086.75 494.407V457.843Z" stroke="#D6D5F3" stroke-miterlimit="10"/>
<path d="M1086.75 530.971L1118.44 512.692L1086.75 494.407L1055.07 512.692" stroke="#D6D5F3" stroke-miterlimit="10"/>
<path d="M1055.07 512.693V476.128L1023.39 457.843" stroke="#D6D5F3" stroke-miterlimit="10"/>
<path d="M1055.07 512.692L1023.39 494.407L991.702 512.692L1023.39 530.971L1055.07 512.692Z" stroke="#D6D5F3" stroke-miterlimit="10"/>
<path d="M1150.13 457.843V421.279L1118.44 403V439.564L1150.13 457.843Z" stroke="#D6D5F3" stroke-miterlimit="10"/>
<path d="M1118.44 403L1086.75 421.279V457.843L1118.44 439.564V403Z" stroke="#D6D5F3" stroke-miterlimit="10"/>
<path d="M1150.13 457.843L1118.44 439.564L1086.75 457.843L1118.44 476.128L1150.13 457.843Z" stroke="#D6D5F3" stroke-miterlimit="10"/>
<path d="M1086.75 457.843V421.279L1055.07 403V439.564L1086.75 457.843Z" stroke="#D6D5F3" stroke-miterlimit="10"/>
<path d="M1023.39 457.843L1055.07 476.128L1086.75 457.843" stroke="#D6D5F3" stroke-miterlimit="10"/>
<path d="M960.012 677.221V640.657L928.325 622.378V658.942L960.012 677.221Z" stroke="#D6D5F3" stroke-miterlimit="10"/>
<path d="M928.328 622.378L896.642 640.657V677.221L928.328 658.942V622.378Z" stroke="#D6D5F3" stroke-miterlimit="10"/>
<path d="M960.015 677.221L928.328 658.942L896.642 677.221L928.328 695.506L960.015 677.221Z" stroke="#D6D5F3" stroke-miterlimit="10"/>
<path d="M991.701 658.942L960.014 677.221V713.785" stroke="#D6D5F3" stroke-miterlimit="10"/>
<path d="M706.535 567.535V530.971L674.849 512.692V549.25L706.535 567.535Z" stroke="#D6D5F3" stroke-miterlimit="10"/>
<path d="M674.85 512.692L643.164 530.971V567.535L674.85 549.25V512.692Z" stroke="#D6D5F3" stroke-miterlimit="10"/>
<path d="M706.536 567.536L674.85 549.25L643.164 567.536L674.85 585.815L706.536 567.536Z" stroke="#D6D5F3" stroke-miterlimit="10"/>
<path d="M643.165 567.535V530.971L611.478 512.692V549.25L643.165 567.535Z" stroke="#D6D5F3" stroke-miterlimit="10"/>
<path d="M611.478 549.25V512.692L579.791 530.971" stroke="#D6D5F3" stroke-miterlimit="10"/>
<path d="M611.478 585.815L643.165 567.536L611.478 549.25" stroke="#D6D5F3" stroke-miterlimit="10"/>
<path d="M643.164 494.407L674.85 512.692V476.128" stroke="#D6D5F3" stroke-miterlimit="10"/>
<path d="M674.851 512.692L643.165 494.407L611.478 512.692L643.165 530.971L674.851 512.692Z" stroke="#D6D5F3" stroke-miterlimit="10"/>
<path d="M1213.9 238.663L1245.58 220.378V183.82L1213.9 202.099V238.663Z" fill="#D6D5F3"/>
<path d="M1245.58 183.82L1277.27 202.099L1308.96 183.82L1277.27 165.535L1245.58 183.82Z" fill="#D6D5F3"/>
<path d="M1435.69 183.82L1467.38 165.535V128.971L1435.69 147.256V183.82Z" fill="#D6D5F3"/>
<path d="M1308.96 183.82L1340.65 202.099L1372.33 183.82L1340.65 165.535L1308.96 183.82Z" fill="#D6D5F3"/>
<path d="M1372.32 183.82V220.378L1404.01 238.663V202.099L1372.32 183.82Z" fill="#D6D5F3"/>
<path d="M1150.53 238.664V275.228L1182.22 293.507V256.943L1150.53 238.664Z" fill="#D6D5F3"/>
<path d="M1245.58 293.507L1277.27 275.228V238.664L1245.58 256.943V293.507Z" fill="#D6D5F3"/>
<path d="M1277.27 238.664L1308.96 256.942L1340.64 238.664L1308.96 220.378L1277.27 238.664Z" fill="#D6D5F3"/>
<path d="M1340.64 238.664V275.228L1372.32 293.507V256.943L1340.64 238.664Z" fill="#D6D5F3"/>
<path d="M1245.58 293.506V330.07L1277.27 348.349V311.785L1245.58 293.506Z" fill="#D6D5F3"/>
<path d="M1308.96 293.506V330.07L1340.65 348.349V311.785L1308.96 293.506Z" fill="#D6D5F3"/>
<path d="M1499.07 74.1281L1530.75 92.4132L1562.44 74.1281L1530.75 55.8491L1499.07 74.1281Z" fill="#D6D5F3"/>
<path d="M1562.43 74.1279V110.692L1594.12 128.971V92.4131L1562.43 74.1279Z" fill="#D6D5F3"/>
<path d="M1467.38 128.971L1499.07 147.256L1530.75 128.971L1499.07 110.692L1467.38 128.971Z" fill="#D6D5F3"/>
<path d="M1562.43 183.82L1594.12 165.535V128.971L1562.43 147.256V183.82Z" fill="#D6D5F3"/>
<path d="M1467.38 238.663L1499.07 220.378V183.82L1467.38 202.099V238.663Z" fill="#D6D5F3"/>
<path d="M1499.07 183.82L1530.75 202.099L1562.44 183.82L1530.75 165.535L1499.07 183.82Z" fill="#D6D5F3"/>
<path d="M1594.12 238.663L1625.81 220.378V183.82L1594.12 202.099V238.663Z" fill="#D6D5F3"/>
<path d="M1023.79 238.664V275.228L1055.47 293.507V256.943L1023.79 238.664Z" fill="#D6D5F3"/>
<path d="M1087.16 238.664V275.228L1118.84 293.507V256.943L1087.16 238.664Z" fill="#D6D5F3"/>
<path d="M1023.79 348.349L1055.47 330.07V293.506L1023.79 311.785V348.349Z" fill="#D6D5F3"/>
<path d="M1087.16 348.349L1118.84 330.07V293.506L1087.16 311.785V348.349Z" fill="#D6D5F3"/>
<path d="M897.049 348.35L928.735 366.635L960.421 348.35L928.735 330.071L897.049 348.35Z" fill="#D6D5F3"/>
<path d="M960.421 348.35L992.108 366.635L1023.79 348.35L992.108 330.071L960.421 348.35Z" fill="#D6D5F3"/>
<path d="M928.736 403.199L960.422 421.478L992.108 403.199L960.422 384.914L928.736 403.199Z" fill="#D6D5F3"/>
<path d="M1118.85 183.82V220.378L1150.53 238.663V202.099L1118.85 183.82Z" fill="#D6D5F3"/>
<path d="M1372.32 293.506V330.07L1404.01 348.349V311.785L1372.32 293.506Z" fill="#D6D5F3"/>
<path d="M1372.32 293.507L1404.01 311.785L1435.7 293.507L1404.01 275.228L1372.32 293.507Z" fill="#D6D5F3"/>
<path d="M1435.69 293.507L1467.38 311.785L1499.07 293.507L1467.38 275.228L1435.69 293.507Z" fill="#D6D5F3"/>
<path d="M1404.01 348.35L1435.7 366.635L1467.38 348.35L1435.7 330.071L1404.01 348.35Z" fill="#D6D5F3"/>
<path d="M1245.59 147.256V183.82L1277.27 165.535" stroke="#D6D5F3" stroke-miterlimit="10"/>
<path d="M1277.28 128.971V165.535L1308.96 183.82V147.256L1277.28 128.971Z" stroke="#D6D5F3" stroke-miterlimit="10"/>
<path d="M1340.65 128.971L1308.96 147.256V183.82" stroke="#D6D5F3" stroke-miterlimit="10"/>
<path d="M1277.28 128.971L1308.96 147.256L1340.65 128.971" stroke="#D6D5F3" stroke-miterlimit="10"/>
<path d="M1213.9 165.535L1182.22 183.82V220.378L1213.9 238.663L1245.59 220.378V183.82L1213.9 165.535Z" stroke="#D6D5F3" stroke-miterlimit="10"/>
<path d="M1245.59 183.82V220.378L1277.27 238.663V202.099L1245.59 183.82Z" stroke="#D6D5F3" stroke-miterlimit="10"/>
<path d="M1277.28 238.663L1308.96 220.378V183.82L1277.28 202.099V238.663Z" stroke="#D6D5F3" stroke-miterlimit="10"/>
<path d="M1245.59 183.82L1277.27 202.099L1308.96 183.82L1277.27 165.535L1245.59 183.82Z" stroke="#D6D5F3" stroke-miterlimit="10"/>
<path d="M1435.7 183.82V147.256L1404.01 128.971" stroke="#D6D5F3" stroke-miterlimit="10"/>
<path d="M1435.7 183.82L1467.39 165.535V128.971L1435.7 147.256V183.82Z" stroke="#D6D5F3" stroke-miterlimit="10"/>
<path d="M1308.96 183.82V220.378L1340.65 238.663V202.099L1308.96 183.82Z" stroke="#D6D5F3" stroke-miterlimit="10"/>
<path d="M1340.65 238.663L1372.33 220.378V183.82L1340.65 202.099V238.663Z" stroke="#D6D5F3" stroke-miterlimit="10"/>
<path d="M1308.96 183.82L1340.65 202.099L1372.33 183.82L1340.65 165.535L1308.96 183.82Z" stroke="#D6D5F3" stroke-miterlimit="10"/>
<path d="M1372.33 183.82V220.378L1404.01 238.663V202.099L1372.33 183.82Z" stroke="#D6D5F3" stroke-miterlimit="10"/>
<path d="M1435.7 183.82L1404.01 202.099V238.663L1435.7 220.378" stroke="#D6D5F3" stroke-miterlimit="10"/>
<path d="M1372.33 183.82L1404.01 202.099L1435.7 183.82L1404.01 165.535L1372.33 183.82Z" stroke="#D6D5F3" stroke-miterlimit="10"/>
<path d="M1150.54 238.664V275.228L1182.22 293.507V256.943L1150.54 238.664Z" stroke="#D6D5F3" stroke-miterlimit="10"/>
<path d="M1182.22 293.507L1213.9 275.228V238.664L1182.22 256.943V293.507Z" stroke="#D6D5F3" stroke-miterlimit="10"/>
<path d="M1150.54 238.664L1182.22 256.942L1213.9 238.664L1182.22 220.378L1150.54 238.664Z" stroke="#D6D5F3" stroke-miterlimit="10"/>
<path d="M1213.9 238.664V275.228L1245.59 293.507V256.943L1213.9 238.664Z" stroke="#D6D5F3" stroke-miterlimit="10"/>
<path d="M1245.59 293.507L1277.27 275.228V238.664L1245.59 256.943V293.507Z" stroke="#D6D5F3" stroke-miterlimit="10"/>
<path d="M1213.9 238.664L1245.59 256.942L1277.27 238.664L1245.59 220.378L1213.9 238.664Z" stroke="#D6D5F3" stroke-miterlimit="10"/>
<path d="M1118.85 293.506V330.07L1150.54 348.349" stroke="#D6D5F3" stroke-miterlimit="10"/>
<path d="M1118.85 293.507L1150.54 311.785L1182.22 293.507L1150.54 275.228L1118.85 293.507Z" stroke="#D6D5F3" stroke-miterlimit="10"/>
<path d="M1277.28 238.664V275.228L1308.96 293.507V256.943L1277.28 238.664Z" stroke="#D6D5F3" stroke-miterlimit="10"/>
<path d="M1308.96 293.507L1340.65 275.228V238.664L1308.96 256.943V293.507Z" stroke="#D6D5F3" stroke-miterlimit="10"/>
<path d="M1277.28 238.664L1308.96 256.942L1340.65 238.664L1308.96 220.378L1277.28 238.664Z" stroke="#D6D5F3" stroke-miterlimit="10"/>
<path d="M1372.33 220.378L1340.65 238.664V275.228L1372.33 293.507L1404.01 275.228V238.664L1372.33 220.378Z" stroke="#D6D5F3" stroke-miterlimit="10"/>
<path d="M1245.59 293.506V330.07L1277.27 348.349V311.785L1245.59 293.506Z" stroke="#D6D5F3" stroke-miterlimit="10"/>
<path d="M1277.28 348.349L1308.96 330.07V293.506L1277.28 311.785V348.349Z" stroke="#D6D5F3" stroke-miterlimit="10"/>
<path d="M1245.59 293.507L1277.27 311.785L1308.96 293.507L1277.27 275.228L1245.59 293.507Z" stroke="#D6D5F3" stroke-miterlimit="10"/>
<path d="M1277.28 348.35V384.914L1308.96 403.199" stroke="#D6D5F3" stroke-miterlimit="10"/>
<path d="M1277.28 348.35L1308.96 366.635L1340.65 348.35L1308.96 330.071L1277.28 348.35Z" stroke="#D6D5F3" stroke-miterlimit="10"/>
<path d="M1308.96 293.506V330.07L1340.65 348.349V311.785L1308.96 293.506Z" stroke="#D6D5F3" stroke-miterlimit="10"/>
<path d="M1340.65 348.349L1372.33 330.07V293.506L1340.65 311.785V348.349Z" stroke="#D6D5F3" stroke-miterlimit="10"/>
<path d="M1308.96 293.507L1340.65 311.785L1372.33 293.507L1340.65 275.228L1308.96 293.507Z" stroke="#D6D5F3" stroke-miterlimit="10"/>
<path d="M1530.75 19.2852V55.8493L1562.44 74.1282V37.5641L1530.75 19.2852Z" stroke="#D6D5F3" stroke-miterlimit="10"/>
<path d="M1562.44 74.1282L1594.13 55.8493V19.2852L1562.44 37.5641V74.1282Z" stroke="#D6D5F3" stroke-miterlimit="10"/>
<path d="M1530.75 19.2851L1562.44 37.5641L1594.13 19.2851L1562.44 1L1530.75 19.2851Z" stroke="#D6D5F3" stroke-miterlimit="10"/>
<path d="M1594.12 19.2852V55.8493L1625.81 74.1282V37.5641L1594.12 19.2852Z" stroke="#D6D5F3" stroke-miterlimit="10"/>
<path d="M1625.81 74.1282L1657.49 55.8493V19.2852L1625.81 37.5641V74.1282Z" stroke="#D6D5F3" stroke-miterlimit="10"/>
<path d="M1594.12 19.2851L1625.81 37.5641L1657.49 19.2851L1625.81 1L1594.12 19.2851Z" stroke="#D6D5F3" stroke-miterlimit="10"/>
<path d="M1499.07 74.1279V110.692L1530.75 128.971V92.4131L1499.07 74.1279Z" stroke="#D6D5F3" stroke-miterlimit="10"/>
<path d="M1530.75 128.971L1562.44 110.692V74.1279L1530.75 92.4131V128.971Z" stroke="#D6D5F3" stroke-miterlimit="10"/>
<path d="M1499.07 74.1281L1530.75 92.4132L1562.44 74.1281L1530.75 55.8491L1499.07 74.1281Z" stroke="#D6D5F3" stroke-miterlimit="10"/>
<path d="M1562.44 74.1279V110.692L1594.13 128.971V92.4131L1562.44 74.1279Z" stroke="#D6D5F3" stroke-miterlimit="10"/>
<path d="M1594.12 128.971L1625.81 110.692V74.1279L1594.12 92.4131V128.971Z" stroke="#D6D5F3" stroke-miterlimit="10"/>
<path d="M1562.44 74.1281L1594.13 92.4132L1625.81 74.1281L1594.13 55.8491L1562.44 74.1281Z" stroke="#D6D5F3" stroke-miterlimit="10"/>
<path d="M1657.49 19.2852V55.8493L1689.18 74.1282V37.5641L1657.49 19.2852Z" stroke="#D6D5F3" stroke-miterlimit="10"/>
<path d="M1625.81 74.1279V110.692L1657.49 128.971V92.4131L1625.81 74.1279Z" stroke="#D6D5F3" stroke-miterlimit="10"/>
<path d="M1657.49 128.971L1689.18 110.692V74.1279L1657.49 92.4131V128.971Z" stroke="#D6D5F3" stroke-miterlimit="10"/>
<path d="M1625.81 74.1281L1657.49 92.4132L1689.18 74.1281L1657.49 55.8491L1625.81 74.1281Z" stroke="#D6D5F3" stroke-miterlimit="10"/>
<path d="M1689.18 74.1279V110.692L1720.86 128.971V92.4131L1689.18 74.1279Z" stroke="#D6D5F3" stroke-miterlimit="10"/>
<path d="M1467.39 128.971V165.535L1499.07 183.82V147.256L1467.39 128.971Z" stroke="#D6D5F3" stroke-miterlimit="10"/>
<path d="M1499.07 183.82L1530.75 165.535V128.971L1499.07 147.256V183.82Z" stroke="#D6D5F3" stroke-miterlimit="10"/>
<path d="M1467.39 128.971L1499.07 147.256L1530.75 128.971L1499.07 110.692L1467.39 128.971Z" stroke="#D6D5F3" stroke-miterlimit="10"/>
<path d="M1562.44 110.692L1530.75 128.971V165.535L1562.44 183.821L1594.13 165.535V128.971L1562.44 110.692Z" stroke="#D6D5F3" stroke-miterlimit="10"/>
<path d="M1435.7 220.378L1467.39 238.663V202.099L1435.7 183.82" stroke="#D6D5F3" stroke-miterlimit="10"/>
<path d="M1467.39 238.663L1499.07 220.378V183.82L1467.39 202.099V238.663Z" stroke="#D6D5F3" stroke-miterlimit="10"/>
<path d="M1435.7 183.82L1467.39 202.099L1499.07 183.82L1467.39 165.535L1435.7 183.82Z" stroke="#D6D5F3" stroke-miterlimit="10"/>
<path d="M1404.01 238.664V275.228L1435.7 293.507V256.943L1404.01 238.664Z" stroke="#D6D5F3" stroke-miterlimit="10"/>
<path d="M1435.7 293.507L1467.39 275.228V238.664L1435.7 256.943V293.507Z" stroke="#D6D5F3" stroke-miterlimit="10"/>
<path d="M1404.01 238.664L1435.7 256.942L1467.39 238.664L1435.7 220.378L1404.01 238.664Z" stroke="#D6D5F3" stroke-miterlimit="10"/>
<path d="M1530.75 238.663L1562.44 220.378V183.82" stroke="#D6D5F3" stroke-miterlimit="10"/>
<path d="M1594.12 128.971V165.535L1625.81 183.82V147.256L1594.12 128.971Z" stroke="#D6D5F3" stroke-miterlimit="10"/>
<path d="M1625.81 183.82L1657.49 165.535V128.971L1625.81 147.256V183.82Z" stroke="#D6D5F3" stroke-miterlimit="10"/>
<path d="M1594.12 128.971L1625.81 147.256L1657.49 128.971L1625.81 110.692L1594.12 128.971Z" stroke="#D6D5F3" stroke-miterlimit="10"/>
<path d="M1657.49 128.971V165.535L1689.18 183.82V147.256L1657.49 128.971Z" stroke="#D6D5F3" stroke-miterlimit="10"/>
<path d="M1689.18 183.82L1720.86 165.535V128.971L1689.18 147.256V183.82Z" stroke="#D6D5F3" stroke-miterlimit="10"/>
<path d="M1625.81 256.942V220.378" stroke="#D6D5F3" stroke-miterlimit="10"/>
<path d="M1657.49 128.971L1689.18 147.256L1720.86 128.971L1689.18 110.692L1657.49 128.971Z" stroke="#D6D5F3" stroke-miterlimit="10"/>
<path d="M1562.44 183.82V220.378L1594.13 238.663V202.099L1562.44 183.82Z" stroke="#D6D5F3" stroke-miterlimit="10"/>
<path d="M1594.12 238.663L1625.81 220.378V183.82L1594.12 202.099V238.663Z" stroke="#D6D5F3" stroke-miterlimit="10"/>
<path d="M1562.44 183.82L1594.13 202.099L1625.81 183.82L1594.13 165.535L1562.44 183.82Z" stroke="#D6D5F3" stroke-miterlimit="10"/>
<path d="M897.052 348.349L928.738 330.07V293.506L897.052 311.785V348.349Z" stroke="#D6D5F3" stroke-miterlimit="10"/>
<path d="M928.737 293.506V330.07L960.424 348.349V311.785L928.737 293.506Z" stroke="#D6D5F3" stroke-miterlimit="10"/>
<path d="M960.426 348.349L992.113 330.07V293.506L960.426 311.785V348.349Z" stroke="#D6D5F3" stroke-miterlimit="10"/>
<path d="M960.426 311.785L992.113 293.507L960.426 275.228" stroke="#D6D5F3" stroke-miterlimit="10"/>
<path d="M1023.8 238.664V275.228L1055.48 293.507V256.943L1023.8 238.664Z" stroke="#D6D5F3" stroke-miterlimit="10"/>
<path d="M1055.48 293.507L1087.16 275.228V238.664L1055.48 256.943V293.507Z" stroke="#D6D5F3" stroke-miterlimit="10"/>
<path d="M1023.8 238.664L1055.48 256.942L1087.17 238.664L1055.48 220.378L1023.8 238.664Z" stroke="#D6D5F3" stroke-miterlimit="10"/>
<path d="M1087.16 238.664V275.228L1118.85 293.507V256.943L1087.16 238.664Z" stroke="#D6D5F3" stroke-miterlimit="10"/>
<path d="M1118.85 293.507L1150.54 275.228V238.664L1118.85 256.943V293.507Z" stroke="#D6D5F3" stroke-miterlimit="10"/>
<path d="M1087.16 238.664L1118.85 256.942L1150.54 238.664L1118.85 220.378L1087.16 238.664Z" stroke="#D6D5F3" stroke-miterlimit="10"/>
<path d="M1023.8 348.349V311.785L992.112 293.506V330.07" stroke="#D6D5F3" stroke-miterlimit="10"/>
<path d="M1023.8 348.349L1055.48 330.07V293.506L1023.8 311.785V348.349Z" stroke="#D6D5F3" stroke-miterlimit="10"/>
<path d="M992.112 293.507L1023.8 311.785L1055.48 293.507L1023.8 275.228L992.112 293.507Z" stroke="#D6D5F3" stroke-miterlimit="10"/>
<path d="M1055.48 293.506V330.07L1087.16 348.349V311.785L1055.48 293.506Z" stroke="#D6D5F3" stroke-miterlimit="10"/>
<path d="M1087.16 348.349L1118.85 330.07V293.506L1087.16 311.785V348.349Z" stroke="#D6D5F3" stroke-miterlimit="10"/>
<path d="M1055.48 293.507L1087.16 311.785L1118.85 293.507L1087.16 275.228L1055.48 293.507Z" stroke="#D6D5F3" stroke-miterlimit="10"/>
<path d="M833.687 348.35V384.914L865.373 403.199V366.635L833.687 348.35Z" stroke="#D6D5F3" stroke-miterlimit="10"/>
<path d="M865.373 403.199L897.053 384.914V348.35L865.373 366.635V403.199Z" stroke="#D6D5F3" stroke-miterlimit="10"/>
<path d="M833.687 348.35L865.373 366.635L897.054 348.35L865.373 330.071L833.687 348.35Z" stroke="#D6D5F3" stroke-miterlimit="10"/>
<path d="M897.052 348.35V384.914L928.738 403.199V366.635L897.052 348.35Z" stroke="#D6D5F3" stroke-miterlimit="10"/>
<path d="M928.737 403.199L960.424 384.914V348.35L928.737 366.635V403.199Z" stroke="#D6D5F3" stroke-miterlimit="10"/>
<path d="M897.052 348.35L928.738 366.635L960.425 348.35L928.738 330.071L897.052 348.35Z" stroke="#D6D5F3" stroke-miterlimit="10"/>
<path d="M802 403.199V439.757L833.686 458.042V421.478L802 403.199Z" stroke="#D6D5F3" stroke-miterlimit="10"/>
<path d="M833.687 458.042L865.373 439.757V403.199L833.687 421.478V458.042Z" stroke="#D6D5F3" stroke-miterlimit="10"/>
<path d="M802 403.199L833.686 421.478L865.373 403.199L833.686 384.914L802 403.199Z" stroke="#D6D5F3" stroke-miterlimit="10"/>
<path d="M865.373 403.199V439.757L897.053 458.042V421.478L865.373 403.199Z" stroke="#D6D5F3" stroke-miterlimit="10"/>
<path d="M897.052 458.042L928.738 439.757V403.199L897.052 421.478V458.042Z" stroke="#D6D5F3" stroke-miterlimit="10"/>
<path d="M865.373 403.199L897.053 421.478L928.739 403.199L897.053 384.914L865.373 403.199Z" stroke="#D6D5F3" stroke-miterlimit="10"/>
<path d="M960.426 348.35V384.914L992.113 403.199V366.635L960.426 348.35Z" stroke="#D6D5F3" stroke-miterlimit="10"/>
<path d="M992.112 403.199L1023.8 384.914V348.35L992.112 366.635V403.199Z" stroke="#D6D5F3" stroke-miterlimit="10"/>
<path d="M992.113 330.071L960.426 348.35L992.113 366.635L1023.8 348.35" stroke="#D6D5F3" stroke-miterlimit="10"/>
<path d="M1023.8 348.35V384.914L1055.48 403.199" stroke="#D6D5F3" stroke-miterlimit="10"/>
<path d="M1023.8 348.35L1055.48 366.635L1087.17 348.35L1055.48 330.071L1023.8 348.35Z" stroke="#D6D5F3" stroke-miterlimit="10"/>
<path d="M928.737 403.199V439.757L960.424 458.042V421.478L928.737 403.199Z" stroke="#D6D5F3" stroke-miterlimit="10"/>
<path d="M960.426 458.042L992.113 439.757V403.199L960.426 421.478V458.042Z" stroke="#D6D5F3" stroke-miterlimit="10"/>
<path d="M928.737 403.199L960.424 421.478L992.11 403.199L960.424 384.914L928.737 403.199Z" stroke="#D6D5F3" stroke-miterlimit="10"/>
<path d="M992.112 403.199V439.757L1023.8 458.042V421.478L992.112 403.199Z" stroke="#D6D5F3" stroke-miterlimit="10"/>
<path d="M1055.48 403.199L1023.8 384.914L992.112 403.199" stroke="#D6D5F3" stroke-miterlimit="10"/>
<path d="M1118.85 183.82V220.378L1150.54 238.663V202.099L1118.85 183.82Z" stroke="#D6D5F3" stroke-miterlimit="10"/>
<path d="M1150.54 238.663L1182.22 220.378V183.82L1150.54 202.099V238.663Z" stroke="#D6D5F3" stroke-miterlimit="10"/>
<path d="M1118.85 183.82L1150.54 202.099L1182.22 183.82L1150.54 165.535L1118.85 183.82Z" stroke="#D6D5F3" stroke-miterlimit="10"/>
<path d="M1087.16 202.099L1118.85 183.82V147.256" stroke="#D6D5F3" stroke-miterlimit="10"/>
<path d="M1372.33 293.506V330.07L1404.01 348.349V311.785L1372.33 293.506Z" stroke="#D6D5F3" stroke-miterlimit="10"/>
<path d="M1404.01 348.349L1435.7 330.07V293.506L1404.01 311.785V348.349Z" stroke="#D6D5F3" stroke-miterlimit="10"/>
<path d="M1372.33 293.507L1404.01 311.785L1435.7 293.507L1404.01 275.228L1372.33 293.507Z" stroke="#D6D5F3" stroke-miterlimit="10"/>
<path d="M1435.7 293.506V330.07L1467.39 348.349V311.785L1435.7 293.506Z" stroke="#D6D5F3" stroke-miterlimit="10"/>
<path d="M1467.39 311.786V348.35L1499.07 330.071" stroke="#D6D5F3" stroke-miterlimit="10"/>
<path d="M1467.39 275.228L1435.7 293.507L1467.39 311.785" stroke="#D6D5F3" stroke-miterlimit="10"/>
<path d="M1435.7 366.635L1404.01 348.35V384.914" stroke="#D6D5F3" stroke-miterlimit="10"/>
<path d="M1404.01 348.35L1435.7 366.635L1467.39 348.35L1435.7 330.071L1404.01 348.35Z" stroke="#D6D5F3" stroke-miterlimit="10"/>
</svg>
