<svg width="50" height="50" viewBox="0 0 50 50" fill="none" xmlns="http://www.w3.org/2000/svg">
<rect y="0.000976562" width="49.9991" height="2.70266" fill="white"/>
<rect x="47.2966" y="0.000976562" width="2.70266" height="8.91876" fill="white"/>
<rect y="0.000976562" width="2.70266" height="48.6478" fill="white"/>
<rect y="47.2964" width="25.6752" height="2.70266" fill="white"/>
<path d="M47.3157 17.2816C46.1226 16.3357 44.6313 15.788 43.0406 15.788C39.213 15.788 36.0813 18.9245 36.0813 22.758C36.0813 26.5915 39.213 29.728 43.0406 29.728C46.8683 29.728 50 26.5915 50 22.758V11.7554H47.3243V17.2816H47.3157ZM43.0406 27.0396C40.7043 27.0396 38.7656 25.098 38.7656 22.758C38.7656 20.4181 40.7043 18.4764 43.0406 18.4764C45.377 18.4764 47.3157 20.4181 47.3157 22.758C47.3157 25.098 45.377 27.0396 43.0406 27.0396Z" fill="white"/>
<path d="M19.3057 17.2816C20.4987 16.3357 21.99 15.788 23.5807 15.788C27.4083 15.788 30.54 18.9245 30.54 22.758C30.54 26.5915 27.4083 29.728 23.5807 29.728C19.7531 29.728 16.6214 26.5915 16.6214 22.758V11.7554H19.297V17.2816H19.3057ZM23.5807 27.0396C25.9171 27.0396 27.8557 25.098 27.8557 22.758C27.8557 20.4181 25.9171 18.4764 23.5807 18.4764C21.2444 18.4764 19.3057 20.4181 19.3057 22.758C19.3057 25.098 21.2444 27.0396 23.5807 27.0396Z" fill="white"/>
<path d="M49.9993 36.0781H47.2966V49.9968H49.9993V36.0781Z" fill="white"/>
<path d="M45.8105 49.9473V43.0127C45.8105 39.1987 42.6788 36.0781 38.8512 36.0781C35.0235 36.0781 31.8918 39.1987 31.8918 43.0127C31.8918 46.8267 35.0235 49.9473 38.8512 49.9473C40.4419 49.9473 41.9332 49.4024 43.1262 48.4613V49.9968H45.8105V49.9473ZM38.8512 47.2725C36.5148 47.2725 34.5762 45.3407 34.5762 43.0127C34.5762 40.6847 36.5148 38.7529 38.8512 38.7529C41.1875 38.7529 43.1262 40.6847 43.1262 43.0127C43.1262 45.3407 41.2372 47.2725 38.8512 47.2725Z" fill="white"/>
<path d="M34.5941 11.7554H32.0266V29.728H34.5941V11.7554Z" fill="white"/>
<path d="M30.0685 49.9971C30.8399 49.9971 31.4185 49.3697 31.4185 48.6458C31.4185 47.8736 30.7917 47.2944 30.0685 47.2944C29.297 47.2944 28.7184 47.9218 28.7184 48.6458C28.6702 49.3697 29.297 49.9971 30.0685 49.9971Z" fill="white"/>
<path d="M48.6301 34.729C49.3765 34.729 49.9815 34.124 49.9815 33.3777C49.9815 32.6314 49.3765 32.0264 48.6301 32.0264C47.8838 32.0264 47.2788 32.6314 47.2788 33.3777C47.2788 34.124 47.8838 34.729 48.6301 34.729Z" fill="white"/>
</svg>
