<svg width="251" height="250" viewBox="0 0 251 250" fill="none" xmlns="http://www.w3.org/2000/svg">
<rect x="11.873" y="15.3511" width="219.294" height="11.8538" fill="#5C55B8"/>
<rect x="219.315" y="15.3511" width="11.8538" height="39.1174" fill="#5C55B8"/>
<rect x="11.873" y="15.3511" width="11.8538" height="213.368" fill="#5C55B8"/>
<rect x="11.873" y="222.787" width="112.611" height="11.8538" fill="#5C55B8"/>
<path d="M219.399 91.1431C214.166 86.9943 207.626 84.5923 200.649 84.5923C183.861 84.5923 170.125 98.3489 170.125 115.163C170.125 131.976 183.861 145.733 200.649 145.733C217.437 145.733 231.172 131.976 231.172 115.163V66.9053H219.437V91.1431H219.399ZM200.649 133.941C190.402 133.941 181.899 125.425 181.899 115.163C181.899 104.9 190.402 96.3837 200.649 96.3837C210.896 96.3837 219.399 104.9 219.399 115.163C219.399 125.425 210.896 133.941 200.649 133.941Z" fill="#5C55B8"/>
<path d="M96.5473 91.1431C101.78 86.9943 108.321 84.5923 115.297 84.5923C132.085 84.5923 145.821 98.3489 145.821 115.163C145.821 131.976 132.085 145.733 115.297 145.733C98.5095 145.733 84.774 131.976 84.774 115.163V66.9053H96.5092V91.1431H96.5473ZM115.297 133.941C125.545 133.941 134.047 125.425 134.047 115.163C134.047 104.9 125.545 96.3837 115.297 96.3837C105.05 96.3837 96.5473 104.9 96.5473 115.163C96.5473 125.425 105.05 133.941 115.297 133.941Z" fill="#5C55B8"/>
<path d="M231.169 173.584H219.315V234.631H231.169V173.584Z" fill="#5C55B8"/>
<path d="M212.798 234.414V203.999C212.798 187.271 199.062 173.584 182.274 173.584C165.487 173.584 151.751 187.271 151.751 203.999C151.751 220.727 165.487 234.414 182.274 234.414C189.251 234.414 195.792 232.024 201.024 227.896V234.631H212.798V234.414ZM182.274 222.682C172.027 222.682 163.524 214.209 163.524 203.999C163.524 193.788 172.027 185.315 182.274 185.315C192.522 185.315 201.024 193.788 201.024 203.999C201.024 214.209 192.74 222.682 182.274 222.682Z" fill="#5C55B8"/>
<path d="M163.603 66.9053H152.342V145.733H163.603V66.9053Z" fill="#5C55B8"/>
<path d="M143.752 234.632C147.136 234.632 149.674 231.88 149.674 228.705C149.674 225.318 146.924 222.778 143.752 222.778C140.369 222.778 137.831 225.53 137.831 228.705C137.62 231.88 140.369 234.632 143.752 234.632Z" fill="#5C55B8"/>
<path d="M225.163 167.667C228.437 167.667 231.09 165.013 231.09 161.74C231.09 158.467 228.437 155.813 225.163 155.813C221.89 155.813 219.236 158.467 219.236 161.74C219.236 165.013 221.89 167.667 225.163 167.667Z" fill="#5C55B8"/>
</svg>
