<svg width="301" height="301" viewBox="0 0 301 301" fill="none" xmlns="http://www.w3.org/2000/svg">
<rect x="34.7588" y="35.5752" width="230.765" height="12.4738" fill="#5C55B8"/>
<rect x="253.051" y="35.575" width="12.4738" height="41.1635" fill="#5C55B8"/>
<rect x="34.7588" y="35.5752" width="12.4738" height="224.528" fill="#5C55B8"/>
<rect x="34.7588" y="253.862" width="118.501" height="12.4738" fill="#5C55B8"/>
<path d="M253.138 115.332C247.632 110.966 240.749 108.439 233.408 108.439C215.742 108.439 201.288 122.915 201.288 140.608C201.288 158.301 215.742 172.777 233.408 172.777C251.074 172.777 265.528 158.301 265.528 140.608V89.8264H253.179V115.332H253.138ZM233.408 160.369C222.624 160.369 213.677 151.408 213.677 140.608C213.677 129.808 222.624 120.847 233.408 120.847C244.191 120.847 253.138 129.808 253.138 140.608C253.138 151.408 244.191 160.369 233.408 160.369Z" fill="#5C55B8"/>
<path d="M123.862 115.332C129.368 110.966 136.251 108.439 143.593 108.439C161.259 108.439 175.713 122.915 175.713 140.608C175.713 158.301 161.259 172.777 143.593 172.777C125.927 172.777 111.473 158.301 111.473 140.608V89.8264H123.822V115.332H123.862ZM143.593 160.369C154.376 160.369 163.324 151.408 163.324 140.608C163.324 129.808 154.376 120.847 143.593 120.847C132.81 120.847 123.862 129.808 123.862 140.608C123.862 151.408 132.81 160.369 143.593 160.369Z" fill="#5C55B8"/>
<path d="M265.525 202.086H253.051V266.326H265.525V202.086Z" fill="#5C55B8"/>
<path d="M246.192 266.097V234.091C246.192 216.488 231.738 202.086 214.072 202.086C196.406 202.086 181.952 216.488 181.952 234.091C181.952 251.695 196.406 266.097 214.072 266.097C221.414 266.097 228.297 263.582 233.803 259.239V266.326H246.192V266.097ZM214.072 253.752C203.289 253.752 194.341 244.836 194.341 234.091C194.341 223.347 203.289 214.431 214.072 214.431C224.855 214.431 233.803 223.347 233.803 234.091C233.803 244.836 225.085 253.752 214.072 253.752Z" fill="#5C55B8"/>
<path d="M194.424 89.8264H182.574V172.777H194.424V89.8264Z" fill="#5C55B8"/>
<path d="M173.536 266.326C177.096 266.326 179.767 263.431 179.767 260.089C179.767 256.525 176.874 253.853 173.536 253.853C169.975 253.853 167.305 256.748 167.305 260.089C167.082 263.431 169.975 266.326 173.536 266.326Z" fill="#5C55B8"/>
<path d="M259.206 195.859C262.65 195.859 265.443 193.066 265.443 189.622C265.443 186.177 262.65 183.385 259.206 183.385C255.761 183.385 252.969 186.177 252.969 189.622C252.969 193.066 255.761 195.859 259.206 195.859Z" fill="#5C55B8"/>
<line x1="0.0751953" y1="0.288443" x2="300.075" y2="0.288443" stroke="#C2BFED" stroke-width="0.576923"/>
<line x1="0.0751953" y1="34.9039" x2="300.075" y2="34.9039" stroke="#C2BFED" stroke-width="0.576923"/>
<line x1="0.0751953" y1="75.8651" x2="300.075" y2="75.8651" stroke="#C2BFED" stroke-width="0.576923"/>
<line x1="0.0751953" y1="89.1337" x2="300.075" y2="89.1337" stroke="#C2BFED" stroke-width="0.576923"/>
<line x1="0.0751953" y1="172.211" x2="300.075" y2="172.211" stroke="#C2BFED" stroke-width="0.576923"/>
<line x1="0.0751953" y1="182.595" x2="300.075" y2="182.595" stroke="#C2BFED" stroke-width="0.576923"/>
<line x1="0.0751953" y1="47.5953" x2="300.075" y2="47.5953" stroke="#C2BFED" stroke-width="0.576923"/>
<line x1="0.0751953" y1="252.98" x2="300.075" y2="252.98" stroke="#C2BFED" stroke-width="0.576923"/>
<line x1="0.0751953" y1="265.672" x2="300.075" y2="265.672" stroke="#C2BFED" stroke-width="0.576923"/>
<line x1="0.0751953" y1="300.289" x2="300.075" y2="300.289" stroke="#C2BFED" stroke-width="0.576923"/>
<line x1="300.364" y1="-0.00122072" x2="300.364" y2="300.575" stroke="#C2BFED" stroke-width="0.576923"/>
<line x1="0.363657" y1="-0.00122072" x2="0.36367" y2="300.575" stroke="#C2BFED" stroke-width="0.576923"/>
<line x1="0.363657" y1="-0.00122072" x2="0.36367" y2="300.575" stroke="#C2BFED" stroke-width="0.576923"/>
<line x1="47.6723" y1="-0.00122072" x2="47.6723" y2="300.575" stroke="#C2BFED" stroke-width="0.576923"/>
<line x1="253.059" y1="-0.001709" x2="253.059" y2="300.575" stroke="#C2BFED" stroke-width="0.576923"/>
<line x1="34.9789" y1="-0.00122072" x2="34.9789" y2="300.575" stroke="#C2BFED" stroke-width="0.576923"/>
<line x1="265.748" y1="-0.00122072" x2="265.748" y2="300.575" stroke="#C2BFED" stroke-width="0.576923"/>
<path d="M141.709 11.2204C144.007 9.39855 146.879 8.34378 149.943 8.34378C157.315 8.34378 163.347 14.3847 163.347 21.768C163.347 29.1514 157.315 35.1923 149.943 35.1923C142.571 35.1923 136.539 29.1514 136.539 21.768V0.576904H141.693V11.2204H141.709ZM149.943 30.0143C154.443 30.0143 158.177 26.2747 158.177 21.768C158.177 17.2613 154.443 13.5217 149.943 13.5217C145.443 13.5217 141.709 17.2613 141.709 21.768C141.709 26.2747 145.443 30.0143 149.943 30.0143Z" fill="#B3AFE9"/>
<path d="M141.709 276.604C144.007 274.782 146.879 273.728 149.943 273.728C157.315 273.728 163.347 279.768 163.347 287.152C163.347 294.535 157.315 300.576 149.943 300.576C142.571 300.576 136.539 294.535 136.539 287.152V265.961H141.693V276.604H141.709ZM149.943 295.398C154.443 295.398 158.177 291.659 158.177 287.152C158.177 282.645 154.443 278.905 149.943 278.905C145.443 278.905 141.709 282.645 141.709 287.152C141.709 291.659 145.443 295.398 149.943 295.398Z" fill="#B3AFE9"/>
<path d="M10.7187 158.943C8.89684 156.646 7.84208 153.773 7.84208 150.71C7.84208 143.338 13.883 137.306 21.2663 137.306C28.6497 137.306 34.6906 143.338 34.6906 150.71C34.6906 158.082 28.6497 164.113 21.2663 164.113L0.0751941 164.113L0.0751944 158.96L10.7187 158.96L10.7187 158.943ZM29.5127 150.71C29.5127 146.21 25.773 142.476 21.2663 142.476C16.7596 142.476 13.02 146.21 13.02 150.71C13.02 155.209 16.7596 158.943 21.2663 158.943C25.773 158.943 29.5127 155.209 29.5127 150.71Z" fill="#B3AFE9"/>
<path d="M276.103 158.943C274.282 156.646 273.227 153.773 273.227 150.71C273.227 143.338 279.268 137.306 286.651 137.306C294.034 137.306 300.075 143.338 300.075 150.71C300.075 158.082 294.034 164.113 286.651 164.113L265.46 164.113L265.46 158.96L276.103 158.96L276.103 158.943ZM294.897 150.71C294.897 146.21 291.158 142.476 286.651 142.476C282.144 142.476 278.405 146.21 278.405 150.71C278.405 155.209 282.144 158.943 286.651 158.943C291.158 158.943 294.897 155.209 294.897 150.71Z" fill="#B3AFE9"/>
</svg>
