<svg width="485" height="200" viewBox="0 0 485 200" fill="none" xmlns="http://www.w3.org/2000/svg">
<path d="M259.488 74.7942C250.58 67.7307 239.444 63.6414 227.566 63.6414C198.984 63.6414 175.599 87.0622 175.599 115.688C175.599 144.313 198.984 167.734 227.566 167.734C256.148 167.734 279.533 144.313 279.533 115.688V33.5288H259.553V74.7942H259.488ZM227.566 147.659C210.12 147.659 195.643 133.16 195.643 115.688C195.643 98.215 210.12 83.7164 227.566 83.7164C245.012 83.7164 259.488 98.215 259.488 115.688C259.488 133.16 245.012 147.659 227.566 147.659Z" fill="#5C55B8"/>
<path d="M54.6209 74.7942C63.5295 67.7307 74.6652 63.6414 86.5433 63.6414C115.125 63.6414 138.51 87.0622 138.51 115.688C138.51 144.313 115.125 167.734 86.5433 167.734C57.9616 167.734 34.5766 144.313 34.5766 115.688V33.5288H54.556V74.7942H54.6209ZM86.5433 147.659C103.989 147.659 118.466 133.16 118.466 115.688C118.466 98.215 103.989 83.7164 86.5433 83.7164C69.0973 83.7164 54.6209 98.215 54.6209 115.688C54.6209 133.16 69.0973 147.659 86.5433 147.659Z" fill="#5C55B8"/>
<path d="M450.712 63.5903H430.531V167.524H450.712V63.5903Z" fill="#5C55B8"/>
<path d="M421.569 167.154V115.372C421.569 86.8921 398.184 63.5903 369.603 63.5903C341.021 63.5903 317.636 86.8921 317.636 115.372C317.636 143.852 341.021 167.154 369.603 167.154C381.481 167.154 392.617 163.085 401.525 156.058V167.524H421.569V167.154ZM369.603 147.181C352.157 147.181 337.68 132.756 337.68 115.372C337.68 97.9882 352.157 83.5633 369.603 83.5633C387.049 83.5633 401.525 97.9882 401.525 115.372C401.525 132.756 387.42 147.181 369.603 147.181Z" fill="#5C55B8"/>
<path d="M166.642 33.5288H147.47V167.734H166.642V33.5288Z" fill="#5C55B8"/>
<path d="M298.594 167.524C304.355 167.524 308.675 162.839 308.675 157.433C308.675 151.667 303.995 147.343 298.594 147.343C292.834 147.343 288.513 152.028 288.513 157.433C288.153 162.839 292.834 167.524 298.594 167.524Z" fill="#5C55B8"/>
<path d="M441.15 53.5148C446.723 53.5148 451.241 48.997 451.241 43.4241C451.241 37.8512 446.723 33.3335 441.15 33.3335C435.578 33.3335 431.06 37.8512 431.06 43.4241C431.06 48.997 435.578 53.5148 441.15 53.5148Z" fill="#5C55B8"/>
</svg>
