<svg width="616" height="301" viewBox="0 0 616 301" fill="none" xmlns="http://www.w3.org/2000/svg">
<path d="M326.684 122.089C316.742 114.205 304.314 109.641 291.057 109.641C259.158 109.641 233.059 135.78 233.059 167.728C233.059 199.676 259.158 225.815 291.057 225.815C322.956 225.815 349.055 199.676 349.055 167.728V76.0342H326.757V122.089H326.684ZM291.057 203.41C271.586 203.41 255.43 187.229 255.43 167.728C255.43 148.228 271.586 132.046 291.057 132.046C310.528 132.046 326.684 148.228 326.684 167.728C326.684 187.229 310.528 203.41 291.057 203.41Z" fill="#5C55B8"/>
<path d="M98.0375 122.089C107.98 114.205 120.408 109.641 133.665 109.641C165.563 109.641 191.662 135.78 191.662 167.728C191.662 199.676 165.563 225.815 133.665 225.815C101.766 225.815 75.667 199.676 75.667 167.728V76.0342H97.9651V122.089H98.0375ZM133.665 203.41C153.135 203.41 169.292 187.229 169.292 167.728C169.292 148.228 153.135 132.046 133.665 132.046C114.194 132.046 98.0375 148.228 98.0375 167.728C98.0375 187.229 114.194 203.41 133.665 203.41Z" fill="#5C55B8"/>
<path d="M540.097 109.582H517.573V225.577H540.097V109.582Z" fill="#5C55B8"/>
<path d="M507.574 225.165V167.373C507.574 135.588 481.475 109.582 449.576 109.582C417.677 109.582 391.578 135.588 391.578 167.373C391.578 199.159 417.677 225.165 449.576 225.165C462.832 225.165 475.26 220.624 485.203 212.781V225.577H507.574V225.165ZM449.576 202.874C430.105 202.874 413.949 186.775 413.949 167.373C413.949 147.972 430.105 131.873 449.576 131.873C469.046 131.873 485.203 147.972 485.203 167.373C485.203 186.775 469.461 202.874 449.576 202.874Z" fill="#5C55B8"/>
<path d="M223.06 76.0342H201.662V225.815H223.06V76.0342Z" fill="#5C55B8"/>
<path d="M370.327 225.579C376.756 225.579 381.578 220.35 381.578 214.317C381.578 207.882 376.354 203.055 370.327 203.055C363.898 203.055 359.076 208.284 359.076 214.317C358.675 220.35 363.898 225.579 370.327 225.579Z" fill="#5C55B8"/>
<path d="M529.428 98.3381C535.648 98.3381 540.69 93.2961 540.69 87.0764C540.69 80.8567 535.648 75.8147 529.428 75.8147C523.209 75.8147 518.167 80.8567 518.167 87.0764C518.167 93.2961 523.209 98.3381 529.428 98.3381Z" fill="#5C55B8"/>
<line x1="75.362" y1="0.28833" x2="75.362" y2="300.288" stroke="#E0E0E0" stroke-width="0.573613"/>
<line x1="191.612" y1="0.28833" x2="191.612" y2="300.288" stroke="#E0E0E0" stroke-width="0.573613"/>
<line x1="201.612" y1="0.28833" x2="201.612" y2="300.288" stroke="#E0E0E0" stroke-width="0.573613"/>
<line x1="232.862" y1="0.28833" x2="232.862" y2="300.288" stroke="#E0E0E0" stroke-width="0.573613"/>
<line x1="359.114" y1="0.28833" x2="359.114" y2="300.288" stroke="#E0E0E0" stroke-width="0.573613"/>
<line x1="381.612" y1="0.28833" x2="381.612" y2="300.288" stroke="#E0E0E0" stroke-width="0.573613"/>
<line x1="391.61" y1="0.28833" x2="391.61" y2="300.288" stroke="#E0E0E0" stroke-width="0.573613"/>
<line x1="507.862" y1="0.28833" x2="507.862" y2="300.288" stroke="#E0E0E0" stroke-width="0.573613"/>
<line x1="349.108" y1="0.28833" x2="349.108" y2="300.288" stroke="#E0E0E0" stroke-width="0.573613"/>
<line x1="222.86" y1="0.28833" x2="222.86" y2="300.288" stroke="#E0E0E0" stroke-width="0.573613"/>
<line x1="0.362002" y1="0.28833" x2="0.362015" y2="300.288" stroke="#E0E0E0" stroke-width="0.573613"/>
<line x1="615.362" y1="0.28833" x2="615.362" y2="300.288" stroke="#E0E0E0" stroke-width="0.573613"/>
<line x1="615.075" y1="0.575137" x2="0.0757446" y2="0.575137" stroke="#E0E0E0" stroke-width="0.573613"/>
<line x1="615.075" y1="300.575" x2="0.0757446" y2="300.575" stroke="#E0E0E0" stroke-width="0.573613"/>
<line x1="615.075" y1="109.325" x2="0.0757446" y2="109.325" stroke="#E0E0E0" stroke-width="0.573613"/>
<line x1="615.075" y1="225.575" x2="0.0757446" y2="225.575" stroke="#E0E0E0" stroke-width="0.573613"/>
<line x1="517.862" y1="0.28833" x2="517.862" y2="300.288" stroke="#E0E0E0" stroke-width="0.573613"/>
<line x1="540.362" y1="0.28833" x2="540.362" y2="300.288" stroke="#E0E0E0" stroke-width="0.573613"/>
<path d="M23.1361 168.419C19.1887 163.441 16.9034 157.218 16.9034 150.58C16.9034 134.607 29.9921 121.538 45.9893 121.538C61.9865 121.538 75.0751 134.607 75.0751 150.58C75.0751 166.552 61.9865 179.621 45.9893 179.621L0.0751928 179.621L0.0751933 168.456L23.1361 168.456L23.1361 168.419ZM63.8563 150.58C63.8563 140.83 55.7538 132.74 45.9893 132.74C36.2247 132.74 28.1223 140.83 28.1223 150.58C28.1223 160.329 36.2247 168.419 45.9893 168.419C55.7538 168.419 63.8563 160.329 63.8563 150.58Z" fill="#B3AFE9"/>
<path d="M563.136 168.419C559.189 163.441 556.903 157.218 556.903 150.58C556.903 134.607 569.992 121.538 585.989 121.538C601.986 121.538 615.075 134.607 615.075 150.58C615.075 166.552 601.986 179.621 585.989 179.621L540.075 179.621L540.075 168.456L563.136 168.456L563.136 168.419ZM603.856 150.58C603.856 140.83 595.754 132.74 585.989 132.74C576.225 132.74 568.122 140.83 568.122 150.58C568.122 160.329 576.225 168.419 585.989 168.419C595.754 168.419 603.856 160.329 603.856 150.58Z" fill="#B3AFE9"/>
<path d="M289.444 23.3492C294.423 19.4019 300.646 17.1166 307.284 17.1166C323.257 17.1166 336.325 30.2052 336.325 46.2024C336.325 62.1996 323.257 75.2882 307.284 75.2882C291.311 75.2882 278.243 62.1996 278.243 46.2024L278.243 0.288325L289.408 0.288326L289.408 23.3492L289.444 23.3492ZM307.284 64.0694C317.033 64.0694 325.124 55.9669 325.124 46.2024C325.124 36.4379 317.033 28.3354 307.284 28.3354C297.534 28.3354 289.444 36.4379 289.444 46.2024C289.444 55.9669 297.534 64.0694 307.284 64.0694Z" fill="#B3AFE9"/>
<path d="M289.444 248.349C294.423 244.402 300.646 242.117 307.284 242.117C323.257 242.117 336.325 255.205 336.325 271.202C336.325 287.2 323.257 300.288 307.284 300.288C291.311 300.288 278.243 287.2 278.243 271.202L278.243 225.288L289.408 225.288L289.408 248.349L289.444 248.349ZM307.284 289.069C317.033 289.069 325.124 280.967 325.124 271.202C325.124 261.438 317.033 253.335 307.284 253.335C297.534 253.335 289.444 261.438 289.444 271.202C289.444 280.967 297.534 289.069 307.284 289.069Z" fill="#B3AFE9"/>
</svg>
