<svg width="31" height="30" viewBox="0 0 31 30" fill="none" xmlns="http://www.w3.org/2000/svg">
<rect x="0.0419922" y="-0.00146484" width="29.9995" height="1.62159" fill="white"/>
<rect x="28.4199" y="-0.00146484" width="1.62159" height="5.35126" fill="white"/>
<rect x="0.0419922" y="-0.00146484" width="1.62159" height="29.1887" fill="white"/>
<rect x="0.0419922" y="28.3757" width="15.4051" height="1.62159" fill="white"/>
<path d="M28.431 10.367C27.7152 9.79944 26.8205 9.47086 25.866 9.47086C23.5695 9.47086 21.6904 11.3528 21.6904 13.6529C21.6904 15.953 23.5695 17.8349 25.866 17.8349C28.1626 17.8349 30.0416 15.953 30.0416 13.6529V7.05127H28.4363V10.367H28.431ZM25.866 16.2218C24.4642 16.2218 23.301 15.0568 23.301 13.6529C23.301 12.2489 24.4642 11.0839 25.866 11.0839C27.2678 11.0839 28.431 12.2489 28.431 13.6529C28.431 15.0568 27.2678 16.2218 25.866 16.2218Z" fill="white"/>
<path d="M11.6256 10.367C12.3414 9.79944 13.2362 9.47086 14.1906 9.47086C16.4872 9.47086 18.3662 11.3528 18.3662 13.6529C18.3662 15.953 16.4872 17.8349 14.1906 17.8349C11.894 17.8349 10.015 15.953 10.015 13.6529V7.05127H11.6204V10.367H11.6256ZM14.1906 16.2218C15.5924 16.2218 16.7556 15.0568 16.7556 13.6529C16.7556 12.2489 15.5924 11.0839 14.1906 11.0839C12.7888 11.0839 11.6256 12.2489 11.6256 13.6529C11.6256 15.0568 12.7888 16.2218 14.1906 16.2218Z" fill="white"/>
<path d="M30.0415 21.645H28.4199V29.9962H30.0415V21.645Z" fill="white"/>
<path d="M27.528 29.9665V25.8058C27.528 23.5174 25.6489 21.645 23.3524 21.645C21.0558 21.645 19.1768 23.5174 19.1768 25.8058C19.1768 28.0942 21.0558 29.9665 23.3524 29.9665C24.3068 29.9665 25.2016 29.6396 25.9174 29.0749V29.9962H27.528V29.9665ZM23.3524 28.3616C21.9506 28.3616 20.7873 27.2026 20.7873 25.8058C20.7873 24.4089 21.9506 23.2499 23.3524 23.2499C24.7542 23.2499 25.9174 24.4089 25.9174 25.8058C25.9174 27.2026 24.784 28.3616 23.3524 28.3616Z" fill="white"/>
<path d="M20.7983 7.05127H19.2578V17.8349H20.7983V7.05127Z" fill="white"/>
<path d="M18.0831 29.9963C18.5459 29.9963 18.8931 29.6199 18.8931 29.1856C18.8931 28.7222 18.517 28.3748 18.0831 28.3748C17.6202 28.3748 17.273 28.7512 17.273 29.1856C17.2441 29.6199 17.6202 29.9963 18.0831 29.9963Z" fill="white"/>
<path d="M29.22 20.8355C29.6678 20.8355 30.0308 20.4725 30.0308 20.0247C30.0308 19.5769 29.6678 19.2139 29.22 19.2139C28.7722 19.2139 28.4092 19.5769 28.4092 20.0247C28.4092 20.4725 28.7722 20.8355 29.22 20.8355Z" fill="white"/>
</svg>
