<svg width="574" height="204" viewBox="0 0 574 204" fill="none" xmlns="http://www.w3.org/2000/svg">
<path d="M300.772 80.1689C293.215 74.1777 283.77 70.7091 273.695 70.7091C249.452 70.7091 229.617 90.5747 229.617 114.855C229.617 139.135 249.452 159.001 273.695 159.001C297.938 159.001 317.773 139.135 317.773 114.855V45.1675H300.827V80.1689H300.772ZM273.695 141.973C258.897 141.973 246.618 129.675 246.618 114.855C246.618 100.035 258.897 87.7368 273.695 87.7368C288.493 87.7368 300.772 100.035 300.772 114.855C300.772 129.675 288.493 141.973 273.695 141.973Z" fill="#5C55B8"/>
<path d="M127.003 80.1689C134.559 74.1777 144.004 70.7091 154.079 70.7091C178.322 70.7091 198.158 90.5747 198.158 114.855C198.158 139.135 178.322 159.001 154.079 159.001C129.836 159.001 110.001 139.135 110.001 114.855V45.1675H126.948V80.1689H127.003ZM154.079 141.973C168.877 141.973 181.156 129.675 181.156 114.855C181.156 100.035 168.877 87.7368 154.079 87.7368C139.282 87.7368 127.003 100.035 127.003 114.855C127.003 129.675 139.282 141.973 154.079 141.973Z" fill="#5C55B8"/>
<path d="M462.969 70.6626H445.851V158.819H462.969V70.6626Z" fill="#5C55B8"/>
<path d="M438.25 158.506V114.584C438.25 90.4273 418.415 70.6626 394.172 70.6626C369.929 70.6626 350.093 90.4273 350.093 114.584C350.093 138.741 369.929 158.506 394.172 158.506C404.247 158.506 413.692 155.055 421.248 149.094V158.819H438.25V158.506ZM394.172 141.564C379.374 141.564 367.095 129.329 367.095 114.584C367.095 99.839 379.374 87.6037 394.172 87.6037C408.969 87.6037 421.248 99.839 421.248 114.584C421.248 129.329 409.284 141.564 394.172 141.564Z" fill="#5C55B8"/>
<path d="M222.02 45.1675H205.758V159.001H222.02V45.1675Z" fill="#5C55B8"/>
<path d="M333.942 158.821C338.828 158.821 342.492 154.847 342.492 150.262C342.492 145.371 338.522 141.703 333.942 141.703C329.056 141.703 325.391 145.677 325.391 150.262C325.086 154.847 329.056 158.821 333.942 158.821Z" fill="#5C55B8"/>
<path d="M454.859 62.1178C459.586 62.1178 463.418 58.2859 463.418 53.5589C463.418 48.832 459.586 45 454.859 45C450.132 45 446.3 48.832 446.3 53.5589C446.3 58.2859 450.132 62.1178 454.859 62.1178Z" fill="#5C55B8"/>
<rect x="37" y="2" width="500" height="200" stroke="#E4E7EB" stroke-width="3"/>
</svg>
