<svg width="574" height="204" viewBox="0 0 574 204" fill="none" xmlns="http://www.w3.org/2000/svg">
<rect x="37.6667" y="2" width="500" height="200" fill="#00C871"/>
<path d="M301.44 80.1689C293.884 74.1777 284.439 70.7091 274.364 70.7091C250.121 70.7091 230.285 90.5747 230.285 114.855C230.285 139.135 250.121 159.001 274.364 159.001C298.607 159.001 318.442 139.135 318.442 114.855V45.1675H301.495V80.1689H301.44ZM274.364 141.973C259.566 141.973 247.287 129.675 247.287 114.855C247.287 100.035 259.566 87.7368 274.364 87.7368C289.161 87.7368 301.44 100.035 301.44 114.855C301.44 129.675 289.161 141.973 274.364 141.973Z" fill="#212121"/>
<path d="M301.44 80.1689C293.884 74.1777 284.439 70.7091 274.364 70.7091C250.121 70.7091 230.285 90.5747 230.285 114.855C230.285 139.135 250.121 159.001 274.364 159.001C298.607 159.001 318.442 139.135 318.442 114.855V45.1675H301.495V80.1689H301.44ZM274.364 141.973C259.566 141.973 247.287 129.675 247.287 114.855C247.287 100.035 259.566 87.7368 274.364 87.7368C289.161 87.7368 301.44 100.035 301.44 114.855C301.44 129.675 289.161 141.973 274.364 141.973Z" fill="black" fill-opacity="0.2"/>
<path d="M301.44 80.1689C293.884 74.1777 284.439 70.7091 274.364 70.7091C250.121 70.7091 230.285 90.5747 230.285 114.855C230.285 139.135 250.121 159.001 274.364 159.001C298.607 159.001 318.442 139.135 318.442 114.855V45.1675H301.495V80.1689H301.44ZM274.364 141.973C259.566 141.973 247.287 129.675 247.287 114.855C247.287 100.035 259.566 87.7368 274.364 87.7368C289.161 87.7368 301.44 100.035 301.44 114.855C301.44 129.675 289.161 141.973 274.364 141.973Z" fill="black" fill-opacity="0.2"/>
<path d="M301.44 80.1689C293.884 74.1777 284.439 70.7091 274.364 70.7091C250.121 70.7091 230.285 90.5747 230.285 114.855C230.285 139.135 250.121 159.001 274.364 159.001C298.607 159.001 318.442 139.135 318.442 114.855V45.1675H301.495V80.1689H301.44ZM274.364 141.973C259.566 141.973 247.287 129.675 247.287 114.855C247.287 100.035 259.566 87.7368 274.364 87.7368C289.161 87.7368 301.44 100.035 301.44 114.855C301.44 129.675 289.161 141.973 274.364 141.973Z" fill="black" fill-opacity="0.2"/>
<path d="M301.44 80.1689C293.884 74.1777 284.439 70.7091 274.364 70.7091C250.121 70.7091 230.285 90.5747 230.285 114.855C230.285 139.135 250.121 159.001 274.364 159.001C298.607 159.001 318.442 139.135 318.442 114.855V45.1675H301.495V80.1689H301.44ZM274.364 141.973C259.566 141.973 247.287 129.675 247.287 114.855C247.287 100.035 259.566 87.7368 274.364 87.7368C289.161 87.7368 301.44 100.035 301.44 114.855C301.44 129.675 289.161 141.973 274.364 141.973Z" fill="black" fill-opacity="0.2"/>
<path d="M127.668 80.1689C135.224 74.1777 144.669 70.7091 154.744 70.7091C178.987 70.7091 198.823 90.5747 198.823 114.855C198.823 139.135 178.987 159.001 154.744 159.001C130.501 159.001 110.666 139.135 110.666 114.855V45.1675H127.613V80.1689H127.668ZM154.744 141.973C169.542 141.973 181.821 129.675 181.821 114.855C181.821 100.035 169.542 87.7368 154.744 87.7368C139.947 87.7368 127.668 100.035 127.668 114.855C127.668 129.675 139.947 141.973 154.744 141.973Z" fill="#212121"/>
<path d="M127.668 80.1689C135.224 74.1777 144.669 70.7091 154.744 70.7091C178.987 70.7091 198.823 90.5747 198.823 114.855C198.823 139.135 178.987 159.001 154.744 159.001C130.501 159.001 110.666 139.135 110.666 114.855V45.1675H127.613V80.1689H127.668ZM154.744 141.973C169.542 141.973 181.821 129.675 181.821 114.855C181.821 100.035 169.542 87.7368 154.744 87.7368C139.947 87.7368 127.668 100.035 127.668 114.855C127.668 129.675 139.947 141.973 154.744 141.973Z" fill="black" fill-opacity="0.2"/>
<path d="M127.668 80.1689C135.224 74.1777 144.669 70.7091 154.744 70.7091C178.987 70.7091 198.823 90.5747 198.823 114.855C198.823 139.135 178.987 159.001 154.744 159.001C130.501 159.001 110.666 139.135 110.666 114.855V45.1675H127.613V80.1689H127.668ZM154.744 141.973C169.542 141.973 181.821 129.675 181.821 114.855C181.821 100.035 169.542 87.7368 154.744 87.7368C139.947 87.7368 127.668 100.035 127.668 114.855C127.668 129.675 139.947 141.973 154.744 141.973Z" fill="black" fill-opacity="0.2"/>
<path d="M127.668 80.1689C135.224 74.1777 144.669 70.7091 154.744 70.7091C178.987 70.7091 198.823 90.5747 198.823 114.855C198.823 139.135 178.987 159.001 154.744 159.001C130.501 159.001 110.666 139.135 110.666 114.855V45.1675H127.613V80.1689H127.668ZM154.744 141.973C169.542 141.973 181.821 129.675 181.821 114.855C181.821 100.035 169.542 87.7368 154.744 87.7368C139.947 87.7368 127.668 100.035 127.668 114.855C127.668 129.675 139.947 141.973 154.744 141.973Z" fill="black" fill-opacity="0.2"/>
<path d="M127.668 80.1689C135.224 74.1777 144.669 70.7091 154.744 70.7091C178.987 70.7091 198.823 90.5747 198.823 114.855C198.823 139.135 178.987 159.001 154.744 159.001C130.501 159.001 110.666 139.135 110.666 114.855V45.1675H127.613V80.1689H127.668ZM154.744 141.973C169.542 141.973 181.821 129.675 181.821 114.855C181.821 100.035 169.542 87.7368 154.744 87.7368C139.947 87.7368 127.668 100.035 127.668 114.855C127.668 129.675 139.947 141.973 154.744 141.973Z" fill="black" fill-opacity="0.2"/>
<path d="M463.634 70.6626H446.516V158.819H463.634V70.6626Z" fill="#212121"/>
<path d="M463.634 70.6626H446.516V158.819H463.634V70.6626Z" fill="black" fill-opacity="0.2"/>
<path d="M463.634 70.6626H446.516V158.819H463.634V70.6626Z" fill="black" fill-opacity="0.2"/>
<path d="M463.634 70.6626H446.516V158.819H463.634V70.6626Z" fill="black" fill-opacity="0.2"/>
<path d="M463.634 70.6626H446.516V158.819H463.634V70.6626Z" fill="black" fill-opacity="0.2"/>
<path d="M438.917 158.506V114.584C438.917 90.4273 419.081 70.6626 394.838 70.6626C370.595 70.6626 350.76 90.4273 350.76 114.584C350.76 138.741 370.595 158.506 394.838 158.506C404.913 158.506 414.359 155.055 421.915 149.094V158.819H438.917V158.506ZM394.838 141.564C380.041 141.564 367.762 129.329 367.762 114.584C367.762 99.839 380.041 87.6037 394.838 87.6037C409.636 87.6037 421.915 99.839 421.915 114.584C421.915 129.329 409.951 141.564 394.838 141.564Z" fill="#212121"/>
<path d="M438.917 158.506V114.584C438.917 90.4273 419.081 70.6626 394.838 70.6626C370.595 70.6626 350.76 90.4273 350.76 114.584C350.76 138.741 370.595 158.506 394.838 158.506C404.913 158.506 414.359 155.055 421.915 149.094V158.819H438.917V158.506ZM394.838 141.564C380.041 141.564 367.762 129.329 367.762 114.584C367.762 99.839 380.041 87.6037 394.838 87.6037C409.636 87.6037 421.915 99.839 421.915 114.584C421.915 129.329 409.951 141.564 394.838 141.564Z" fill="black" fill-opacity="0.2"/>
<path d="M438.917 158.506V114.584C438.917 90.4273 419.081 70.6626 394.838 70.6626C370.595 70.6626 350.76 90.4273 350.76 114.584C350.76 138.741 370.595 158.506 394.838 158.506C404.913 158.506 414.359 155.055 421.915 149.094V158.819H438.917V158.506ZM394.838 141.564C380.041 141.564 367.762 129.329 367.762 114.584C367.762 99.839 380.041 87.6037 394.838 87.6037C409.636 87.6037 421.915 99.839 421.915 114.584C421.915 129.329 409.951 141.564 394.838 141.564Z" fill="black" fill-opacity="0.2"/>
<path d="M438.917 158.506V114.584C438.917 90.4273 419.081 70.6626 394.838 70.6626C370.595 70.6626 350.76 90.4273 350.76 114.584C350.76 138.741 370.595 158.506 394.838 158.506C404.913 158.506 414.359 155.055 421.915 149.094V158.819H438.917V158.506ZM394.838 141.564C380.041 141.564 367.762 129.329 367.762 114.584C367.762 99.839 380.041 87.6037 394.838 87.6037C409.636 87.6037 421.915 99.839 421.915 114.584C421.915 129.329 409.951 141.564 394.838 141.564Z" fill="black" fill-opacity="0.2"/>
<path d="M438.917 158.506V114.584C438.917 90.4273 419.081 70.6626 394.838 70.6626C370.595 70.6626 350.76 90.4273 350.76 114.584C350.76 138.741 370.595 158.506 394.838 158.506C404.913 158.506 414.359 155.055 421.915 149.094V158.819H438.917V158.506ZM394.838 141.564C380.041 141.564 367.762 129.329 367.762 114.584C367.762 99.839 380.041 87.6037 394.838 87.6037C409.636 87.6037 421.915 99.839 421.915 114.584C421.915 129.329 409.951 141.564 394.838 141.564Z" fill="black" fill-opacity="0.2"/>
<path d="M222.685 45.1675H206.423V159.001H222.685V45.1675Z" fill="#212121"/>
<path d="M222.685 45.1675H206.423V159.001H222.685V45.1675Z" fill="black" fill-opacity="0.2"/>
<path d="M222.685 45.1675H206.423V159.001H222.685V45.1675Z" fill="black" fill-opacity="0.2"/>
<path d="M222.685 45.1675H206.423V159.001H222.685V45.1675Z" fill="black" fill-opacity="0.2"/>
<path d="M222.685 45.1675H206.423V159.001H222.685V45.1675Z" fill="black" fill-opacity="0.2"/>
<path d="M334.609 158.821C339.495 158.821 343.159 154.847 343.159 150.262C343.159 145.371 339.189 141.703 334.609 141.703C329.723 141.703 326.058 145.677 326.058 150.262C325.753 154.847 329.723 158.821 334.609 158.821Z" fill="#212121"/>
<path d="M334.609 158.821C339.495 158.821 343.159 154.847 343.159 150.262C343.159 145.371 339.189 141.703 334.609 141.703C329.723 141.703 326.058 145.677 326.058 150.262C325.753 154.847 329.723 158.821 334.609 158.821Z" fill="black" fill-opacity="0.2"/>
<path d="M334.609 158.821C339.495 158.821 343.159 154.847 343.159 150.262C343.159 145.371 339.189 141.703 334.609 141.703C329.723 141.703 326.058 145.677 326.058 150.262C325.753 154.847 329.723 158.821 334.609 158.821Z" fill="black" fill-opacity="0.2"/>
<path d="M334.609 158.821C339.495 158.821 343.159 154.847 343.159 150.262C343.159 145.371 339.189 141.703 334.609 141.703C329.723 141.703 326.058 145.677 326.058 150.262C325.753 154.847 329.723 158.821 334.609 158.821Z" fill="black" fill-opacity="0.2"/>
<path d="M334.609 158.821C339.495 158.821 343.159 154.847 343.159 150.262C343.159 145.371 339.189 141.703 334.609 141.703C329.723 141.703 326.058 145.677 326.058 150.262C325.753 154.847 329.723 158.821 334.609 158.821Z" fill="black" fill-opacity="0.2"/>
<path d="M455.527 62.1178C460.254 62.1178 464.086 58.2859 464.086 53.5589C464.086 48.832 460.254 45 455.527 45C450.8 45 446.968 48.832 446.968 53.5589C446.968 58.2859 450.8 62.1178 455.527 62.1178Z" fill="#212121"/>
<path d="M455.527 62.1178C460.254 62.1178 464.086 58.2859 464.086 53.5589C464.086 48.832 460.254 45 455.527 45C450.8 45 446.968 48.832 446.968 53.5589C446.968 58.2859 450.8 62.1178 455.527 62.1178Z" fill="black" fill-opacity="0.2"/>
<path d="M455.527 62.1178C460.254 62.1178 464.086 58.2859 464.086 53.5589C464.086 48.832 460.254 45 455.527 45C450.8 45 446.968 48.832 446.968 53.5589C446.968 58.2859 450.8 62.1178 455.527 62.1178Z" fill="black" fill-opacity="0.2"/>
<path d="M455.527 62.1178C460.254 62.1178 464.086 58.2859 464.086 53.5589C464.086 48.832 460.254 45 455.527 45C450.8 45 446.968 48.832 446.968 53.5589C446.968 58.2859 450.8 62.1178 455.527 62.1178Z" fill="black" fill-opacity="0.2"/>
<path d="M455.527 62.1178C460.254 62.1178 464.086 58.2859 464.086 53.5589C464.086 48.832 460.254 45 455.527 45C450.8 45 446.968 48.832 446.968 53.5589C446.968 58.2859 450.8 62.1178 455.527 62.1178Z" fill="black" fill-opacity="0.2"/>
<rect x="37.6667" y="2" width="500" height="200" stroke="#E4E7EB" stroke-width="3"/>
</svg>
