<svg width="574" height="204" viewBox="0 0 574 204" fill="none" xmlns="http://www.w3.org/2000/svg">
<rect x="37.3335" y="2" width="500" height="200" fill="#5C55B8"/>
<path d="M301.105 80.1689C293.549 74.1777 284.104 70.7091 274.029 70.7091C249.785 70.7091 229.95 90.5747 229.95 114.855C229.95 139.135 249.785 159.001 274.029 159.001C298.272 159.001 318.107 139.135 318.107 114.855V45.1675H301.16V80.1689H301.105ZM274.029 141.973C259.231 141.973 246.952 129.675 246.952 114.855C246.952 100.035 259.231 87.7368 274.029 87.7368C288.826 87.7368 301.105 100.035 301.105 114.855C301.105 129.675 288.826 141.973 274.029 141.973Z" fill="white"/>
<path d="M127.336 80.1689C134.892 74.1777 144.338 70.7091 154.413 70.7091C178.656 70.7091 198.491 90.5747 198.491 114.855C198.491 139.135 178.656 159.001 154.413 159.001C130.17 159.001 110.334 139.135 110.334 114.855V45.1675H127.281V80.1689H127.336ZM154.413 141.973C169.211 141.973 181.49 129.675 181.49 114.855C181.49 100.035 169.211 87.7368 154.413 87.7368C139.615 87.7368 127.336 100.035 127.336 114.855C127.336 129.675 139.615 141.973 154.413 141.973Z" fill="white"/>
<path d="M463.302 70.6626H446.184V158.819H463.302V70.6626Z" fill="white"/>
<path d="M438.583 158.506V114.584C438.583 90.4273 418.748 70.6626 394.505 70.6626C370.262 70.6626 350.427 90.4273 350.427 114.584C350.427 138.741 370.262 158.506 394.505 158.506C404.58 158.506 414.026 155.055 421.582 149.094V158.819H438.583V158.506ZM394.505 141.564C379.707 141.564 367.428 129.329 367.428 114.584C367.428 99.839 379.707 87.6037 394.505 87.6037C409.303 87.6037 421.582 99.839 421.582 114.584C421.582 129.329 409.618 141.564 394.505 141.564Z" fill="white"/>
<path d="M222.353 45.1675H206.091V159.001H222.353V45.1675Z" fill="white"/>
<path d="M334.275 158.821C339.161 158.821 342.826 154.847 342.826 150.262C342.826 145.371 338.856 141.703 334.275 141.703C329.389 141.703 325.725 145.677 325.725 150.262C325.419 154.847 329.389 158.821 334.275 158.821Z" fill="white"/>
<path d="M455.192 62.1178C459.919 62.1178 463.751 58.2859 463.751 53.5589C463.751 48.832 459.919 45 455.192 45C450.465 45 446.633 48.832 446.633 53.5589C446.633 58.2859 450.465 62.1178 455.192 62.1178Z" fill="white"/>
<rect x="37.3335" y="2" width="500" height="200" stroke="#E4E7EB" stroke-width="3"/>
</svg>
